<?xml version="1.0" encoding="UTF-8"?>
<svg width="136px" height="136px" viewBox="0 0 136 136" version="1.1" xmlns="http://www.w3.org/2000/svg" xmlns:xlink="http://www.w3.org/1999/xlink">
    <!-- Generator: Sketch 48.2 (47327) - http://www.bohemiancoding.com/sketch -->
    <title>Page 1</title>
    <desc>Created with Sketch.</desc>
    <defs></defs>
    <g id="PTCHR-Detail-Broil-v1.0" stroke="none" stroke-width="1" fill="none" fill-rule="evenodd" transform="translate(-687.000000, -4539.000000)">
        <g id="Group-8" transform="translate(75.000000, 4522.000000)" fill="#131313">
            <g id="Page-1" transform="translate(612.000000, 17.000000)">
                <path d="M0,118.283951 C39.4282593,78.8556914 78.8556914,39.4282593 118.283951,0 L134,0 C133.187728,1.05297531 132.479679,2.211 131.547469,3.14403704 C88.7642469,45.962 45.9628272,88.7634198 3.1448642,131.545815 C2.211,132.478852 1.05297531,133.187728 0,134 L0,118.283951 Z" id="Fill-1"></path>
                <path d="M136,39.6470588 L39.6470588,136 L24,136 C27.3254118,132.428353 30.5462353,128.752941 33.9918824,125.302353 C66.9190588,92.32 99.8824706,59.3722353 132.855765,26.436 C133.786353,25.5062353 134.946706,24.8062353 136,24 L136,39.6470588 Z" id="Fill-3"></path>
                <path d="M0,75.5714286 C2.89717857,72.9740714 5.92085714,70.5032143 8.671,67.7588214 C31.2734286,45.2015714 53.82575,22.5925714 76.3928571,0 L92,0 C87.5396429,4.73060714 83.1918214,9.57457143 78.6000357,14.17375 C53.2836071,39.53125 27.9105,64.83125 2.53657143,90.1320714 C1.80139286,90.8647857 0.850178571,91.3822857 0,92 L0,75.5714286 Z" id="Fill-5"></path>
                <path d="M136,80.6860465 L80.6860465,136 L65,136 C65.6167093,135.143872 66.1293953,134.184547 66.8649884,133.447302 C89.0409302,111.234209 111.23586,89.0392791 133.448128,66.8633372 C134.185372,66.1277442 135.144698,65.6158837 136,65 L136,80.6860465 Z" id="Fill-7"></path>
                <path d="M52,0 C51.5756129,0.672645161 51.2585806,1.45348387 50.7100645,2.00367742 C34.5917419,18.1572258 18.454129,34.2931613 2.2963871,50.4089677 C1.64722581,51.0556129 0.770774194,51.4749677 0,52 L0,36.0645161 L36.0645161,0 L52,0 Z" id="Fill-9"></path>
                <path d="M105,136 C114.054514,126.998333 123.093946,117.983333 132.180297,109.014167 C133.327297,107.8825 134.721459,106.998333 136,106 L136,121.833333 L121.756757,136 L105,136 Z" id="Fill-11"></path>
                <polygon id="Fill-13" points="10 0 0 10 0 0"></polygon>
            </g>
        </g>
    </g>
</svg>