<?xml version="1.0" encoding="UTF-8"?>
<svg width="154px" height="51px" viewBox="0 0 154 51" version="1.1" xmlns="http://www.w3.org/2000/svg" xmlns:xlink="http://www.w3.org/1999/xlink">
    <!-- Generator: Sketch 48.2 (47327) - http://www.bohemiancoding.com/sketch -->
    <title>herbalife-logo-154-51 copy</title>
    <desc>Created with Sketch.</desc>
    <defs></defs>
    <g id="Page-1" stroke="none" stroke-width="1" fill="none" fill-rule="evenodd">
        <g id="herbalife-logo-154-51-copy">
            <g id="Oriental-logo-2" transform="translate(53.000000, 1.000000)">
                <g id="Group-4" stroke="#FFFFFF" stroke-width="0.5">
                    <path d="M24.7620269,49.9274532 C38.4317839,49.9274532 49.510876,38.7961829 49.510876,25.0626249 C49.510876,11.3308013 38.4317839,0.19895296 24.7620269,0.19895296 C11.0951471,0.19895296 0.0166304348,11.3308013 0.0166304348,25.0626249 C0.0166304348,38.7961829 11.0951471,49.9274532 24.7620269,49.9274532" id="Stroke-3"></path>
                </g>
                <path d="M9.62376905,32.9364849 L9.62376905,35.9378452 C15.8729697,35.9378452 19.1242981,39.1885922 19.1242981,45.4372115 L22.125077,45.4372115 C22.125077,37.8329516 17.9081745,32.9364849 9.62376905,32.9364849 L9.62376905,32.9364849 Z M27.8755043,45.4372115 L30.8757019,45.4372115 C30.8757019,39.1885922 34.124705,35.9378452 40.3756496,35.9378452 L40.3756496,32.9364849 C32.0929881,32.9364849 27.8755043,37.8329516 27.8755043,45.4372115 L27.8755043,45.4372115 Z M22.9999651,9.24707305 L22.9999651,30.6280592 C17.9477044,29.6880632 14.1255188,25.2613038 14.1255188,19.9381474 C14.1255188,14.6155724 17.9477044,10.1835812 22.9999651,9.24707305 L22.9999651,9.24707305 Z M24.999128,47.8124891 C12.3652789,47.8124891 2.12472823,37.5690319 2.12472823,24.9363454 C2.12472823,12.9762472 11.3008801,3.16413017 22.9999651,2.14972504 L22.9999651,5.06970039 C15.6619502,6.04922626 9.99872109,12.3321436 9.99872109,19.9381474 C9.99872109,27.5429887 15.6619502,33.82765 22.9999651,34.8060132 L22.9999651,45.4372115 L27.0006162,45.4372115 L27.0006162,34.8060132 C34.3380498,33.82765 40.0024415,27.5429887 40.0024415,19.9381474 C40.0024415,12.3321436 34.3380498,6.04922626 27.0006162,5.06970039 L27.0006162,2.14972504 C38.6985386,3.16413017 47.8752718,12.9762472 47.8752718,24.9363454 C47.8752718,37.5690319 37.6347211,47.8124891 24.999128,47.8124891 L24.999128,47.8124891 Z M27.0006162,9.24707305 C32.049389,10.1835812 35.8756438,14.6155724 35.8756438,19.9381474 C35.8756438,25.2613038 32.049389,29.6880632 27.0006162,30.6280592 L27.0006162,9.24707305 Z M24.999128,0 C11.1921731,0 0,11.1927544 0,24.999128 C0,38.8078269 11.1921731,50 24.999128,50 C38.8084082,50 50,38.8078269 50,24.999128 C50,11.1927544 38.8084082,0 24.999128,0 L24.999128,0 Z" id="Fill-9" fill="#FFFFFF"></path>
            </g>
        </g>
    </g>
</svg>