<?xml version="1.0" encoding="UTF-8"?>
<svg width="36px" height="36px" viewBox="0 0 36 36" version="1.1" xmlns="http://www.w3.org/2000/svg" xmlns:xlink="http://www.w3.org/1999/xlink">
    <!-- Generator: Sketch 48.2 (47327) - http://www.bohemiancoding.com/sketch -->
    <title>Group 4</title>
    <desc>Created with Sketch.</desc>
    <defs></defs>
    <g id="PTCHR-Home-v1.4" stroke="none" stroke-width="1" fill="none" fill-rule="evenodd" transform="translate(-165.000000, -810.000000)">
        <g id="Group-9" transform="translate(56.000000, 810.000000)" fill="#FFFFFF" stroke="#FFFFFF" stroke-width="0.77">
            <g id="Group-7">
                <g id="Group-4" transform="translate(110.000000, 1.000000)">
                    <g id="Group-3">
                        <path d="M17.0026407,33.2432839 C25.8259256,33.2620435 33.3457353,26.1796446 33.3545724,16.9756068 C33.3632647,7.96075239 26.0865482,0.690035869 17.0193733,0.68693332 C7.78356875,0.68383077 0.664326879,8.16826244 0.669324922,16.9574966 C0.674467836,25.9400989 7.98812635,33.2396763 17.0026407,33.2432839 M17.0355988,0.0342434882 C26.3830264,-0.00313141042 34.0346685,7.68433687 34.0213404,16.9933563 C34.0082296,26.1581432 26.5171043,33.9809692 16.8756615,33.9111257 C7.51599234,33.8433026 -0.0897981782,26.2398917 0.000818520137,16.7979678 C0.0914352185,7.35575523 7.8761412,-0.0291062434 17.0355988,0.0342434882" id="Fill-1"></path>
                    </g>
                    <path d="M22.0284848,7.47668251 C20.9969321,7.47668251 19.9967439,7.46744702 18.9969904,7.48252685 C18.7118846,7.48685599 18.4168552,7.5263233 18.1452224,7.61016429 C16.4985482,8.11833304 15.5064728,9.28582963 15.1112652,10.8974237 C14.9002609,11.7576958 14.9356818,12.6807403 14.887295,13.576872 C14.8569445,14.1376398 14.8315197,14.1861983 14.2543543,14.1865591 C13.5903389,14.186992 12.9262511,14.1942072 12.262453,14.182735 C12.0256616,14.1786945 11.9094752,14.2354062 11.9125175,14.4990508 C11.9230931,15.4128598 11.9206303,16.3268132 11.9140387,17.2406944 C11.9123002,17.4754059 12.0068284,17.5554228 12.238839,17.551743 C12.8905404,17.5413531 13.5425316,17.5482797 14.1944503,17.5484962 C14.8813552,17.5486405 14.8818623,17.5487126 14.8819347,18.2291811 C14.8822245,20.8988167 14.886643,23.5683802 14.8762848,26.2379436 C14.8750534,26.5520226 14.9658149,26.6577258 15.2872833,26.6482738 C16.0230822,26.6267724 16.7598952,26.6417801 17.496346,26.6414915 C18.0148387,26.6412751 18.0158528,26.6409864 18.0158528,26.1362089 C18.0162874,23.4425465 18.0154906,20.7489563 18.0170842,18.055294 C18.0173739,17.608094 18.0761915,17.5500835 18.5160917,17.5492177 C19.5664052,17.5471974 20.616791,17.5392607 21.6668872,17.5541962 C21.9640897,17.5584532 22.0715114,17.4686235 22.0662236,17.1668826 C22.0512295,16.3013434 22.0621672,15.4353713 22.0595595,14.5696157 C22.0591974,14.4528733 22.0392052,14.3362751 22.02537,14.1867034 L21.6034338,14.1867034 C20.5773137,14.1866312 19.5511937,14.1884351 18.5250013,14.1856933 C18.1027753,14.1845388 18.018895,14.099832 18.0173015,13.674927 C18.0153457,13.1338568 18.0050599,12.5921373 18.0265008,12.0517886 C18.055982,11.3092691 18.5661446,10.8367436 19.3077383,10.8356613 C20.0562134,10.8345069 20.8046885,10.8356613 21.5531636,10.8351563 C22.0589076,10.8348677 22.0602115,10.8344347 22.0609358,10.348056 C22.0620948,9.54233111 22.0627467,8.73667837 22.0599217,7.93095348 C22.0594147,7.79032862 22.0410161,7.64970376 22.0284848,7.47668251 M18.6603106,22.7384842 C18.6600933,24.0727248 18.661542,25.4070376 18.6593689,26.7413503 C18.6586446,27.2496634 18.5868611,27.3169815 18.0659781,27.3174144 C16.9798815,27.3183524 15.893785,27.318641 14.807616,27.3172701 C14.3160693,27.3166207 14.2414608,27.2440355 14.2411711,26.7521732 C14.2397224,24.0715704 14.240664,21.3908955 14.2400846,18.7102927 C14.2399397,18.2214608 14.2382737,18.2212443 13.7434674,18.2209557 C13.091766,18.2206671 12.4400646,18.2242747 11.7884357,18.2195127 C11.3712077,18.2164823 11.2758827,18.1224678 11.2748686,17.7095401 C11.2716814,16.4714786 11.2714641,15.2333449 11.2750859,13.9952112 C11.2763173,13.5836544 11.3512155,13.5133059 11.7647493,13.5115742 C12.4525959,13.5088324 13.1413843,13.4899285 13.8279995,13.5192223 C14.1872791,13.5345186 14.2500082,13.3857406 14.245155,13.0780109 C14.2320442,12.2385188 14.2047361,11.3956354 14.4770932,10.5808915 C15.0867096,8.75745824 16.2085168,7.43519493 18.1318219,6.92478946 C18.498345,6.82752814 18.893118,6.81057235 19.2756494,6.80436725 C20.2648998,6.78834944 21.2546573,6.80487232 22.2441974,6.79570897 C22.5624786,6.79275073 22.7085084,6.91100837 22.7065526,7.23872418 C22.6993815,8.50088461 22.6967014,9.76311719 22.7084359,11.0252055 C22.7116955,11.3806999 22.5408928,11.4886398 22.2212354,11.4871967 C21.3041306,11.4829397 20.3869535,11.4848157 19.4697763,11.4872689 C18.8991302,11.4887841 18.7192006,11.645066 18.6724073,12.221563 C18.6462581,12.5440838 18.6726971,12.8705009 18.6585722,13.1945369 C18.6472722,13.4534916 18.7671528,13.5171299 19.007566,13.5149654 C20.0694691,13.5055856 21.1315171,13.5099147 22.1934202,13.5116464 C22.6270185,13.5123679 22.7022789,13.5840873 22.7030757,14.0118062 C22.7057558,15.2498677 22.7059731,16.4880736 22.7028584,17.7261352 C22.7018443,18.1137374 22.6010867,18.2170595 22.2091387,18.2189355 C21.1592598,18.2240583 20.1090912,18.2339431 19.0595746,18.2132354 C18.7291242,18.2066696 18.65256,18.3244221 18.6552401,18.6273897 C18.6673368,19.9977065 18.6605279,21.3680954 18.6603106,22.7384842" id="Fill-4"></path>
                </g>
            </g>
        </g>
    </g>
</svg>