<?xml version="1.0" encoding="UTF-8"?>
<svg width="154px" height="51px" viewBox="0 0 154 51" version="1.1" xmlns="http://www.w3.org/2000/svg" xmlns:xlink="http://www.w3.org/1999/xlink">
    <!-- Generator: Sketch 48.2 (47327) - http://www.bohemiancoding.com/sketch -->
    <title>theater-speeldoos-logo-154-51</title>
    <desc>Created with Sketch.</desc>
    <defs></defs>
    <g id="Page-1" stroke="none" stroke-width="1" fill="none" fill-rule="evenodd">
        <g id="theater-speeldoos-logo-154-51" fill="#FFFFFF">
            <g id="De-Speeldoos-logo" transform="translate(25.000000, 1.000000)">
                <path d="M28.2722818,47.7347638 C28.2722818,48.0012992 28.1005242,48.1784646 27.8456455,48.1784646 C27.6084939,48.1784646 27.4725848,48.0422441 27.4725848,47.8056299 C27.4725848,47.533189 27.6384333,47.3619291 27.9169485,47.3619291 C28.1296758,47.3619291 28.2722818,47.5036614 28.2722818,47.7347638 Z M26.2939182,47.7347638 C26.2939182,48.0012992 26.1221606,48.1784646 25.8676758,48.1784646 C25.6305242,48.1784646 25.4938273,48.0422441 25.4938273,47.8056299 C25.4938273,47.533189 25.6600697,47.3619291 25.9385848,47.3619291 C26.1513121,47.3619291 26.2939182,47.5036614 26.2939182,47.7347638 Z M24.3218576,47.7347638 C24.3218576,48.0012992 24.1497061,48.1784646 23.8956152,48.1784646 C23.6580697,48.1784646 23.5221606,48.0422441 23.5221606,47.8056299 C23.5221606,47.533189 23.6876152,47.3619291 23.9661303,47.3619291 C24.1796455,47.3619291 24.3218576,47.5036614 24.3218576,47.7347638 Z" id="Fill-1"></path>
                <path d="M32.9383758,45.9116142 C32.6661636,45.9116142 32.3817394,46.0887795 32.0914061,46.4616142 C31.8069818,46.8226378 31.6769818,47.2135827 31.6769818,47.4033465 C31.6769818,47.5809055 31.7715273,47.6875984 31.9078303,47.6875984 C32.2273152,47.6875984 32.6661636,47.113189 33.1396788,45.959252 C33.0746788,45.9293307 33.0096788,45.9116142 32.9383758,45.9116142 L32.9383758,45.9116142 Z M30.5333758,47.7761811 C30.7350727,47.7639764 30.9009212,47.7285433 31.0490424,47.6454724 C31.0254061,47.5450787 31.019497,47.4501969 31.019497,47.3494094 C31.019497,46.9234252 31.1853455,46.4616142 31.5048303,46.0887795 C31.8841939,45.6450787 32.3163455,45.4139764 32.7725273,45.4139764 C32.9620121,45.4139764 33.1223455,45.4616142 33.2937091,45.5509843 L33.7439818,44.301378 C33.8980121,43.8753937 33.9149515,43.6742126 34.2470424,43.6742126 C34.5495879,43.6742126 34.6736788,43.7273622 34.6736788,43.8753937 C34.6736788,43.9584646 34.5909515,44.0883858 34.5074364,44.2840551 L33.9866485,45.4852362 C33.4887091,46.6273622 33.3350727,47.3679134 33.3350727,47.4801181 C33.3350727,47.7049213 33.4536485,47.7576772 33.7672242,47.7761811 L33.6549515,48.167126 L33.6017697,48.167126 C33.0270121,48.167126 32.7784364,48.0663386 32.7784364,47.7470472 C32.7784364,47.5982283 32.8316182,47.3974409 32.9265576,47.1187008 C32.5357697,47.8293307 32.1327697,48.1785433 31.6888,48.1785433 C31.4634667,48.1785433 31.2735879,48.0958661 31.1967697,47.9706693 C31.0372242,48.0899606 30.7823455,48.1490157 30.421103,48.167126 L30.5333758,47.7761811 Z" id="Fill-3"></path>
                <path d="M36.147997,45.9050787 C35.9285727,45.9050787 35.614603,46.100748 35.3305727,46.4558661 C35.0583606,46.7991732 34.9275727,47.1779134 34.9275727,47.408622 C34.9275727,47.5983858 34.9929667,47.6873622 35.1292697,47.6873622 C35.5023303,47.6873622 35.9585121,47.131063 36.4560576,46.0239764 C36.3552091,45.946811 36.2543606,45.9050787 36.147997,45.9050787 M34.8980273,48.1783071 C34.6849061,48.1783071 34.5135424,48.119252 34.4182091,47.9948425 C34.2113909,48.1082283 33.9624212,48.154685 33.6547545,48.1668898 L33.7666333,47.7763386 C33.9687242,47.7641339 34.1341788,47.7287008 34.2826939,47.6456299 C34.2641788,47.5566535 34.2586636,47.4680709 34.2586636,47.3794882 C34.2586636,47.0775197 34.3886636,46.6814567 34.6553606,46.2960236 C35.0461485,45.7334252 35.5259667,45.4440551 36.0231182,45.4440551 C36.2665727,45.4440551 36.4375424,45.5094094 36.6037848,45.6747638 L36.6455424,45.5448425 C36.680997,45.4263386 36.7046333,45.3609843 36.8291182,45.3609843 C37.0954212,45.3609843 37.3262697,45.4680709 37.3262697,45.5916929 C37.3262697,45.6515354 37.1781485,45.8755512 36.9827545,46.3255512 C36.7219667,46.9235827 36.5982697,47.3318504 36.5982697,47.5511417 C36.5982697,47.7224016 36.6928152,47.7523228 37.0004818,47.7763386 L36.8882091,48.1668898 L36.8346333,48.1668898 C36.2602697,48.1668898 36.0116939,48.0661024 36.0116939,47.7472047 C36.0116939,47.5983858 36.0648758,47.3975984 36.1594212,47.1188583 C35.7631182,47.8294882 35.3719364,48.1783071 34.8980273,48.1783071" id="Fill-5"></path>
                <path d="M39.3810576,45.9050787 C39.1616333,45.9050787 38.8480576,46.100748 38.5640273,46.4558661 C38.2914212,46.7991732 38.1614212,47.1779134 38.1614212,47.408622 C38.1614212,47.5983858 38.2260273,47.6873622 38.3627242,47.6873622 C38.7357848,47.6873622 39.1919667,47.131063 39.6895121,46.0239764 C39.5882697,45.946811 39.4878152,45.9050787 39.3810576,45.9050787 M38.1318758,48.1783071 C37.9183606,48.1783071 37.746997,48.119252 37.6516636,47.9948425 C37.4448455,48.1082283 37.1954818,48.154685 36.8878152,48.1668898 L37.0004818,47.7763386 C37.2017848,47.7641339 37.3676333,47.7287008 37.5157545,47.6456299 C37.4980273,47.5566535 37.4917242,47.4680709 37.4917242,47.3794882 C37.4917242,47.0775197 37.6225121,46.6814567 37.8888152,46.2960236 C38.279997,45.7334252 38.7594212,45.4440551 39.2569667,45.4440551 C39.5000273,45.4440551 39.670997,45.5094094 39.8372394,45.6747638 L39.878997,45.5448425 C39.9144515,45.4263386 39.9376939,45.3609843 40.0621788,45.3609843 C40.3284818,45.3609843 40.5597242,45.4680709 40.5597242,45.5916929 C40.5597242,45.6515354 40.411603,45.8755512 40.2158152,46.3255512 C39.9562091,46.9235827 39.8313303,47.3318504 39.8313303,47.5511417 C39.8313303,47.7224016 39.9266636,47.7523228 40.2343303,47.7763386 L40.1216636,48.1668898 L40.0684818,48.1668898 C39.4937242,48.1668898 39.2447545,48.0661024 39.2447545,47.7472047 C39.2447545,47.5983858 39.2979364,47.3975984 39.3928758,47.1188583 C38.9961788,47.8294882 38.604997,48.1783071 38.1318758,48.1783071" id="Fill-7"></path>
                <path d="M40.2277909,47.7762992 C40.773003,47.6810236 41.1224273,47.0243307 41.5719121,45.8054331 C41.4781545,45.7101575 41.4423061,45.6034646 41.4423061,45.473937 C41.4423061,45.1948031 41.6136697,44.9881102 41.8445182,44.9881102 C42.0639424,44.9881102 42.1880333,45.1251181 42.1880333,45.3077953 C42.1880333,45.396378 42.1710939,45.473937 42.1289424,45.5554331 C42.6387,45.8822047 42.9345485,45.9168504 42.9345485,46.2310236 C42.9345485,46.6089764 42.4720636,47.208189 42.4720636,47.5633071 C42.4720636,47.7286614 42.5973364,47.7471654 42.9637,47.7762992 L42.8518212,48.1668504 L42.7627909,48.1668504 C42.099397,48.1668504 41.7858212,48.0306299 41.7858212,47.6577953 C41.7858212,47.2133071 42.2230939,46.6392913 42.2230939,46.3377165 C42.2230939,46.2491339 42.1108212,46.1601575 41.8921848,46.0361417 C41.4119727,47.4266929 40.9207303,48.1192126 40.1155182,48.1668504 L40.2277909,47.7762992 Z" id="Fill-9"></path>
                <path d="M46.9134152,45.9050787 C46.6947788,45.9050787 46.3804152,46.100748 46.0963848,46.4558661 C45.8241727,46.7991732 45.6937788,47.1779134 45.6937788,47.408622 C45.6937788,47.5983858 45.7587788,47.6873622 45.8954758,47.6873622 C46.2681424,47.6873622 46.7243242,47.131063 47.2218697,46.0239764 C47.1210212,45.946811 47.0205667,45.9050787 46.9134152,45.9050787 M45.6646273,48.1783071 C45.4515061,48.1783071 45.2797485,48.119252 45.1840212,47.9948425 C44.977203,48.1082283 44.7286273,48.154685 44.4209606,48.1668898 L44.5332333,47.7763386 C44.7345364,47.7641339 44.9003848,47.7287008 45.0481121,47.6456299 C45.0303848,47.5566535 45.0248697,47.4680709 45.0248697,47.3794882 C45.0248697,47.0775197 45.1548697,46.6814567 45.4215667,46.2960236 C45.8119606,45.7334252 46.2862636,45.4440551 46.7834152,45.4440551 C47.031597,45.4440551 47.2092636,45.5149213 47.3873242,45.6869685 C47.4405061,45.4027165 47.4940818,45.385 47.7781121,45.385 C48.0207788,45.385 48.1275364,45.4204331 48.1275364,45.5448425 C48.1275364,45.6161024 48.0979909,45.692874 48.0562333,45.7983858 L47.2092636,47.8531102 C47.3636879,47.7991732 47.5594758,47.8117717 47.8076576,47.7763386 L47.7012939,48.1668898 C47.4582333,48.1897244 47.2506273,48.2078346 47.0682333,48.2739764 C46.706597,49.1495669 46.4162636,49.6168898 45.9849,49.6168898 C45.7355364,49.6168898 45.5988394,49.4865748 45.5988394,49.261378 C45.5988394,48.9180709 45.8596273,48.6523228 46.3867182,48.3912992 C46.576203,48.0011417 46.7534758,47.581063 46.9256273,47.1188583 C46.5293242,47.8294882 46.1381424,48.1783071 45.6646273,48.1783071" id="Fill-11"></path>
                <path d="M50.1941818,45.9050787 C49.9755455,45.9050787 49.6611818,46.100748 49.3771515,46.4558661 C49.1045455,46.7991732 48.9737576,47.1779134 48.9737576,47.408622 C48.9737576,47.5983858 49.0391515,47.6873622 49.1758485,47.6873622 C49.5485152,47.6873622 50.004697,47.131063 50.5022424,46.0239764 C50.4013939,45.946811 50.3009394,45.9050787 50.1941818,45.9050787 M48.945,48.1783071 C48.7318788,48.1783071 48.5597273,48.119252 48.4647879,47.9948425 C48.2575758,48.1082283 48.009,48.154685 47.7013333,48.1668898 L47.814,47.7763386 C48.0149091,47.7641339 48.1803636,47.7287008 48.3288788,47.6456299 C48.3115455,47.5566535 48.3056364,47.4680709 48.3056364,47.3794882 C48.3056364,47.0775197 48.4352424,46.6814567 48.7019394,46.2960236 C49.0923333,45.7334252 49.5729394,45.4440551 50.0700909,45.4440551 C50.3123636,45.4440551 50.4849091,45.5094094 50.6503636,45.6747638 L50.6921212,45.5448425 C50.7275758,45.4263386 50.7512121,45.3609843 50.875303,45.3609843 C51.1423939,45.3609843 51.3728485,45.4680709 51.3728485,45.5916929 C51.3728485,45.6515354 51.2247273,45.8755512 51.0297273,46.3255512 C50.7689394,46.9235827 50.6448485,47.3318504 50.6448485,47.5511417 C50.6448485,47.7224016 50.7386061,47.7523228 51.0474545,47.7763386 L50.9343939,48.1668898 L50.8816061,48.1668898 C50.3068485,48.1668898 50.0582727,48.0661024 50.0582727,47.7472047 C50.0582727,47.5983858 50.1110606,47.3975984 50.2067879,47.1188583 C49.809697,47.8294882 49.4181212,48.1783071 48.945,48.1783071" id="Fill-13"></path>
                <path d="M54.1028091,44.1887795 C54.1028091,43.8938976 54.3159303,43.6742126 54.5578091,43.6742126 C54.7599,43.6742126 54.9139303,43.8222441 54.9139303,44.0352362 C54.9139303,44.3194882 54.7122333,44.5383858 54.4526273,44.5383858 C54.2265061,44.5383858 54.1028091,44.4143701 54.1028091,44.1887795 M52.4975061,48.1667323 L52.6101727,47.7761811 C53.0899909,47.7576772 53.3799303,47.2431102 53.6462333,46.1962598 C53.8183848,45.5261811 53.687597,45.4202756 54.2922939,45.4202756 C54.4459303,45.4202756 54.5235364,45.4679134 54.5235364,45.5509843 C54.5235364,45.7222441 54.3754152,45.9470472 54.2796879,46.2785433 L53.8246879,47.8533465 C53.9901424,47.817126 54.1851424,47.7990157 54.4222939,47.7761811 L54.3100212,48.1667323 C54.0665667,48.1895669 53.8597485,48.2076772 53.6765667,48.2738189 C53.5036273,49.2084646 53.2081727,49.6761811 52.7819303,49.6761811 C52.5629,49.6761811 52.4151727,49.5155512 52.4151727,49.2797244 C52.4151727,48.9659449 52.6393242,48.6757874 53.0773848,48.4214567 L53.2912939,47.7820866 C53.0604455,48.0305118 52.8169909,48.1545276 52.4975061,48.1667323" id="Fill-15"></path>
                <path d="M56.4472212,46.1542126 C56.4472212,45.9884646 56.3648879,45.8998819 56.2108576,45.8998819 C55.902797,45.8998819 55.6006455,46.3258661 55.6006455,46.8349213 C55.6006455,47.012874 55.6364939,47.1483071 55.7373424,47.266811 C56.1994333,46.9652362 56.4472212,46.4266535 56.4472212,46.1542126 M54.3097061,48.166811 L54.4219788,47.7762598 C54.6709485,47.7577559 54.8954939,47.7109055 55.1212212,47.6105118 C54.966797,47.408937 54.901403,47.1605118 54.901403,46.8467323 C54.901403,46.0888583 55.5057061,45.4140551 56.2344939,45.4140551 C56.6315848,45.4140551 56.8860697,45.6624803 56.8860697,46.0888583 C56.8860697,46.4798031 56.5902212,47.0951575 55.967797,47.5691732 C56.1399485,47.7223228 56.3235242,47.7762598 56.5839182,47.7762598 L56.6248879,47.7762598 L56.5126152,48.166811 L56.4365848,48.166811 C56.0036455,48.166811 55.6778576,48.0719291 55.4407061,47.8762598 C55.0617364,48.0538189 54.6886758,48.1487008 54.3097061,48.166811" id="Fill-17"></path>
                <path d="M58.1891424,47.7762992 C58.4259,47.7640945 58.6268091,47.7046457 58.8348091,47.5865354 C58.8289,47.5511024 58.8289,47.5156693 58.8289,47.4802362 C58.8289,47.1483465 59.0061727,46.6865354 59.2189,46.0597638 C59.3918394,45.5554331 59.4146879,45.3790551 59.5927485,45.3790551 C59.8354152,45.3790551 60.1671121,45.4908661 60.1671121,45.6093701 C60.1671121,45.6810236 60.0071727,45.9408661 59.7822333,46.4861417 C59.5750212,46.9944094 59.4564455,47.3262992 59.4564455,47.485748 C59.4564455,47.604252 59.5155364,47.6696063 59.628203,47.6696063 C59.8834758,47.6696063 60.2498394,47.2259055 60.5634152,46.4912598 C60.9014152,45.7038583 60.8005667,45.396378 61.1200515,45.396378 C61.3690212,45.396378 61.6002636,45.4908661 61.6002636,45.6093701 C61.6002636,45.6747244 61.4470212,45.9530709 61.2331121,46.4912598 C61.0499303,46.9648819 60.9549909,47.3026772 60.9549909,47.5093701 C60.9549909,47.7168504 61.0554455,47.7640945 61.3339606,47.7762992 L61.2209,48.1668504 L61.1685061,48.1668504 C60.6465364,48.1668504 60.4338091,48.0719685 60.4338091,47.7286614 C60.4338091,47.5810236 60.486597,47.3735433 60.5701121,47.1070079 C60.1076273,47.793622 59.7999606,48.1668504 59.355597,48.1668504 C59.1074152,48.1668504 58.9470818,48.0782677 58.8761727,47.9125197 C58.6331121,48.0782677 58.3841424,48.1432283 58.0764758,48.1668504 L58.1891424,47.7762992 Z" id="Fill-19"></path>
                <path d="M62.8256515,44.1887795 C62.8256515,43.8938976 63.0391667,43.6742126 63.2814394,43.6742126 C63.4831364,43.6742126 63.6375606,43.8222441 63.6375606,44.0352362 C63.6375606,44.3194882 63.4362576,44.5383858 63.1754697,44.5383858 C62.9501364,44.5383858 62.8256515,44.4143701 62.8256515,44.1887795 L62.8256515,44.1887795 Z M61.334197,47.7761811 C61.8132273,47.7576772 62.1039545,47.2431102 62.3702576,46.1962598 C62.5416212,45.5261811 62.4112273,45.4202756 63.0155303,45.4202756 C63.1691667,45.4202756 63.2467727,45.4679134 63.2467727,45.5509843 C63.2467727,45.6927165 63.1222879,45.917126 63.0033182,46.2785433 L62.725197,47.1187008 C62.660197,47.3135827 62.6129242,47.4501969 62.6129242,47.5450787 C62.6129242,47.7226378 62.725197,47.7576772 63.0281364,47.7761811 L62.9158636,48.1667323 L62.8146212,48.1667323 C62.3281061,48.1667323 62.0795303,48.0478346 62.0322576,47.7576772 C61.8014091,48.0238189 61.5469242,48.1490157 61.2211364,48.1667323 L61.334197,47.7761811 Z" id="Fill-21"></path>
                <path d="M63.0272303,47.7762992 C63.542897,47.7223622 63.7028364,47.4085827 63.8509576,46.8766929 L64.0928364,46.0180315 L63.8143212,46.0180315 C63.7382909,46.0180315 63.7028364,46.0062205 63.7028364,45.9471654 C63.7028364,45.9349606 63.7083515,45.9168504 63.7138667,45.8999213 L63.7615333,45.7577953 C63.7906848,45.6688189 63.8560788,45.6625197 63.9868667,45.6625197 L64.2003818,45.6625197 L64.4836242,44.727874 C64.5966848,44.3550394 64.5612303,44.1416535 64.8988364,44.1416535 C65.1592303,44.1416535 65.3010485,44.2129134 65.3010485,44.3251181 C65.3010485,44.408189 65.2419576,44.52 65.1832606,44.685748 L64.8511697,45.6625197 L65.336897,45.6625197 C65.4141091,45.6625197 65.4495636,45.6869291 65.4495636,45.7286614 C65.4495636,45.7392913 65.4495636,45.7577953 65.4432606,45.781811 L65.3955939,45.9168504 C65.3664424,46.0062205 65.2955333,46.0180315 65.1714424,46.0180315 L64.7448061,46.0180315 L64.4603818,46.9534646 C64.3957758,47.1664567 64.3654424,47.3137008 64.3654424,47.4085827 C64.3654424,47.627874 64.5730485,47.7522835 64.9874727,47.7762992 L64.8748061,48.1668504 L64.803503,48.1668504 C64.2831091,48.1668504 63.9332909,48.0361417 63.7851697,47.8117323 C63.5362,48.023937 63.2289273,48.1487402 62.9149576,48.1668504 L63.0272303,47.7762992 Z" id="Fill-23"></path>
                <path d="M68.5758273,46.1542126 C68.5758273,45.9884646 68.4931,45.8998819 68.3390697,45.8998819 C68.0310091,45.8998819 67.7292515,46.3258661 67.7292515,46.8349213 C67.7292515,47.012874 67.7651,47.1483071 67.8655545,47.266811 C68.3276455,46.9652362 68.5758273,46.4266535 68.5758273,46.1542126 M66.4379182,48.166811 L66.5501909,47.7762598 C66.7995545,47.7577559 67.0241,47.7109055 67.2498273,47.6105118 C67.0950091,47.408937 67.0300091,47.1605118 67.0300091,46.8467323 C67.0300091,46.0888583 67.6339182,45.4140551 68.3627061,45.4140551 C68.759797,45.4140551 69.0150697,45.6624803 69.0150697,46.0888583 C69.0150697,46.4798031 68.7180394,47.0951575 68.096403,47.5691732 C68.2681606,47.7223228 68.4521303,47.7762598 68.7121303,47.7762598 L68.7538879,47.7762598 L68.6412212,48.166811 L68.564797,48.166811 C68.1318576,48.166811 67.8060697,48.0719291 67.5693121,47.8762598 C67.1903424,48.0538189 66.8168879,48.1487008 66.4379182,48.166811" id="Fill-25"></path>
                <path d="M68.6412606,48.1669291 L68.7539273,47.776378 C69.1805636,47.757874 69.4350485,47.3732283 69.6536848,46.6090551 C69.9318061,45.6330709 69.8376545,45.3791339 70.1925939,45.3791339 C70.4892303,45.3791339 70.6133212,45.4082677 70.6133212,45.4972441 C70.6133212,45.6161417 70.3883818,46.0299213 70.1157758,46.8527559 C70.6905333,45.9232283 71.1762606,45.4496063 71.6734121,45.4496063 C71.9215939,45.4496063 72.0586848,45.5854331 72.0586848,45.8169291 C72.0586848,46.0362205 71.8932303,46.4204724 71.6497758,47.0244094 C71.537503,47.307874 71.4957455,47.5035433 71.4957455,47.5688976 C71.4957455,47.7224409 71.6084121,47.757874 71.8987455,47.776378 L71.7860788,48.1669291 L71.7202909,48.1669291 C71.0935333,48.1669291 70.8024121,48.0070866 70.8024121,47.6397638 C70.8024121,47.4744094 70.9150788,47.1311024 71.1404121,46.6043307 C71.2467758,46.3614173 71.3121697,46.219685 71.3121697,46.1543307 C71.3121697,46.0889764 71.2826242,46.0594488 71.2113212,46.0594488 C71.0691091,46.0594488 70.5010485,46.5212598 70.0566848,47.5452756 C69.8140182,48.1129921 69.9144727,48.1783465 69.4642,48.1783465 C69.3164727,48.1783465 69.2565939,48.1547244 69.2565939,48.0779528 C69.2565939,48.0362205 69.2806242,47.9708661 69.3223818,47.8822835 C69.1510182,48.0602362 68.9252909,48.1488189 68.6412606,48.1669291" id="Fill-27"></path>
                <path d="M74.0355909,47.6040551 C74.0304697,47.5209843 74.0241667,47.4324016 74.0241667,47.3434252 C74.0241667,47.1190157 74.1774091,46.2552362 74.645803,44.9642913 C74.9424394,44.1481496 75.1078939,43.7272835 75.4927727,43.7272835 C75.6940758,43.7272835 75.8485,43.875315 75.8485,44.1237402 C75.8485,44.5268898 75.6412879,44.929252 75.2501061,45.3135039 C74.8475,46.4560236 74.6816515,47.1898819 74.6816515,47.4564173 C74.6816515,47.6040551 74.7525606,47.6934252 74.8829545,47.6934252 C75.2024394,47.6934252 75.6412879,47.1666535 75.6759545,46.3906693 C75.4037424,46.3674409 75.2741364,46.2367323 75.2741364,45.9883071 C75.2741364,45.7284646 75.4340758,45.545 75.6877727,45.545 C75.9907121,45.545 76.2152576,45.8347638 76.2152576,46.2906693 C76.2152576,47.3379134 75.4986818,48.1784646 74.7698939,48.1784646 C74.5335303,48.1784646 74.3259242,48.0957874 74.1904091,47.9595669 C73.9229242,48.0957874 73.6566212,48.1544488 73.3489545,48.1670472 L73.4616212,47.7761024 C73.7157121,47.7579921 73.905197,47.6934252 74.0355909,47.6040551" id="Fill-29"></path>
                <path d="M78.1338606,46.1542126 C78.1338606,45.9884646 78.0511333,45.8998819 77.897103,45.8998819 C77.5886485,45.8998819 77.2868909,46.3258661 77.2868909,46.8349213 C77.2868909,47.012874 77.3223455,47.1483071 77.4228,47.266811 C77.8852848,46.9652362 78.1338606,46.4266535 78.1338606,46.1542126 M75.9955576,48.166811 L76.1086182,47.7762598 C76.3568,47.7577559 76.5825273,47.7109055 76.8074667,47.6105118 C76.6530424,47.408937 76.5876485,47.1605118 76.5876485,46.8467323 C76.5876485,46.0888583 77.1923455,45.4140551 77.9203455,45.4140551 C78.3174364,45.4140551 78.5727091,45.6624803 78.5727091,46.0888583 C78.5727091,46.4798031 78.2760727,47.0951575 77.6544364,47.5691732 C77.8258,47.7223228 78.0101636,47.7762598 78.2701636,47.7762598 L78.3115273,47.7762598 L78.1988606,48.166811 L78.1216485,48.166811 C77.6898909,48.166811 77.3637091,48.0719291 77.1269515,47.8762598 C76.7483758,48.0538189 76.3745273,48.1487008 75.9955576,48.166811" id="Fill-31"></path>
                <path d="M78.1989,48.1669291 L78.3115667,47.776378 C78.738203,47.757874 78.9926879,47.3732283 79.2113242,46.6090551 C79.4894455,45.6330709 79.3956879,45.3791339 79.7502333,45.3791339 C80.0464758,45.3791339 80.1717485,45.4082677 80.1717485,45.4972441 C80.1717485,45.6161417 79.9460212,46.0299213 79.6738091,46.8527559 C80.2485667,45.9232283 80.7339,45.4496063 81.2314455,45.4496063 C81.4796273,45.4496063 81.6167182,45.5854331 81.6167182,45.8169291 C81.6167182,46.0362205 81.4508697,46.4204724 81.2074152,47.0244094 C81.0951424,47.307874 81.0533848,47.5035433 81.0533848,47.5688976 C81.0533848,47.7224409 81.1660515,47.757874 81.4567788,47.776378 L81.3437182,48.1669291 L81.2783242,48.1669291 C80.6511727,48.1669291 80.3600515,48.0070866 80.3600515,47.6397638 C80.3600515,47.4744094 80.4727182,47.1311024 80.6984455,46.6043307 C80.8048091,46.3614173 80.870203,46.219685 80.870203,46.1543307 C80.870203,46.0889764 80.8402636,46.0594488 80.7693545,46.0594488 C80.6271424,46.0594488 80.0586879,46.5212598 79.6147182,47.5452756 C79.3716576,48.1129921 79.4721121,48.1783465 79.0226273,48.1783465 C78.8741121,48.1783465 78.8142333,48.1547244 78.8142333,48.0779528 C78.8142333,48.0362205 78.8382636,47.9708661 78.8800212,47.8822835 C78.7086576,48.0602362 78.4829303,48.1488189 78.1989,48.1669291" id="Fill-33"></path>
                <path d="M84.5119364,44.1887795 C84.5119364,43.8938976 84.7246636,43.6742126 84.9677242,43.6742126 C85.1690273,43.6742126 85.3230576,43.8222441 85.3230576,44.0352362 C85.3230576,44.3194882 85.1221485,44.5383858 84.8609667,44.5383858 C84.6364212,44.5383858 84.5119364,44.4143701 84.5119364,44.1887795 M82.9070273,48.1667323 L83.0193,47.7761811 C83.4991182,47.7576772 83.7894515,47.2431102 84.0557545,46.1962598 C84.2271182,45.5261811 84.0975121,45.4202756 84.7010273,45.4202756 C84.8550576,45.4202756 84.9318758,45.4679134 84.9318758,45.5509843 C84.9318758,45.7222441 84.7833606,45.9470472 84.689603,46.2785433 L84.2334212,47.8533465 C84.3988758,47.817126 84.5950576,47.7990157 84.8318152,47.7761811 L84.7187545,48.1667323 C84.4760879,48.1895669 84.2684818,48.2076772 84.0849061,48.2738189 C83.9135424,49.2084646 83.6176939,49.6761811 83.1906636,49.6761811 C82.9720273,49.6761811 82.8239061,49.5155512 82.8239061,49.2797244 C82.8239061,48.9659449 83.0488455,48.6757874 83.4869061,48.4214567 L83.7004212,47.7820866 C83.4695727,48.0305118 83.2265121,48.1545276 82.9070273,48.1667323" id="Fill-35"></path>
                <path d="M86.856703,46.1542126 C86.856703,45.9884646 86.7739758,45.8998819 86.6203394,45.8998819 C86.3122788,45.8998819 86.0101273,46.3258661 86.0101273,46.8349213 C86.0101273,47.012874 86.0451879,47.1483071 86.1456424,47.266811 C86.6081273,46.9652362 86.856703,46.4266535 86.856703,46.1542126 M84.7187939,48.166811 L84.8314606,47.7762598 C85.0792485,47.7577559 85.3053697,47.7109055 85.530703,47.6105118 C85.3758848,47.408937 85.3108848,47.1605118 85.3108848,46.8467323 C85.3108848,46.0888583 85.9155818,45.4140551 86.6431879,45.4140551 C87.0402788,45.4140551 87.2951576,45.6624803 87.2951576,46.0888583 C87.2951576,46.4798031 86.9985212,47.0951575 86.3768848,47.5691732 C86.5494303,47.7223228 86.7334,47.7762598 86.9930061,47.7762598 L87.0343697,47.7762598 L86.921703,48.166811 L86.8444909,48.166811 C86.4127333,48.166811 86.0869455,48.0719291 85.8497939,47.8762598 C85.4708242,48.0538189 85.0973697,48.1487008 84.7187939,48.166811" id="Fill-37"></path>
                <path d="M88.5978758,47.7762992 C89.1131485,47.7223622 89.2726939,47.4085827 89.4208152,46.8766929 L89.6634818,46.0180315 L89.3853606,46.0180315 C89.3089364,46.0180315 89.2726939,46.0062205 89.2726939,45.9471654 C89.2726939,45.9349606 89.278603,45.9168504 89.2845121,45.8999213 L89.3317848,45.7577953 C89.3613303,45.6688189 89.4267242,45.6625197 89.5571182,45.6625197 L89.7702394,45.6625197 L90.0542697,44.727874 C90.1669364,44.3550394 90.1314818,44.1416535 90.4686939,44.1416535 C90.7290879,44.1416535 90.8716939,44.2129134 90.8716939,44.3251181 C90.8716939,44.408189 90.8122091,44.52 90.7535121,44.685748 L90.4222091,45.6625197 L90.9071485,45.6625197 C90.9847545,45.6625197 91.0198152,45.6869291 91.0198152,45.7286614 C91.0198152,45.7392913 91.0198152,45.7577953 91.0143,45.781811 L90.9666333,45.9168504 C90.9370879,46.0062205 90.8657848,46.0180315 90.7413,46.0180315 L90.3150576,46.0180315 L90.0310273,46.9534646 C89.9660273,47.1664567 89.9360879,47.3137008 89.9360879,47.4085827 C89.9360879,47.627874 90.1436939,47.7522835 90.5585121,47.7762992 L90.4454515,48.1668504 L90.3745424,48.1668504 C89.8533606,48.1668504 89.5043303,48.0361417 89.3558152,47.8117323 C89.1072394,48.023937 88.7991788,48.1487402 88.4852091,48.1668504 L88.5978758,47.7762992 Z" id="Fill-39"></path>
                <path d="M90.4456485,48.1669291 L90.5583152,47.776378 C90.9900727,47.7523622 91.209103,47.3976378 91.4285273,46.7102362 L92.0324364,44.8283465 C92.2928303,44.0232283 92.1982848,43.8043307 92.6485576,43.8043307 C92.9203758,43.8043307 93.0456485,43.8279528 93.0456485,43.9409449 C93.0456485,44.0468504 92.9625273,44.2129921 92.8616788,44.4677165 L91.9201636,46.8527559 C92.4945273,45.9232283 92.9802545,45.4496063 93.4770121,45.4496063 C93.7263758,45.4496063 93.8630727,45.5917323 93.8630727,45.8169291 C93.8630727,46.0299213 93.6964364,46.4204724 93.4541636,47.0299213 C93.341497,47.307874 93.3001333,47.5035433 93.3001333,47.5688976 C93.3001333,47.7224409 93.4124061,47.757874 93.7031333,47.776378 L93.5900727,48.1669291 L93.5250727,48.1669291 C92.8975273,48.1669291 92.6068,48.0070866 92.6068,47.6397638 C92.6068,47.4744094 92.7198606,47.1311024 92.9448,46.6043307 C93.0515576,46.3614173 93.1161636,46.219685 93.1161636,46.1543307 C93.1161636,46.0889764 93.0866182,46.0594488 93.0157091,46.0594488 C92.8738909,46.0594488 92.3054364,46.5212598 91.8610727,47.5452756 C91.6180121,48.1129921 91.7180727,48.1783465 91.2689818,48.1783465 C91.1204667,48.1783465 91.0609818,48.1547244 91.0609818,48.0779528 C91.0609818,48.0362205 91.0854061,47.9708661 91.1267697,47.8822835 C90.9546182,48.0602362 90.7292848,48.1488189 90.4456485,48.1669291" id="Fill-41"></path>
                <path d="M93.7017939,47.7762992 C93.9389455,47.7640945 94.1402485,47.7046457 94.3482485,47.5865354 C94.3415515,47.5511024 94.3415515,47.5156693 94.3415515,47.4802362 C94.3415515,47.1483465 94.5196121,46.6865354 94.7327333,46.0597638 C94.9044909,45.5554331 94.9277333,45.3790551 95.1054,45.3790551 C95.3484606,45.3790551 95.6801576,45.4908661 95.6801576,45.6093701 C95.6801576,45.6810236 95.5210061,45.9408661 95.2956727,46.4861417 C95.0884606,46.9944094 94.9694909,47.3262992 94.9694909,47.485748 C94.9694909,47.604252 95.0285818,47.6696063 95.1412485,47.6696063 C95.3961273,47.6696063 95.7624909,47.2259055 96.0772485,46.4912598 C96.4144606,45.7038583 96.3140061,45.396378 96.6334909,45.396378 C96.8828545,45.396378 97.113703,45.4908661 97.113703,45.6093701 C97.113703,45.6747244 96.9596727,45.9530709 96.7457636,46.4912598 C96.5633697,46.9648819 96.4676424,47.3026772 96.4676424,47.5093701 C96.4676424,47.7168504 96.5688848,47.7640945 96.8470061,47.7762992 L96.7347333,48.1668504 L96.6811576,48.1668504 C96.1599758,48.1668504 95.9468545,48.0719685 95.9468545,47.7286614 C95.9468545,47.5810236 96.0000364,47.3735433 96.0831576,47.1070079 C95.6206727,47.793622 95.3130061,48.1668504 94.8686424,48.1668504 C94.6204606,48.1668504 94.4605212,48.0782677 94.3892182,47.9125197 C94.1465515,48.0782677 93.8975818,48.1432283 93.5895212,48.1668504 L93.7017939,47.7762992 Z" id="Fill-43"></path>
                <path d="M98.3394455,44.1887795 C98.3394455,43.8938976 98.5525667,43.6742126 98.7956273,43.6742126 C98.9969303,43.6742126 99.1509606,43.8222441 99.1509606,44.0352362 C99.1509606,44.3194882 98.9492636,44.5383858 98.6884758,44.5383858 C98.4631424,44.5383858 98.3394455,44.4143701 98.3394455,44.1887795 L98.3394455,44.1887795 Z M96.8468091,47.7761811 C97.3266273,47.7576772 97.6165667,47.2431102 97.8832636,46.1962598 C98.0550212,45.5261811 97.9246273,45.4202756 98.5281424,45.4202756 C98.6829606,45.4202756 98.7597788,45.4679134 98.7597788,45.5509843 C98.7597788,45.6927165 98.6352939,45.917126 98.5171121,46.2785433 L98.2389909,47.1187008 C98.173597,47.3135827 98.1267182,47.4501969 98.1267182,47.5450787 C98.1267182,47.7226378 98.2389909,47.7576772 98.5407485,47.7761811 L98.4284758,48.1667323 L98.3272333,48.1667323 C97.8415061,48.1667323 97.5929303,48.0478346 97.5452636,47.7576772 C97.3148091,48.0238189 97.0599303,48.1490157 96.7337485,48.1667323 L96.8468091,47.7761811 Z" id="Fill-45"></path>
                <path d="M99.8963333,47.7762992 C100.251667,47.7046457 100.477394,47.3975591 100.477394,46.9475591 C100.477394,46.7518898 100.435242,46.5566142 100.37103,46.343622 C100.228818,46.6574016 99.9558182,47.0479528 99.5764545,47.4388976 C99.7245758,47.4916535 99.8317273,47.604252 99.8963333,47.7762992 L99.8963333,47.7762992 Z M98.5407879,47.7762992 C98.8720909,47.7349606 99.4882121,47.135748 100.19297,45.9471654 C100.116152,45.8640945 100.086212,45.7751181 100.086212,45.6625197 C100.086212,45.3609449 100.352515,45.1125197 100.678697,45.1125197 C100.873303,45.1125197 100.992273,45.2247244 100.992273,45.396378 C100.992273,45.562126 100.891818,45.7286614 100.702333,45.8877165 C101.015909,46.2369291 101.182152,46.5385039 101.182152,46.8999213 C101.182152,47.2018898 101.069879,47.5093701 100.885909,47.7046457 C100.980455,47.7577953 101.09903,47.7762992 101.247152,47.7762992 L101.306242,47.7762992 L101.19397,48.1668504 L101.111242,48.1668504 C100.891818,48.1668504 100.702333,48.1251181 100.506939,48.0361417 C100.269788,48.1306299 100.051152,48.1782677 99.8608788,48.1782677 C99.5595152,48.1782677 99.2750909,48.0719685 99.0978182,47.8999213 C98.9134545,48.0424409 98.6885152,48.1306299 98.4281212,48.1668504 L98.5407879,47.7762992 Z" id="Fill-47"></path>
                <path d="M102.509255,46.9120079 C102.342618,46.9120079 102.218133,46.8285433 102.218133,46.7163386 C102.218133,46.6694882 102.229952,46.6045276 102.253982,46.5096457 L102.887436,44.071063 C102.941012,43.8576772 102.988285,43.751378 103.159648,43.751378 C103.367648,43.751378 103.722588,43.8990157 103.722588,44.0761811 C103.722588,44.1529528 103.699345,44.2427165 103.657588,44.3431102 L102.733012,46.6812992 C102.662891,46.8643701 102.61483,46.9120079 102.509255,46.9120079 M102.509255,47.7348425 C102.509255,48.001378 102.342618,48.1785433 102.088133,48.1785433 C101.850982,48.1785433 101.70877,48.0423228 101.70877,47.8057087 C101.70877,47.5332677 101.875012,47.3620079 102.153133,47.3620079 C102.366648,47.3620079 102.509255,47.4970472 102.509255,47.7348425" id="Fill-49"></path>
                <polygon id="Fill-51" points="2.72929091 3.45035433 7.87878788e-05 3.45035433 7.87878788e-05 0.393661417 9.36401818 0.393661417 9.36401818 3.45035433 6.63480606 3.45035433 6.63480606 17.4172835 2.72929091 17.4172835"></polygon>
                <path d="M10.7985091,0.393779528 L14.2805394,0.393779528 L14.2805394,6.74220472 L14.3274182,6.74220472 C14.8214182,5.68433071 15.6451455,5.23748031 16.7741758,5.23748031 C18.3034485,5.23748031 19.5033879,5.91937008 19.5033879,7.98826772 L19.5033879,17.4170079 L16.0213576,17.4170079 L16.0213576,8.83472441 C16.0213576,8.31779528 15.7861758,8.01228346 15.1275091,8.01228346 C14.5157212,8.01228346 14.2805394,8.31779528 14.2805394,8.83472441 L14.2805394,17.4170079 L10.7985091,17.4170079 L10.7985091,0.393779528 Z" id="Fill-54"></path>
                <path d="M25.1020939,10.0575197 L27.0312152,10.0575197 L27.0312152,8.29413386 C27.0312152,7.80043307 26.8665485,7.58862205 26.0664576,7.58862205 C25.2667606,7.58862205 25.1020939,7.80043307 25.1020939,8.29413386 L25.1020939,10.0575197 Z M21.4790333,9.04649606 C21.4790333,5.82523622 23.0788212,5.23744094 26.0664576,5.23744094 C29.8782152,5.23744094 30.6542758,6.67169291 30.6542758,8.55279528 L30.6542758,12.2677559 L25.1020939,12.2677559 L25.1020939,14.2898031 C25.1020939,14.9244488 25.2431242,15.1130315 26.1369727,15.1130315 C26.8192758,15.1130315 27.1253667,14.9716929 27.1253667,14.2661811 L27.1253667,13.7020079 L30.6542758,13.7020079 L30.6542758,14.3838976 C30.6542758,16.9000394 29.5957606,17.6051575 26.0664576,17.6051575 C23.0788212,17.6051575 21.4790333,17.0173622 21.4790333,13.7961024 L21.4790333,9.04649606 Z" id="Fill-56"></path>
                <path d="M35.6884667,13.9607087 C35.712103,14.7366929 35.9004061,14.9717323 36.5354364,14.9717323 C37.2646182,14.9717323 37.3824061,14.572126 37.3824061,14.1016535 L37.3824061,13.137874 C37.3824061,12.5264567 37.2177394,12.2677953 36.5354364,12.2677953 C35.9709212,12.2677953 35.6884667,12.4792126 35.6884667,13.2788189 L35.6884667,13.9607087 Z M32.5830424,7.35362205 C32.5830424,5.58984252 33.7593455,5.23748031 36.4180424,5.23748031 C39.5234667,5.23748031 40.8644364,5.68433071 40.8644364,8.62330709 L40.8644364,17.4170079 L37.5238303,17.4170079 L37.5238303,16.4059843 L37.4765576,16.4059843 C36.7237394,17.4170079 36.2766182,17.6051969 34.9592848,17.6051969 C32.5594061,17.6051969 32.0654061,16.1945669 32.0654061,13.7252756 C32.0654061,10.7862992 33.1711939,10.0575591 35.0766788,10.0575591 C35.9236485,10.0575591 36.7237394,10.2929921 37.3824061,10.8335433 L37.3824061,8.17685039 C37.3824061,7.77685039 37.0767091,7.58866142 36.4885576,7.58866142 C35.9709212,7.58866142 35.6415879,7.75322835 35.6415879,8.20007874 L35.6415879,8.85834646 L32.5830424,8.85834646 L32.5830424,7.35362205 Z" id="Fill-58"></path>
                <path d="M42.5104333,5.4253937 L43.4984333,5.4253937 L43.4984333,2.29862205 L46.9808576,2.29862205 L46.9808576,5.4253937 L49.0037364,5.4253937 L49.0037364,8.05885827 L46.9808576,8.05885827 L46.9808576,14.0549213 C46.9808576,14.6663386 47.1218879,14.9718504 47.8743121,14.9718504 C48.180797,14.9718504 48.4864939,14.9246063 48.7685545,14.9009843 L48.7685545,17.5112205 C48.1098879,17.5348425 47.2865545,17.605315 46.5569788,17.605315 C44.4395545,17.605315 43.4984333,16.8057087 43.4984333,14.9718504 L43.4984333,8.05885827 L42.5104333,8.05885827 L42.5104333,5.4253937 Z" id="Fill-60"></path>
                <path d="M53.8735364,10.0575197 L55.8022636,10.0575197 L55.8022636,8.29413386 C55.8022636,7.80043307 55.6379909,7.58862205 54.8379,7.58862205 C54.038203,7.58862205 53.8735364,7.80043307 53.8735364,8.29413386 L53.8735364,10.0575197 Z M50.2504758,9.04649606 C50.2504758,5.82523622 51.8498697,5.23744094 54.8379,5.23744094 C58.6492636,5.23744094 59.4257182,6.67169291 59.4257182,8.55279528 L59.4257182,12.2677559 L53.8735364,12.2677559 L53.8735364,14.2898031 C53.8735364,14.9244488 54.0145667,15.1130315 54.9084152,15.1130315 C55.5907182,15.1130315 55.897203,14.9716929 55.897203,14.2661811 L55.897203,13.7020079 L59.4257182,13.7020079 L59.4257182,14.3838976 C59.4257182,16.9000394 58.3668091,17.6051575 54.8379,17.6051575 C51.8498697,17.6051575 50.2504758,17.0173622 50.2504758,13.7961024 L50.2504758,9.04649606 Z" id="Fill-62"></path>
                <path d="M61.4014424,5.4253937 L64.7420485,5.4253937 L64.7420485,6.6246063 L64.7893212,6.6246063 C65.2596848,5.51948819 65.8242,5.23720472 67.1651697,5.23720472 C68.4123818,5.23720472 69.1888364,5.54311024 69.2120788,7.0246063 L69.2120788,10.2690945 L66.2949576,10.2690945 L66.2949576,8.48248031 C66.2949576,8.10610236 65.9656242,8.01200787 65.5890182,8.01200787 C65.1891697,8.01200787 64.8830788,8.15295276 64.8830788,8.64704724 L64.8830788,17.417126 L61.4014424,17.417126 L61.4014424,5.4253937 Z" id="Fill-64"></path>
                <path d="M48.4214545,24.8140157 C49.5402424,24.8140157 49.6970303,24.4171654 49.6970303,22.4218898 C49.6970303,21.1159843 49.3830606,20.6561417 48.4214545,20.6561417 C47.3767273,20.6561417 47.1466667,20.8966929 47.1466667,22.7352756 C47.1466667,24.5738583 47.3767273,24.8140157 48.4214545,24.8140157 L48.4214545,24.8140157 Z M49.6970303,24.7305512 L49.6761515,24.7305512 C49.4252121,25.263622 49.0592424,25.4825197 48.3068182,25.4825197 C46.8224545,25.4825197 46.4147273,24.8246457 46.4147273,22.7352756 C46.4147273,20.6459055 46.8224545,19.9876378 48.2020303,19.9876378 C48.808303,19.9876378 49.3101818,20.1132283 49.6761515,20.7396063 L49.6970303,20.7396063 L49.6970303,17.8356693 L50.3659394,17.8356693 L50.3659394,25.3990551 L49.6970303,25.3990551 L49.6970303,24.7305512 Z" id="Fill-66"></path>
                <path d="M54.6006303,22.2234252 C54.6006303,21.0950787 54.5797515,20.5935039 53.3880848,20.5935039 C52.1964182,20.5935039 52.1755394,21.0950787 52.1755394,22.2234252 L54.6006303,22.2234252 Z M52.1755394,22.8919291 L52.1755394,23.382874 C52.1755394,24.5427165 52.3744788,24.8765748 53.2943273,24.8765748 C54.3705697,24.8765748 54.6006303,24.8561024 54.6006303,23.8112205 L55.2699333,23.8112205 L55.2699333,24.0096457 C55.2699333,25.0753937 55.0083576,25.4824803 53.4093576,25.4824803 C51.6531758,25.4824803 51.4436,24.8978346 51.4436,22.7352362 C51.4436,20.5309055 51.7993273,19.9875984 53.4093576,19.9875984 C55.0083576,19.9875984 55.2699333,20.6356299 55.2699333,22.0875984 L55.2699333,22.8919291 L52.1755394,22.8919291 Z" id="Fill-68"></path>
                <path d="M16.3048364,35.0775197 C16.3048364,36.2531102 16.3048364,36.7235827 17.457503,36.7235827 C18.3281091,36.7235827 18.6105636,36.4412992 18.6105636,35.7121654 L18.6105636,33.8783071 C18.6105636,32.7027165 18.3517455,32.6322441 16.3048364,32.1381496 C13.2699273,31.4098031 12.6817758,30.6806693 12.6817758,27.6475984 L12.6817758,26.6129528 C12.6817758,22.638937 13.9049576,22.2397244 17.6221697,22.2397244 C21.0100485,22.2397244 22.1394727,23.1798819 22.1394727,25.5550787 L22.1394727,27.6003543 L18.6574424,27.6003543 L18.6574424,26.7775197 C18.6574424,25.2727953 18.5400485,25.1550787 17.5520485,25.1550787 C16.5167758,25.1550787 16.4458667,25.5783071 16.4458667,26.3775197 L16.4458667,27.5066535 C16.4458667,28.5881496 16.7283212,28.7759449 17.8809879,29.0582283 C22.0453212,30.1397244 22.5160788,30.4452362 22.5160788,34.8188583 C22.5160788,38.9098031 21.0100485,39.638937 17.6926848,39.638937 C13.4578364,39.638937 12.6817758,38.6515354 12.6817758,35.2657087 L12.6817758,33.8550787 L16.3048364,33.8550787 L16.3048364,35.0775197 Z" id="Fill-70"></path>
                <path d="M28.0677879,36.2059449 C28.0677879,36.6527953 28.3502424,36.8646063 28.8678788,36.8646063 C29.3851212,36.8646063 29.6675758,36.6527953 29.6675758,36.2059449 L29.6675758,30.7039764 C29.6675758,30.2575197 29.3851212,30.0457087 28.8678788,30.0457087 C28.3502424,30.0457087 28.0677879,30.2575197 28.0677879,30.7039764 L28.0677879,36.2059449 Z M24.5857576,27.4590945 L27.9267576,27.4590945 L27.9267576,28.7055512 L27.9736364,28.7055512 C28.632303,27.4590945 29.2440909,27.2712992 30.4909091,27.2712992 C32.6083333,27.2712992 33.2906364,28.0941339 33.2906364,30.5394094 L33.2906364,37.2169685 C33.2906364,39.0744488 32.1616061,39.6390157 30.6792121,39.6390157 C29.4323939,39.6390157 28.6795758,39.1921654 28.1150606,38.3929528 L28.0677879,38.3929528 L28.0677879,43.8712992 L24.5857576,43.8712992 L24.5857576,27.4590945 Z" id="Fill-72"></path>
                <path d="M38.8895788,32.0913386 L40.8187,32.0913386 L40.8187,30.3279528 C40.8187,29.834252 40.6540333,29.6224409 39.8539424,29.6224409 C39.0542455,29.6224409 38.8895788,29.834252 38.8895788,30.3279528 L38.8895788,32.0913386 Z M35.2665182,31.080315 C35.2665182,27.8590551 36.8663061,27.2712598 39.8539424,27.2712598 C43.6657,27.2712598 44.4417606,28.7055118 44.4417606,30.5866142 L44.4417606,34.3015748 L38.8895788,34.3015748 L38.8895788,36.323622 C38.8895788,36.9582677 39.0306091,37.1468504 39.9244576,37.1468504 C40.6067606,37.1468504 40.9128515,37.0055118 40.9128515,36.3 L40.9128515,35.7358268 L44.4417606,35.7358268 L44.4417606,36.4177165 C44.4417606,38.9338583 43.3832455,39.6389764 39.8539424,39.6389764 C36.8663061,39.6389764 35.2665182,39.0511811 35.2665182,35.8299213 L35.2665182,31.080315 Z" id="Fill-74"></path>
                <path d="M49.8052455,32.0913386 L51.7343667,32.0913386 L51.7343667,30.3279528 C51.7343667,29.834252 51.5697,29.6224409 50.7696091,29.6224409 C49.9699121,29.6224409 49.8052455,29.834252 49.8052455,30.3279528 L49.8052455,32.0913386 Z M46.1821848,31.080315 C46.1821848,27.8590551 47.7819727,27.2712598 50.7696091,27.2712598 C54.5813667,27.2712598 55.3578212,28.7055118 55.3578212,30.5866142 L55.3578212,34.3015748 L49.8052455,34.3015748 L49.8052455,36.323622 C49.8052455,36.9582677 49.9462758,37.1468504 50.8405182,37.1468504 C51.5224273,37.1468504 51.8285182,37.0055118 51.8285182,36.3 L51.8285182,35.7358268 L55.3578212,35.7358268 L55.3578212,36.4177165 C55.3578212,38.9338583 54.2989121,39.6389764 50.7696091,39.6389764 C47.7819727,39.6389764 46.1821848,39.0511811 46.1821848,35.8299213 L46.1821848,31.080315 Z" id="Fill-76"></path>
                <polygon id="Fill-78" points="57.3331515 39.4507874 60.8151818 39.4507874 60.8151818 22.4275591 57.3331515 22.4275591"></polygon>
                <path d="M66.6496212,36.2059449 C66.6496212,36.6527953 66.9320758,36.8646063 67.4489242,36.8646063 C67.9669545,36.8646063 68.2494091,36.6527953 68.2494091,36.2059449 L68.2494091,30.7039764 C68.2494091,30.2575197 67.9669545,30.0457087 67.4489242,30.0457087 C66.9320758,30.0457087 66.6496212,30.2575197 66.6496212,30.7039764 L66.6496212,36.2059449 Z M63.0265606,29.6929528 C63.0265606,27.8354724 64.1555909,27.2712992 65.6379848,27.2712992 C66.884803,27.2712992 67.6376212,27.7177559 68.2021364,28.5173622 L68.2494091,28.5173622 L68.2494091,22.4275984 L71.7310455,22.4275984 L71.7310455,39.4508268 L68.4140758,39.4508268 L68.4140758,38.2047638 L68.366803,38.2047638 C67.6845,39.4508268 67.0727121,39.6390157 65.8258939,39.6390157 C63.7084697,39.6390157 63.0265606,38.8161811 63.0265606,36.3709055 L63.0265606,29.6929528 Z" id="Fill-80"></path>
                <path d="M77.3298303,36.1355906 C77.3298303,36.8647244 77.6122848,37.0056693 78.2941939,37.0056693 C78.9768909,37.0056693 79.2585576,36.8647244 79.2585576,36.1355906 L79.2585576,30.7745669 C79.2585576,30.0454331 78.9768909,29.9048819 78.2941939,29.9048819 C77.6122848,29.9048819 77.3298303,30.0454331 77.3298303,30.7745669 L77.3298303,36.1355906 Z M73.7067697,31.0800787 C73.7067697,27.8592126 75.3061636,27.2710236 78.2941939,27.2710236 C81.2822242,27.2710236 82.8820121,27.8592126 82.8820121,31.0800787 L82.8820121,35.8300787 C82.8820121,39.0509449 81.2822242,39.6387402 78.2941939,39.6387402 C75.3061636,39.6387402 73.7067697,39.0509449 73.7067697,35.8300787 L73.7067697,31.0800787 Z" id="Fill-81"></path>
                <path d="M88.245497,36.1355906 C88.245497,36.8647244 88.5279515,37.0056693 89.2102545,37.0056693 C89.8929515,37.0056693 90.1746182,36.8647244 90.1746182,36.1355906 L90.1746182,30.7745669 C90.1746182,30.0454331 89.8929515,29.9048819 89.2102545,29.9048819 C88.5279515,29.9048819 88.245497,30.0454331 88.245497,30.7745669 L88.245497,36.1355906 Z M84.6224364,31.0800787 C84.6224364,27.8592126 86.2222242,27.2710236 89.2102545,27.2710236 C92.1978909,27.2710236 93.7980727,27.8592126 93.7980727,31.0800787 L93.7980727,35.8300787 C93.7980727,39.0509449 92.1978909,39.6387402 89.2102545,39.6387402 C86.2222242,39.6387402 84.6224364,39.0509449 84.6224364,35.8300787 L84.6224364,31.0800787 Z" id="Fill-82"></path>
                <path d="M95.5618576,35.735748 L98.7610394,35.735748 L98.7610394,36.0648819 C98.7610394,36.958189 98.9497364,37.1467717 99.5847667,37.1467717 C100.219797,37.1467717 100.478615,36.958189 100.408494,36.0648819 C100.337585,35.054252 100.243827,35.0066142 98.5258576,34.7483465 C96.0791,34.3955906 95.4909485,33.5959843 95.4909485,31.2684252 C95.4909485,27.7648819 96.3851909,27.3420472 99.5847667,27.2711811 C102.619676,27.2007087 103.60807,27.9294488 103.60807,29.6459843 L103.60807,31.0333858 L100.54913,31.0333858 L100.54913,30.4688189 C100.54913,29.9282677 100.313948,29.6227559 99.7726758,29.6227559 C99.114403,29.6227559 98.9729788,29.8810236 98.9729788,30.704252 C98.9729788,31.5034646 99.114403,31.6916535 100.54913,31.9034646 C103.301979,32.3266929 103.842858,32.7259055 103.890524,35.3597638 C103.960645,39.0983465 102.596039,39.6388976 99.7726758,39.6388976 C96.6676455,39.6388976 95.5618576,39.0983465 95.5618576,36.7940157 L95.5618576,35.735748 Z" id="Fill-83"></path>
            </g>
        </g>
    </g>
</svg>