<?xml version="1.0" encoding="UTF-8"?>
<svg width="154px" height="51px" viewBox="0 0 154 51" version="1.1" xmlns="http://www.w3.org/2000/svg" xmlns:xlink="http://www.w3.org/1999/xlink">
    <!-- Generator: Sketch 48.2 (47327) - http://www.bohemiancoding.com/sketch -->
    <title>autotaalglas-logo-154-51</title>
    <desc>Created with Sketch.</desc>
    <defs></defs>
    <g id="Page-1" stroke="none" stroke-width="1" fill="none" fill-rule="evenodd">
        <g id="autotaalglas-logo-154-51" fill="#FFFFFF">
            <g id="Page-1" transform="translate(2.000000, 3.000000)">
                <path d="M11.1259496,44.5334824 C11.1259496,44.5334824 45.7445226,3.72854118 119.242307,5.51901176 C119.242307,5.51901176 128.536318,5.4846 137.676435,8.51230588 C137.676435,8.51230588 133.637121,2.07201176 113.88157,0.411776471 C41.9868949,-3.91722353 0.320186861,44.5186588 0.320186861,44.5186588 L11.1259496,44.5334824 Z" id="Fill-1"></path>
                <path d="M83.6127639,36.9883588 C83.6127639,37.5363 84.112512,37.8544765 84.7721361,37.8544765 C85.834169,37.8544765 86.5068442,36.9121235 86.5068442,35.9840647 C86.1452201,35.9681824 85.7384609,35.9401235 85.3164755,35.9401235 C84.365377,35.9401235 83.6127639,36.2265353 83.6127639,36.9883588" id="Fill-3"></path>
                <path d="M93.0014496,36.9883588 C93.0014496,37.5363 93.5039168,37.8544765 94.1591905,37.8544765 C95.2228547,37.8544765 95.8938985,36.9121235 95.8938985,35.9840647 C95.5322745,35.9681824 95.1249715,35.9401235 94.7051613,35.9401235 C93.7524314,35.9401235 93.0014496,36.2265353 93.0014496,36.9883588" id="Fill-5"></path>
                <path d="M109.329403,33.4892647 C108.28314,33.4892647 107.734994,34.3866176 107.734994,35.4666176 C107.734994,36.6996176 108.485432,37.3984412 109.329403,37.3984412 C110.326724,37.3984412 111.125559,36.5773235 111.125559,35.3596765 C111.125559,34.4771471 110.595359,33.4892647 109.329403,33.4892647" id="Fill-7"></path>
                <path d="M40.7455726,36.9883588 C40.7455726,37.5363 41.2453208,37.8544765 41.8989631,37.8544765 C42.9642588,37.8544765 43.6369339,36.9121235 43.6369339,35.9840647 C43.2763974,35.9681824 42.8696383,35.9401235 42.4492843,35.9401235 C41.4954668,35.9401235 40.7455726,36.2265353 40.7455726,36.9883588" id="Fill-9"></path>
                <path d="M132.277143,39.6788294 C131.012818,39.6788294 130.153077,39.5613 129.32542,39.3013588 L129.482033,37.3081235 C130.137851,37.5823588 131.10907,37.8544765 132.119986,37.8544765 C132.701303,37.8544765 133.263588,37.7639471 133.263588,37.2149471 C133.263588,35.8771235 129.263971,36.8200059 129.263971,33.9611824 C129.263971,32.1373588 131.10907,31.3893 132.732843,31.3893 C133.700256,31.3893 134.683438,31.4973 135.591577,31.8451235 L135.375146,33.7488882 C134.77969,33.3984176 133.888953,33.2168294 133.185281,33.2168294 C132.575686,33.2168294 131.887241,33.3227118 131.887241,33.7642412 C131.887241,34.9972412 136.076099,34.0225941 136.076099,37.0333588 C136.076099,39.1494176 134.123329,39.6788294 132.277143,39.6788294 Z M125.578668,39.4972412 C125.56453,39.0715941 125.515044,38.6613 125.515044,38.2510059 L125.483504,38.2510059 C124.843457,39.2399471 124.063654,39.6788294 122.908088,39.6788294 C121.298997,39.6788294 119.860657,38.9053588 119.860657,37.1863588 C119.860657,34.7664176 122.563865,34.4773588 124.063654,34.4773588 C124.516092,34.4773588 125.015296,34.5228882 125.374745,34.5853588 C125.362238,33.5048294 124.531862,33.2173588 123.517139,33.2173588 C122.609,33.2173588 121.700862,33.3851824 120.922146,33.8103 L120.876468,31.9520647 C121.873789,31.5560647 122.920051,31.3887706 124.127278,31.3887706 C126.203489,31.3887706 128.001278,32.2585941 128.001278,34.6743 L128.001278,37.6268294 C128.001278,38.2510059 128.030643,38.8730647 128.157347,39.4972412 L125.578668,39.4972412 Z M115.828413,39.4967118 L118.64038,39.4967118 L118.64038,28.0884176 L115.828413,28.0884176 L115.828413,39.4967118 Z M113.844646,38.5718294 C113.844646,41.8255941 112.218154,42.8738294 108.938522,42.8738294 C107.594803,42.8738294 106.484373,42.6017118 105.827468,42.3719471 L105.968854,40.2145941 C106.830227,40.6243588 107.549668,40.8678882 108.718285,40.8678882 C110.345322,40.8678882 111.219745,40.1208882 111.219745,38.5718294 L111.219745,38.1451235 L111.188205,38.1451235 C110.514986,39.0721235 109.579114,39.4967118 108.454544,39.4967118 C106.219,39.4967118 104.830146,37.8544765 104.830146,35.5139471 C104.830146,33.1538294 105.968854,31.3887706 108.501311,31.3887706 C109.702011,31.3887706 110.672143,32.0288294 111.265968,33.0029471 L111.297508,33.0029471 L111.297508,31.5724765 L113.844646,31.5724765 L113.844646,38.5718294 Z M100.483044,39.4967118 L103.295011,39.4967118 L103.295011,28.0884176 L100.483044,28.0884176 L100.483044,39.4967118 Z M96.0962449,39.4972412 C96.0804748,39.0715941 96.032077,38.6613 96.032077,38.2510059 L96.0021682,38.2510059 C95.3610332,39.2399471 94.5817741,39.6788294 93.424577,39.6788294 C91.8165734,39.6788294 90.3782339,38.9053588 90.3782339,37.1863588 C90.3782339,34.7664176 93.0830734,34.4773588 94.5817741,34.4773588 C95.0347558,34.4773588 95.5323288,34.5228882 95.8939529,34.5853588 C95.8787266,33.5048294 95.0499821,33.2173588 94.0336281,33.2173588 C93.1271208,33.2173588 92.2222449,33.3851824 91.439723,33.8103 L91.394588,31.9520647 C92.3919091,31.5560647 93.4398033,31.3887706 94.643223,31.3887706 C96.7216099,31.3887706 98.5193982,32.2585941 98.5193982,34.6743 L98.5193982,37.6268294 C98.5193982,38.2510059 98.5503945,38.8730647 98.6743799,39.4972412 L96.0962449,39.4972412 Z M86.7081573,39.4972412 C86.6940186,39.0715941 86.645077,38.6613 86.645077,38.2510059 L86.6135369,38.2510059 C85.9724018,39.2399471 85.1904237,39.6788294 84.0359456,39.6788294 C82.4284858,39.6788294 80.9896026,38.9053588 80.9896026,37.1863588 C80.9896026,34.7664176 83.691723,34.4773588 85.1904237,34.4773588 C85.6461245,34.4773588 86.1453288,34.5228882 86.5069529,34.5853588 C86.4917266,33.5048294 85.6618945,33.2173588 84.6466281,33.2173588 C83.7401208,33.2173588 82.8336135,33.3851824 82.0516354,33.8103 L82.007588,31.9520647 C83.0032777,31.5560647 84.0533471,31.3887706 85.2551354,31.3887706 C87.3335223,31.3887706 89.1307668,32.2585941 89.1307668,34.6743 L89.1307668,37.6268294 C89.1307668,38.2510059 89.1623069,38.8730647 89.2879237,39.4972412 L86.7081573,39.4972412 Z M78.6175661,39.6783 C76.1003361,39.6783 75.4907412,38.5988294 75.4907412,36.7157118 L75.4907412,33.4889471 L73.8800186,33.4889471 L73.8800186,31.5724765 L75.5385953,31.5724765 L75.5385953,29.7925941 L78.3027084,28.9540059 L78.3027084,31.5724765 L80.2717923,31.5724765 L80.2717923,33.4889471 L78.3027084,33.4889471 L78.3027084,36.4086529 C78.3027084,37.3674176 78.5370843,37.8539471 79.4283653,37.8539471 C79.7105953,37.8539471 80.0075077,37.7941235 80.2870186,37.7485941 L80.3816391,39.5274176 C79.8487193,39.5898882 79.32015,39.6783 78.6175661,39.6783 Z M68.9760697,39.6788294 C66.2886318,39.6788294 64.2406974,38.1583588 64.2406974,35.5435941 C64.2406974,32.9092412 66.2886318,31.3893 68.9760697,31.3893 C71.6640515,31.3893 73.7119858,32.9092412 73.7119858,35.5435941 C73.7119858,38.1583588 71.6640515,39.6788294 68.9760697,39.6788294 Z M61.8670296,39.6783 C59.3519748,39.6783 58.7418361,38.5988294 58.7418361,36.7157118 L58.7418361,33.4889471 L57.1349201,33.4889471 L57.1349201,31.5724765 L58.7907777,31.5724765 L58.7907777,29.7925941 L61.5570661,28.9540059 L61.5570661,31.5724765 L63.5256062,31.5724765 L63.5256062,33.4889471 L61.5570661,33.4889471 L61.5570661,36.4086529 C61.5570661,37.3674176 61.791442,37.8539471 62.6805478,37.8539471 C62.9616901,37.8539471 63.2591464,37.7941235 63.5397449,37.7485941 L63.6327339,39.5274176 C63.1014456,39.5898882 62.5707011,39.6783 61.8670296,39.6783 Z M56.2599529,39.4967118 L53.697588,39.4967118 L53.697588,38.0360647 L53.6660478,38.0360647 C53.1021318,39.1801235 51.97865,39.6788294 50.6969237,39.6788294 C48.4766062,39.6788294 47.5864128,38.1583588 47.5864128,36.5155941 L47.5864128,31.5724765 L50.3983799,31.5724765 L50.3983799,35.4048882 C50.3983799,36.8983588 50.9307558,37.3981235 51.6942449,37.3981235 C52.8525296,37.3981235 53.4458106,36.6230647 53.4458106,34.9173 L53.4458106,31.5724765 L56.2599529,31.5724765 L56.2599529,39.4967118 Z M43.8407485,39.4972412 C43.8217157,39.0715941 43.7749493,38.6613 43.7749493,38.2510059 L43.7444967,38.2510059 C43.1039055,39.2399471 42.3235588,39.6788294 41.1674493,39.6788294 C39.558358,39.6788294 38.1221938,38.9053588 38.1221938,37.1863588 C38.1221938,34.7664176 40.8226828,34.4773588 42.3235588,34.4773588 C42.7787157,34.4773588 43.2762887,34.5228882 43.637369,34.5853588 C43.6172485,33.5048294 42.793942,33.2173588 41.777588,33.2173588 C40.8721682,33.2173588 39.962942,33.3851824 39.1842266,33.8103 L39.1341974,31.9520647 C40.135869,31.5560647 41.1821318,31.3887706 42.3860953,31.3887706 C44.4661135,31.3887706 46.2600953,32.2585941 46.2600953,34.6743 L46.2600953,37.6268294 C46.2600953,38.2510059 46.2916354,38.8730647 46.4172522,39.4972412 L43.8407485,39.4972412 Z M124.67488,8.39218235 C54.9015515,4.4793 17.4046682,44.5335353 17.4046682,44.5335353 L135.12065,44.5335353 C170.993759,9.69400588 126.067541,8.50865294 124.67488,8.39218235 Z" id="Fill-11"></path>
                <path d="M122.484852,36.9883588 C122.484852,37.5363 122.982969,37.8544765 123.642049,37.8544765 C124.704626,37.8544765 125.374582,36.9121235 125.374582,35.9840647 C125.015677,35.9681824 124.608918,35.9401235 124.186932,35.9401235 C123.234202,35.9401235 122.484852,36.2265353 122.484852,36.9883588" id="Fill-13"></path>
                <path d="M68.9759066,33.3052412 C67.6784102,33.3052412 67.1471219,34.3582412 67.1471219,35.5435941 C67.1471219,36.7162412 67.6784102,37.7639471 68.9759066,37.7639471 C70.2750343,37.7639471 70.8025161,36.7162412 70.8025161,35.5435941 C70.8025161,34.3582412 70.2750343,33.3052412 68.9759066,33.3052412" id="Fill-15"></path>
            </g>
        </g>
    </g>
</svg>