<?xml version="1.0" encoding="UTF-8"?>
<svg width="154px" height="51px" viewBox="0 0 154 51" version="1.1" xmlns="http://www.w3.org/2000/svg" xmlns:xlink="http://www.w3.org/1999/xlink">
    <!-- Generator: Sketch 48.2 (47327) - http://www.bohemiancoding.com/sketch -->
    <title>mailcampaigns-logo-154-51</title>
    <desc>Created with Sketch.</desc>
    <defs></defs>
    <g id="Page-1" stroke="none" stroke-width="1" fill="none" fill-rule="evenodd">
        <g id="mailcampaigns-logo-154-51" fill="#FFFFFF">
            <g id="Group-13" transform="translate(1.000000, 16.000000)">
                <g id="Page-1">
                    <path d="M17.5417657,17.5425199 C13.4684177,17.5425199 10.1659867,14.1002785 10.1659867,9.85448276 L10.1659867,3.0212069 C10.1659867,0.165437666 8.57712486,0 8.57712486,0 L14.417368,0 C16.1426939,0 17.5417657,1.45830239 17.5417657,3.25710875 L17.5417657,17.5425199 Z" id="Fill-1"></path>
                    <path d="M8.96434696,13.4035146 C4.8909989,13.4035146 1.58856796,9.96127321 1.58856796,5.71547745 L1.58856796,3.0212069 C1.58856796,0.165437666 -0.000293922651,0 -0.000293922651,0 L5.83994917,0 C7.56569503,0 8.96434696,1.45830239 8.96434696,3.25710875 L8.96434696,13.4035146 Z" id="Fill-3"></path>
                    <path d="M26.1191425,19.6949602 C22.0453746,19.6949602 18.7433635,16.2527188 18.7433635,12.0069231 L18.7433635,3.0212069 C18.7433635,0.165437666 17.1545017,0 17.1545017,0 L22.1663028,0 C24.3493083,0 26.1191425,1.84476127 26.1191425,4.12018568 L26.1191425,19.6949602 Z" id="Fill-6"></path>
                    <path d="M39.7741591,14.158313 L37.0902254,14.158313 L37.0902254,9.90901592 C37.0902254,8.82491777 36.3688552,8.49316711 35.8154409,8.49316711 C35.2116398,8.49316711 34.6405901,8.82491777 34.6405901,9.87444032 L34.6405901,14.158313 L31.9738718,14.158313 L31.9738718,6.01028912 L34.6405901,6.01028912 L34.6405901,7.28608488 C34.9093193,6.25450663 35.9493856,5.80020955 36.6371646,5.80020955 C38.1638829,5.80020955 39.0191978,6.41206631 39.4386674,7.53074005 C40.0428884,6.25450663 41.0825348,5.80020955 41.7703138,5.80020955 C44.1359713,5.80020955 44.8909326,7.28608488 44.8909326,9.82192042 L44.8909326,14.158313 L42.2233746,14.158313 L42.2233746,9.90901592 C42.2233746,8.82491777 41.5020044,8.49316711 40.9485901,8.49316711 C40.344789,8.49316711 39.7741591,8.82491777 39.7741591,9.87444032 L39.7741591,14.158313 Z" id="Fill-8"></path>
                    <path d="M50.6929238,11.7797745 C51.5818298,11.7797745 52.3199956,11.0107958 52.3199956,10.0842573 C52.3199956,9.15728117 51.5818298,8.38786472 50.6929238,8.38786472 C49.8040177,8.38786472 49.0658519,9.15728117 49.0658519,10.0842573 C49.0658519,11.0107958 49.8040177,11.7797745 50.6929238,11.7797745 Z M52.3199956,6.01002653 L54.9875536,6.01002653 L54.9875536,14.1584881 L52.3199956,14.1584881 L52.3199956,13.2310743 C51.8337635,13.9484085 51.0116199,14.3156101 50.156305,14.3156101 C48.2269127,14.3156101 46.3483271,12.7067507 46.3483271,10.0667507 C46.3483271,7.426313 48.2269127,5.80038462 50.156305,5.80038462 C50.9448575,5.80038462 51.8337635,6.16714854 52.3199956,6.88404509 L52.3199956,6.01002653 Z" id="Fill-10"></path>
                    <path d="M56.9991602,14.1584881 L59.6667182,14.1584881 L59.6667182,6.01046419 L56.9991602,6.01046419 L56.9991602,14.1584881 Z M58.3243315,1.72571618 C59.2132376,1.72571618 59.9178122,2.40803714 59.9178122,3.29956233 C59.9178122,4.1735809 59.2132376,4.89091512 58.3243315,4.89091512 C57.452221,4.89091512 56.7136354,4.1735809 56.7136354,3.29956233 C56.7136354,2.40803714 57.452221,1.72571618 58.3243315,1.72571618 Z" id="Fill-12"></path>
                    <polygon id="Fill-14" points="61.6788287 14.1580504 64.3459669 14.1580504 64.3459669 1.72571618 61.6788287 1.72571618"></polygon>
                    <path d="M73.7060597,12.3046671 C72.9338829,13.5113117 71.7598718,14.3157414 70.2503691,14.3157414 C67.9183028,14.3157414 65.9053525,12.6543621 65.9053525,10.066882 C65.9053525,7.47896419 67.9183028,5.80051592 70.2503691,5.80051592 C71.7598718,5.80051592 72.9170873,6.60450796 73.6892641,7.81071485 L71.508358,9.1749191 C71.2228331,8.68517109 70.7198055,8.37048939 70.1323801,8.37048939 C69.243474,8.37048939 68.5053083,9.1403435 68.5053083,10.066882 C68.5053083,10.9934204 69.243474,11.7628369 70.1323801,11.7628369 C70.6866343,11.7628369 71.1728663,11.4652241 71.4751867,11.0109271 L73.7060597,12.3046671 Z" id="Fill-15"></path>
                    <path d="M78.9719359,11.7797745 C79.860842,11.7797745 80.5990077,11.0107958 80.5990077,10.0842573 C80.5990077,9.15728117 79.860842,8.38786472 78.9719359,8.38786472 C78.0830298,8.38786472 77.3444442,9.15728117 77.3444442,10.0842573 C77.3444442,11.0107958 78.0830298,11.7797745 78.9719359,11.7797745 Z M80.5990077,6.01002653 L83.2665657,6.01002653 L83.2665657,14.1584881 L80.5990077,14.1584881 L80.5990077,13.2310743 C80.1127757,13.9484085 79.290632,14.3156101 78.4348972,14.3156101 C76.5059249,14.3156101 74.6269193,12.7067507 74.6269193,10.0667507 C74.6269193,7.426313 76.5059249,5.80038462 78.4348972,5.80038462 C79.2234497,5.80038462 80.1127757,6.16714854 80.5990077,6.88404509 L80.5990077,6.01002653 Z" id="Fill-16"></path>
                    <path d="M93.0784177,14.158313 L90.394484,14.158313 L90.394484,9.90901592 C90.394484,8.82491777 89.6731138,8.49316711 89.1196994,8.49316711 C88.5158983,8.49316711 87.9448486,8.82491777 87.9448486,9.87444032 L87.9448486,14.158313 L85.2781304,14.158313 L85.2781304,6.01028912 L87.9448486,6.01028912 L87.9448486,7.28608488 C88.2135779,6.25450663 89.2536442,5.80020955 89.9410033,5.80020955 C91.4681414,5.80020955 92.3238762,6.41206631 92.742926,7.53074005 C93.3467271,6.25450663 94.3867934,5.80020955 95.0745724,5.80020955 C97.4402298,5.80020955 98.1951912,7.28608488 98.1951912,9.82192042 L98.1951912,14.158313 L95.5276331,14.158313 L95.5276331,9.90901592 C95.5276331,8.82491777 94.806263,8.49316711 94.2524287,8.49316711 C93.6486276,8.49316711 93.0784177,8.82491777 93.0784177,9.87444032 L93.0784177,14.158313 Z" id="Fill-17"></path>
                    <path d="M104.399814,8.33530106 C103.510908,8.33530106 102.772323,9.1572374 102.772323,10.0842135 C102.772323,11.010752 103.510908,11.7276485 104.399814,11.7276485 C105.28872,11.7276485 106.026886,10.9582321 106.026886,10.0316936 C106.026886,9.10471751 105.28872,8.33530106 104.399814,8.33530106 Z M102.772323,18.1797175 L100.105185,18.1797175 L100.105185,6.01042042 L102.621582,6.01042042 L102.621582,7.18117639 C103.074643,6.22006233 104.080698,5.80034085 104.936433,5.80034085 C106.865825,5.80034085 108.744831,7.4087626 108.744831,10.0492003 C108.744831,12.6892003 106.865825,14.3155663 104.936433,14.3155663 C103.99714,14.3155663 103.27535,13.9829403 102.772323,13.4065345 L102.772323,18.1797175 Z" id="Fill-18"></path>
                    <path d="M114.211876,11.7797745 C115.100782,11.7797745 115.838948,11.0107958 115.838948,10.0842573 C115.838948,9.15728117 115.100782,8.38786472 114.211876,8.38786472 C113.32297,8.38786472 112.584385,9.15728117 112.584385,10.0842573 C112.584385,11.0107958 113.32297,11.7797745 114.211876,11.7797745 Z M115.838948,6.01002653 L118.506506,6.01002653 L118.506506,14.1584881 L115.838948,14.1584881 L115.838948,13.2310743 C115.352716,13.9484085 114.530572,14.3156101 113.675257,14.3156101 C111.745865,14.3156101 109.86728,12.7067507 109.86728,10.0667507 C109.86728,7.426313 111.745865,5.80038462 113.675257,5.80038462 C114.46381,5.80038462 115.352716,6.16714854 115.838948,6.88404509 L115.838948,6.01002653 Z" id="Fill-19"></path>
                    <path d="M120.517945,14.1584881 L123.185503,14.1584881 L123.185503,6.01046419 L120.517945,6.01046419 L120.517945,14.1584881 Z M121.843116,1.72571618 C122.732442,1.72571618 123.436597,2.40803714 123.436597,3.29956233 C123.436597,4.1735809 122.732442,4.89091512 121.843116,4.89091512 C120.971006,4.89091512 120.23242,4.1735809 120.23242,3.29956233 C120.23242,2.40803714 120.971006,1.72571618 121.843116,1.72571618 Z" id="Fill-20"></path>
                    <path d="M129.089653,11.7797745 C129.978559,11.7797745 130.716305,11.0107958 130.716305,10.0842573 C130.716305,9.15728117 129.978559,8.38786472 129.089653,8.38786472 C128.200747,8.38786472 127.462161,9.15728117 127.462161,10.0842573 C127.462161,11.0107958 128.200747,11.7797745 129.089653,11.7797745 Z M127.160261,14.6828117 C127.411775,15.3121751 128.065962,15.7664721 128.888526,15.7664721 C130.196902,15.7664721 130.951443,14.8749469 130.951443,13.1435411 C130.58278,13.8262997 129.743841,14.3156101 128.552614,14.3156101 C126.623222,14.3156101 124.744636,12.7067507 124.744636,10.0667507 C124.744636,7.426313 126.623222,5.80038462 128.552614,5.80038462 C129.341167,5.80038462 130.230073,6.16714854 130.716305,6.88404509 L130.716305,6.01002653 L133.384283,6.01002653 L133.384283,13.1260345 C133.384283,16.5188196 131.756791,18.3023077 128.888526,18.3023077 C127.042692,18.3023077 125.515973,17.183634 124.912172,15.6272944 L127.160261,14.6828117 Z" id="Fill-21"></path>
                    <path d="M138.062356,14.158313 L135.395218,14.158313 L135.395218,6.01028912 L138.062356,6.01028912 L138.062356,7.28608488 C138.330665,6.25450663 139.572278,5.80020955 140.259638,5.80020955 C142.356986,5.80020955 143.380256,7.28608488 143.380256,9.82192042 L143.380256,14.158313 L140.712698,14.158313 L140.712698,9.90901592 C140.712698,8.82491777 139.991748,8.49316711 139.437914,8.49316711 C138.834113,8.49316711 138.062356,8.82491777 138.062356,9.87444032 L138.062356,14.158313 Z" id="Fill-22"></path>
                    <path d="M147.38806,10.9758263 C144.938844,10.2764363 144.972435,8.8251366 144.972435,8.23078647 C144.972435,7.00663528 146.415596,5.80042838 148.159817,5.80042838 C149.804104,5.80042838 151.598712,6.49938064 151.581916,8.61505703 L149.082314,8.61505703 C149.082314,8.10824005 148.797209,7.88109151 148.294181,7.88109151 C147.95827,7.88109151 147.640413,8.0207069 147.640413,8.33538859 C147.640413,8.5450305 147.740767,8.73760345 148.226999,8.8597122 L149.619352,9.26192706 C151.632303,9.82170159 151.800259,11.2034125 151.800259,11.7277361 C151.800259,13.5287308 149.921253,14.3156538 148.26059,14.3156538 C146.599927,14.3156538 144.855286,13.3011446 144.855286,11.430561 L147.354469,11.430561 C147.354469,11.7798183 147.606402,12.270004 148.26059,12.270004 C148.696855,12.270004 149.082314,12.0603621 149.082314,11.7277361 C149.082314,11.4826432 148.948369,11.4130544 148.377739,11.2554947 L147.38806,10.9758263 Z" id="Fill-23"></path>
                </g>
            </g>
        </g>
    </g>
</svg>