<?xml version="1.0" encoding="UTF-8"?>
<svg width="154px" height="51px" viewBox="0 0 154 51" version="1.1" xmlns="http://www.w3.org/2000/svg" xmlns:xlink="http://www.w3.org/1999/xlink">
    <!-- Generator: Sketch 48.2 (47327) - http://www.bohemiancoding.com/sketch -->
    <title>mobillie-logo-154-51</title>
    <desc>Created with Sketch.</desc>
    <defs></defs>
    <g id="Page-1" stroke="none" stroke-width="1" fill="none" fill-rule="evenodd">
        <g id="mobillie-logo-154-51" fill="#FFFFFF">
            <g id="Group-4" transform="translate(9.000000, 9.000000)">
                <g id="Page-1">
                    <path d="M77.8511206,0.170215138 C76.6253483,0.170215138 75.6403681,0.546578774 74.8963516,1.29879515 C74.1521634,2.05152242 73.7801552,2.97727478 73.7801552,4.07673344 C73.7801552,5.176703 74.1521634,6.10228507 74.8963516,6.85450144 C75.6403681,7.60739901 76.6253483,7.98291115 77.8511206,7.98291115 C79.0767211,7.98291115 80.0615296,7.60739901 80.8057178,6.85450144 C81.5497343,6.10228507 81.9217425,5.176703 81.9217425,4.07673344 C81.9217425,2.97727478 81.5497343,2.05152242 80.8057178,1.29879515 C80.0615296,0.546578774 79.0767211,0.170215138 77.8511206,0.170215138" id="Fill-1"></path>
                    <path d="M80.4775056,10.5004944 C80.1273095,10.2399349 79.6963913,10.0663989 79.1859534,9.97971608 C78.6751721,9.89286294 78.0986108,9.84926606 77.4569567,9.84926606 C76.8147874,9.84926606 76.180175,9.90018585 75.5529479,10.0013442 C74.9250337,10.1030135 74.4510066,10.1823734 74.1303513,10.2399349 L74.1303513,27.9055244 C74.1303513,28.6291303 74.2246415,29.2151336 74.4147676,29.663364 C74.6042067,30.1124458 74.8745395,30.4663298 75.2245639,30.7268893 C75.57476,30.9871081 76.0049911,31.1608144 76.5159442,31.2476675 C77.0260386,31.3343504 77.6027716,31.377777 78.2449409,31.377777 C78.8864233,31.377777 79.5213791,31.3268572 80.1489498,31.2258691 C80.7763487,31.1241998 81.2502041,31.0448399 81.5715464,30.9871081 L81.5715464,13.3216889 C81.5715464,12.5987642 81.4765692,12.0127609 81.2873019,11.5640197 C81.097004,11.1154487 80.8277017,10.7608835 80.4775056,10.5004944" id="Fill-4"></path>
                    <path d="M90.7562853,2.99156298 C90.4060892,2.73117384 89.9751711,2.55763784 89.4649049,2.4706144 C88.9541236,2.38393155 88.3773906,2.34050498 87.7359082,2.34050498 C87.0937389,2.34050498 86.4589548,2.39142476 85.8317276,2.49241283 C85.2038134,2.59425241 84.7297863,2.67344204 84.409131,2.73117384 L84.409131,27.9054733 C84.409131,28.6290792 84.5034212,29.2150825 84.6937191,29.6633129 C84.8831582,30.1123947 85.1533193,30.4662787 85.5035154,30.7268382 C85.8537115,30.9872273 86.2837709,31.1607633 86.7948957,31.2476165 C87.3049901,31.3344696 87.8815514,31.3778962 88.5238924,31.3778962 C89.1653748,31.3778962 89.8001589,31.3269764 90.4280731,31.2259883 C91.0551285,31.1241487 91.5291556,31.0449591 91.8506696,30.9872273 L91.8506696,5.81292785 C91.8506696,5.08983283 91.7555207,4.50399984 91.5660816,4.05491798 C91.3757838,3.60668762 91.1064814,3.25212242 90.7562853,2.99156298" id="Fill-6"></path>
                    <path d="M100.991269,2.99156298 C100.641073,2.73117384 100.209983,2.55763784 99.6998887,2.4706144 C99.1891073,2.38393155 98.6123743,2.34050498 97.970892,2.34050498 C97.3287227,2.34050498 96.6939385,2.39142476 96.0667114,2.49241283 C95.4387972,2.59425241 94.9647701,2.67344204 94.6441148,2.73117384 L94.6441148,27.9054733 C94.6441148,28.6290792 94.738405,29.2150825 94.9287028,29.6633129 C95.1181419,30.1123947 95.388303,30.4662787 95.7384991,30.7268382 C96.0886952,30.9872273 96.5187546,31.1607633 97.0298795,31.2476165 C97.5398021,31.3344696 98.1165351,31.3778962 98.7588762,31.3778962 C99.4003585,31.3778962 100.035143,31.3269764 100.662885,31.2259883 C101.290112,31.1241487 101.764311,31.0449591 102.085653,30.9872273 L102.085653,5.81292785 C102.085653,5.08983283 101.990504,4.50399984 101.801065,4.05491798 C101.610596,3.60668762 101.341465,3.25212242 100.991269,2.99156298" id="Fill-8"></path>
                    <path d="M108.643664,0.170215138 C107.418235,0.170215138 106.433255,0.546578774 105.689067,1.29879515 C104.944878,2.05152242 104.57287,2.97727478 104.57287,4.07673344 C104.57287,5.176703 104.944878,6.10228507 105.689067,6.85450144 C106.433255,7.60739901 107.418235,7.98291115 108.643664,7.98291115 C109.869608,7.98291115 110.854245,7.60739901 111.598433,6.85450144 C112.342621,6.10228507 112.714801,5.176703 112.714801,4.07673344 C112.714801,2.97727478 112.342621,2.05152242 111.598433,1.29879515 C110.854245,0.546578774 109.869608,0.170215138 108.643664,0.170215138" id="Fill-10"></path>
                    <path d="M111.270392,10.5004944 C110.920196,10.2399349 110.488935,10.0663989 109.97884,9.97971608 C109.468059,9.89286294 108.891154,9.84926606 108.249672,9.84926606 C107.607846,9.84926606 106.973062,9.90018585 106.345491,10.0013442 C105.71792,10.1030135 105.243722,10.1823734 104.923066,10.2399349 L104.923066,27.9055244 C104.923066,28.6291303 105.017528,29.2151336 105.207654,29.663364 C105.397265,30.1124458 105.667255,30.4663298 106.017451,30.7268893 C106.367647,30.9871081 106.79805,31.1608144 107.309003,31.2476675 C107.818925,31.3343504 108.395487,31.377777 109.037656,31.377777 C109.679138,31.377777 110.314094,31.3268572 110.941837,31.2258691 C111.569064,31.1241998 112.042919,31.0448399 112.364605,30.9871081 L112.364605,13.3216889 C112.364605,12.5987642 112.269456,12.0127609 112.080017,11.5640197 C111.889719,11.1154487 111.620417,10.7608835 111.270392,10.5004944" id="Fill-13"></path>
                    <path d="M121.427728,18.4868967 C121.456582,18.0243611 121.551731,17.5684672 121.712316,17.1195557 C121.872215,16.6713253 122.113007,16.2665215 122.434864,15.9041225 C122.755348,15.5429156 123.171152,15.2465931 123.682105,15.0146441 C124.192543,14.783206 124.798473,14.6674018 125.498866,14.6674018 C126.578308,14.6674018 127.395489,14.956742 127.950238,15.5354224 C128.504129,16.1146137 128.825471,16.6929534 128.913235,17.2716338 L121.427728,18.4868967 Z M135.085205,20.7437161 C135.639267,20.2229378 135.916813,19.4708917 135.916813,18.4868967 C135.916813,17.1563405 135.661079,15.9259209 135.150985,14.7975112 C134.639688,13.6689312 133.925213,12.6999226 133.006012,11.8894635 C132.08664,11.0796856 130.992428,10.4427626 129.722859,9.97971608 C128.453635,9.5171805 127.045293,9.28523151 125.498866,9.28523151 C124.127107,9.28523151 122.78506,9.49538206 121.471524,9.91449107 C120.158332,10.3342813 118.990954,10.9853393 117.969563,11.8676651 C116.948,12.7506721 116.123949,13.8790818 115.496722,15.2532348 C114.868979,16.6277284 114.555366,18.2699341 114.555366,20.1796815 C114.555366,22.1185503 114.868979,23.8113352 115.496722,25.2576955 C116.123949,26.7050777 116.985098,27.9055244 118.079483,28.8605684 C119.173352,29.8152718 120.457347,30.5315548 121.931125,31.0089065 C123.404559,31.4862582 125.002168,31.7250193 126.724466,31.7250193 C127.745685,31.7250193 128.84007,31.6381661 130.007447,31.4646301 C131.174138,31.2909238 132.224726,30.958668 133.159212,30.4663298 C134.384641,29.8300879 134.997785,28.8605684 134.997785,27.5582821 C134.997785,26.9799423 134.836684,26.4298724 134.516201,25.9090941 C134.194858,25.3881455 133.800695,24.9831715 133.334053,24.693661 C132.662514,25.0993162 131.794667,25.4532002 130.729652,25.7568457 C129.664121,26.0608317 128.533326,26.2127395 127.337095,26.2127395 C126.052928,26.2127395 124.914576,25.9739785 123.922725,25.4966268 C122.930703,25.0191048 122.273764,24.3029921 121.95328,23.3479481 L132.76522,21.7421867 C133.756899,21.597772 134.530284,21.2646647 135.085205,20.7437161 L135.085205,20.7437161 Z" id="Fill-15"></path>
                    <path d="M29.6441782,20.4834291 C29.6441782,18.7765093 29.9210375,17.2281391 30.4757867,15.83917 C30.8108689,14.9994193 31.2302798,14.2378364 31.730928,13.5515262 C31.2350888,12.5290433 30.5731683,11.7071741 29.7439644,11.0864295 C28.9121842,10.4644929 27.9636147,10.0089396 26.8987712,9.71908852 C25.8332407,9.43025923 24.7462416,9.28516339 23.6374304,9.28516339 C22.0904876,9.28516339 20.7704251,9.47368581 19.6760408,9.84936824 C18.5816565,10.2257319 17.596848,10.7032539 16.7214436,11.281764 C15.8747213,10.6164007 14.8754859,10.1172506 13.7228787,9.78431353 C12.5697562,9.45205767 11.3953369,9.28516339 10.1991054,9.28516339 C8.59411145,9.28516339 7.0543821,9.50212596 5.58111959,9.93622139 C4.10717008,10.3701465 2.87401261,10.9345217 1.88216241,11.6290063 C1.29804423,12.0344912 0.838615782,12.4685867 0.503361828,12.9311223 C0.167592627,13.394339 -3.43497906e-05,14.0161054 -3.43497906e-05,14.7974431 L-3.43497906e-05,27.9054563 C-3.43497906e-05,28.6292325 0.0944275737,29.2150655 0.284381914,29.6632958 C0.473992757,30.1123777 0.744153859,30.4662617 1.09434997,30.7268211 C1.44454608,30.9872103 1.87460546,31.1607463 2.38555859,31.2477697 C2.89582473,31.3344526 3.47238596,31.3778791 4.11455529,31.3778791 C4.78557844,31.3778791 5.43461773,31.3344526 6.0625319,31.2477697 C6.68975907,31.1607463 7.14935927,31.0740634 7.44150424,30.9872103 L7.44150424,15.7523168 C7.70410838,15.6079022 8.02493543,15.4559943 8.40450061,15.2965933 C8.7833788,15.1378734 9.23610903,15.0578323 9.76148908,15.0578323 C10.5199324,15.0578323 11.1691435,15.2531667 11.7094657,15.6438355 C12.2491009,16.0345044 12.5190902,16.663764 12.5190902,17.5319548 L12.5190902,27.9054563 C12.5190902,28.6292325 12.6133804,29.2150655 12.8036783,29.6632958 C12.9931174,30.1123777 13.2632785,30.4662617 13.6134746,30.7268211 C13.9636707,30.9872103 14.3939018,31.1607463 14.9048549,31.2477697 C15.4149493,31.3344526 15.9915106,31.3778791 16.6340234,31.3778791 C17.2755057,31.3778791 17.9101181,31.3344526 18.5380323,31.2477697 C19.1650877,31.1607463 19.6391148,31.0740634 19.9606288,30.9872103 L19.9606288,16.5336545 L19.9606288,16.251467 C19.9606288,16.1504789 19.9455149,16.0419976 19.9168329,15.9258528 C20.1500679,15.7238767 20.500264,15.5285422 20.9674212,15.3400198 C21.4338913,15.1521786 21.8715077,15.0578323 22.2804419,15.0578323 C23.126649,15.0578323 23.7975004,15.2531667 24.2941984,15.6438355 C24.7900376,16.0345044 25.0382148,16.663764 25.0382148,17.5319548 L25.0382148,27.9054563 C25.0382148,28.6292325 25.1326768,29.2150655 25.3228029,29.6632958 C25.5124137,30.1123777 25.7824031,30.4662617 26.1325992,30.7268211 C26.4827953,30.9872103 26.9131982,31.1607463 27.4239795,31.2477697 C27.9342457,31.3344526 28.5106352,31.3778791 29.1529762,31.3778791 C29.8239994,31.3778791 30.4730387,31.3344526 31.1009528,31.2477697 C31.72818,31.1607463 32.1877802,31.0740634 32.4797534,30.9872103 L32.4797534,28.3645858 C31.6349203,27.4643785 30.9661299,26.400172 30.4757867,25.1711148 C29.9210375,23.7821457 29.6441782,22.2196406 29.6441782,20.4834291" id="Fill-17"></path>
                    <path d="M63.6107967,24.5417872 C62.8666085,25.4532343 61.8228901,25.9089579 60.4810155,25.9089579 C59.8093054,25.9089579 59.2478581,25.8439032 58.7956431,25.7136234 C58.3430846,25.5833437 57.9564777,25.4173009 57.6356507,25.2144733 L57.6356507,15.7522487 C58.1316616,15.5211512 58.5910901,15.3474449 59.014623,15.2314704 C59.4371254,15.1161771 59.9406933,15.0579344 60.5246398,15.0579344 C61.8084632,15.0579344 62.8296825,15.506846 63.5889846,16.403477 C64.3472562,17.3007892 64.7269931,18.6604667 64.7269931,20.483361 C64.7269931,22.2779854 64.3549849,23.6301697 63.6107967,24.5417872 M69.2355749,12.1715148 C68.2725785,11.2316276 67.163252,10.5153445 65.9089694,10.0230064 C64.6538281,9.53117919 63.3262087,9.28526557 61.9254242,9.28526557 C61.1376118,9.28526557 60.4152357,9.34350827 59.7588112,9.45880156 C59.102215,9.57477606 58.4085209,9.7774334 57.6794466,10.066433 L57.6794466,5.8128427 C57.6794466,5.08974768 57.5918547,4.50391469 57.4168425,4.05500313 C57.2416586,3.60677277 56.9792262,3.25203727 56.6290301,2.99164813 C56.2788339,2.73125899 55.8479158,2.55755269 55.3376497,2.47069955 C54.8266966,2.3840167 54.2501353,2.34059013 53.6084812,2.34059013 C52.9369428,2.34059013 52.2801748,2.39150991 51.6386925,2.49232768 C50.9965232,2.59416726 50.5291943,2.68783241 50.2379081,2.77451526 L50.2379081,13.2610961 C50.8532846,14.0315346 51.3589135,14.9038127 51.7498141,15.8826987 C52.3037045,17.2716679 52.5814225,18.8055626 52.5814225,20.483361 C52.5814225,22.2779854 52.3037045,23.8764239 51.7498141,25.279528 C51.427613,26.0947555 51.0269227,26.8318151 50.5523804,27.4954754 C50.861185,28.2168674 51.3970417,28.8459566 52.1640726,29.3813807 C53.0976999,30.0472549 54.2357084,30.6041368 55.5784417,31.0523672 C56.9203163,31.5005975 58.5550228,31.7250533 60.4810155,31.7250533 C62.2606782,31.7250533 63.8878278,31.4862923 65.3617773,31.0089406 C66.834868,30.5314186 68.0824524,29.830122 69.1043587,28.9036884 C70.1254062,27.9781064 70.9209473,26.813593 71.4899516,25.4096374 C72.0589559,24.0067037 72.3435439,22.3646683 72.3435439,20.483361 C72.3435439,18.6604667 72.0658258,17.054535 71.5119355,15.6655659 C70.9571864,14.2765967 70.1985712,13.1122536 69.2355749,12.1715148" id="Fill-20"></path>
                    <path d="M41.1126801,14.8843473 C39.8872514,14.8843473 38.9385102,15.3550573 38.2676588,16.2949446 C37.5959486,17.2356834 37.2608664,18.5737328 37.2608664,20.3099442 C37.2608664,20.3491133 37.2618969,20.3870903 37.2622404,20.4259187 C37.2622404,20.4455032 37.2608664,20.4637254 37.2608664,20.4834802 C37.2608664,22.2486427 37.6033338,23.6016785 38.2894709,24.5417361 C38.9745774,25.4823046 39.9308756,25.9523334 41.1564761,25.9523334 C42.3822484,25.9523334 43.3234327,25.4748114 43.9798572,24.5201079 C44.6364534,23.5650639 44.9648374,22.2196916 44.9648374,20.4834802 C44.9648374,20.4540183 44.9629482,20.4269405 44.9626047,20.3976489 C44.9629482,20.3678463 44.9648374,20.3399171 44.9648374,20.3099442 C44.9648374,18.5737328 44.6290682,17.2356834 43.958045,16.2949446 C43.2865066,15.3550573 42.3382807,14.8843473 41.1126801,14.8843473 Z" id="Fill-22"></path>
                </g>
            </g>
        </g>
    </g>
</svg>