<?xml version="1.0" encoding="UTF-8"?>
<svg width="154px" height="51px" viewBox="0 0 154 51" version="1.1" xmlns="http://www.w3.org/2000/svg" xmlns:xlink="http://www.w3.org/1999/xlink">
    <!-- Generator: Sketch 48.2 (47327) - http://www.bohemiancoding.com/sketch -->
    <title>vacuvita-logo-154-51</title>
    <desc>Created with Sketch.</desc>
    <defs></defs>
    <g id="Page-1" stroke="none" stroke-width="1" fill="none" fill-rule="evenodd">
        <g id="vacuvita-logo-154-51" fill="#FFFFFF">
            <g id="Vacuvita-logo" transform="translate(4.000000, 12.000000)">
                <path d="M13.7216301,8.2542439 C14.1580274,7.40019512 15.1988219,7.09287805 16.0379589,7.53687805 C16.843726,7.98087805 17.1794384,9.03980488 16.7430411,9.89356098 L9.99513699,22.6337561 C9.69308219,23.214439 9.12234247,23.5902439 8.45091781,23.5902439 C7.84652055,23.5902439 7.24241096,23.214439 6.94006849,22.6337561 L0.192452055,9.89356098 C-0.243945205,9.03980488 0.0917671233,7.98087805 0.897534247,7.53687805 C1.73667123,7.09287805 2.77746575,7.40019512 3.21386301,8.2542439 L7.37675342,16.3150244 C7.71246575,16.9981463 8.24954795,18.3301463 8.45091781,19.0132683 C8.68594521,18.3301463 9.18936986,16.9639024 9.55873973,16.2807805 L13.7216301,8.2542439" id="Fill-1"></path>
                <path d="M27.9228082,20.5161951 C30.6755342,20.5161951 32.8575205,17.8861463 32.8575205,15.4267317 C32.8575205,12.9676098 30.6755342,10.337561 27.9228082,10.337561 C24.9347671,10.337561 23.289863,12.6602927 23.289863,15.4267317 C23.289863,18.1934634 24.9347671,20.5161951 27.9228082,20.5161951 Z M36.2819589,21.7457561 C36.2819589,22.7019512 35.5095616,23.4875122 34.5697397,23.4875122 C33.6296301,23.4875122 32.8575205,22.7019512 32.8575205,21.7457561 L32.8575205,21.4041951 C31.6153562,23.112 29.6347397,24 27.3854384,24 C23.2562055,24 19.8657123,20.1746341 19.8657123,15.4267317 C19.8657123,10.679122 23.2562055,6.8537561 27.3854384,6.8537561 C29.6347397,6.8537561 31.6153562,7.776 32.8575205,9.48380488 L32.8575205,9.0737561 C32.8575205,8.11756098 33.6296301,7.332 34.5697397,7.332 C35.5095616,7.332 36.2819589,8.11756098 36.2819589,9.0737561 L36.2819589,21.7457561 Z" id="Fill-3"></path>
                <path d="M50.4158219,6.8537561 C52.3964384,6.8537561 54.2763699,7.63931707 55.5858493,8.6982439 C56.2906438,9.27892683 56.4920137,10.3718049 55.9215616,11.123122 C55.3508219,11.8747317 54.2763699,12.0453659 53.5379178,11.4646829 C52.6651233,10.781561 51.5573014,10.337561 50.4158219,10.337561 C47.6630959,10.337561 45.4137945,12.6260488 45.4137945,15.4267317 C45.4137945,18.2277073 47.6630959,20.5161951 50.4158219,20.5161951 C51.5573014,20.5161951 52.6651233,20.0719024 53.5379178,19.3890732 C54.2763699,18.8083902 55.3508219,18.9790244 55.9215616,19.7306341 C56.4920137,20.4819512 56.2906438,21.5748293 55.5858493,22.1555122 C54.2763699,23.214439 52.3964384,24 50.4158219,24 C45.7495068,24 41.9893562,20.1746341 41.9893562,15.4267317 C41.9893562,10.679122 45.7495068,6.8537561 50.4158219,6.8537561" id="Fill-4"></path>
                <path d="M77.7431507,21.7457561 C77.7431507,22.7019512 76.9707534,23.4875122 76.0306438,23.4875122 C75.0908219,23.4875122 74.3187123,22.7019512 74.3187123,21.7457561 L74.3187123,20.8917073 C73.1102055,22.770439 71.1629589,24 68.3095479,24 C64.113,24 61.6623288,20.5161951 61.6623288,16.2122927 L61.6623288,9.0737561 C61.6623288,8.08331707 62.4007808,7.332 63.3745479,7.332 C64.3143699,7.332 65.0864795,8.08331707 65.0864795,9.0737561 L65.0864795,15.8367805 C65.0864795,18.8083902 66.7650411,20.5161951 69.4173699,20.5161951 C72.2371233,20.5161951 74.3187123,18.2959024 74.3187123,15.1194146 L74.3187123,9.0737561 C74.3187123,8.11756098 75.0908219,7.332 76.0306438,7.332 C76.9707534,7.332 77.7431507,8.11756098 77.7431507,9.0737561 L77.7431507,21.7457561" id="Fill-5"></path>
                <path d="M95.7706438,8.2542439 C96.2070411,7.40019512 97.2478356,7.09287805 98.0869726,7.53687805 C98.8927397,7.98087805 99.2287397,9.03980488 98.7920548,9.89356098 L92.0441507,22.6337561 C91.7423836,23.214439 91.1716438,23.5902439 90.5002192,23.5902439 C89.8958219,23.5902439 89.2917123,23.214439 88.9893699,22.6337561 L82.2414658,9.89356098 C81.8053562,9.03980488 82.1410685,7.98087805 82.9465479,7.53687805 C83.7859726,7.09287805 84.8267671,7.40019512 85.2631644,8.2542439 L89.4260548,16.3150244 C89.7614795,16.9981463 90.2985616,18.3301463 90.5002192,19.0132683 C90.7352466,18.3301463 91.2386712,16.9639024 91.6080411,16.2807805 L95.7706438,8.2542439" id="Fill-6"></path>
                <path d="M106.715096,21.7457561 C106.715096,22.7019512 105.942986,23.4875122 105.002877,23.4875122 C104.063055,23.4875122 103.290945,22.7019512 103.290945,21.7457561 L103.290945,9.0737561 C103.290945,8.11756098 104.063055,7.332 105.002877,7.332 C105.942986,7.332 106.715096,8.11756098 106.715096,9.0737561 L106.715096,21.7457561 Z M105.002877,0.227414634 C106.211384,0.227414634 107.218808,1.25209756 107.218808,2.48165854 C107.218808,3.7115122 106.211384,4.70195122 105.002877,4.70195122 C103.79437,4.70195122 102.82089,3.7115122 102.82089,2.48165854 C102.82089,1.25209756 103.79437,0.227414634 105.002877,0.227414634 Z" id="Fill-7"></path>
                <path d="M113.362315,5.11170732 C113.362315,4.1555122 114.134137,3.36995122 115.074247,3.36995122 C116.014356,3.36995122 116.786178,4.1555122 116.786178,5.11170732 L116.786178,7.332 L119.069137,7.332 C120.008959,7.332 120.781356,8.11756098 120.781356,9.0737561 C120.781356,10.0302439 120.008959,10.8158049 119.069137,10.8158049 L116.786178,10.8158049 L116.786178,18.8083902 C116.786178,19.5254634 117.222863,20.0037073 117.927945,20.0037073 L119.942219,20.0037073 C120.882041,20.0037073 121.654151,20.7892683 121.654151,21.7457561 C121.654151,22.7019512 120.882041,23.4875122 119.942219,23.4875122 L117.86063,23.4875122 C115.376589,23.4875122 113.362315,21.7457561 113.362315,18.8765854 L113.362315,5.11170732" id="Fill-8"></path>
                <path d="M133.404082,20.5161951 C136.156808,20.5161951 138.339082,17.8861463 138.339082,15.4267317 C138.339082,12.9676098 136.156808,10.337561 133.404082,10.337561 C130.416329,10.337561 128.771137,12.6602927 128.771137,15.4267317 C128.771137,18.1934634 130.416329,20.5161951 133.404082,20.5161951 Z M141.762945,21.7457561 C141.762945,22.7019512 140.991123,23.4875122 140.051014,23.4875122 C139.111192,23.4875122 138.339082,22.7019512 138.339082,21.7457561 L138.339082,21.4041951 C137.096918,23.112 135.116301,24 132.867,24 C128.737479,24 125.346986,20.1746341 125.346986,15.4267317 C125.346986,10.679122 128.737479,6.8537561 132.867,6.8537561 C135.116301,6.8537561 137.096918,7.776 138.339082,9.48380488 L138.339082,9.0737561 C138.339082,8.11756098 139.111192,7.332 140.051014,7.332 C140.991123,7.332 141.762945,8.11756098 141.762945,9.0737561 L141.762945,21.7457561 Z" id="Fill-9"></path>
                <path d="M145.520219,5.13629268 L145.062822,5.13629268 L145.062822,5.69970732 L145.507562,5.69970732 C145.725904,5.69970732 145.876644,5.59726829 145.876644,5.4137561 C145.876644,5.23873171 145.742301,5.13629268 145.520219,5.13629268 Z M145.713247,5.87063415 L146.195959,6.50663415 L145.910301,6.50663415 L145.461534,5.90897561 L145.062822,5.90897561 L145.062822,6.50663415 L144.831822,6.50663415 L144.831822,4.92263415 L145.528562,4.92263415 C145.872616,4.92263415 146.115986,5.10643902 146.115986,5.40087805 C146.115986,5.66136585 145.947986,5.81502439 145.713247,5.87063415 Z M145.431904,4.34634146 C144.64311,4.34634146 144.047342,4.98673171 144.047342,5.76380488 C144.047342,6.54087805 144.638795,7.17278049 145.423562,7.17278049 C146.212356,7.17278049 146.808411,6.53239024 146.808411,5.75531707 C146.808411,4.9782439 146.216671,4.34634146 145.431904,4.34634146 Z M145.423562,7.30507317 C144.571767,7.30507317 143.908685,6.60907317 143.908685,5.76380488 C143.908685,4.91853659 144.58011,4.21404878 145.431904,4.21404878 C146.283699,4.21404878 146.946781,4.91004878 146.946781,5.75531707 C146.946781,6.60058537 146.275356,7.30507317 145.423562,7.30507317 Z" id="Fill-10"></path>
            </g>
        </g>
    </g>
</svg>