<?xml version="1.0" encoding="UTF-8"?>
<svg width="154px" height="51px" viewBox="0 0 154 51" version="1.1" xmlns="http://www.w3.org/2000/svg" xmlns:xlink="http://www.w3.org/1999/xlink">
    <!-- Generator: Sketch 48.2 (47327) - http://www.bohemiancoding.com/sketch -->
    <title>protopro-logo-154-51</title>
    <desc>Created with Sketch.</desc>
    <defs></defs>
    <g id="Page-1" stroke="none" stroke-width="1" fill="none" fill-rule="evenodd">
        <g id="protopro-logo-154-51">
            <g id="Page-1" transform="translate(4.000000, 4.000000)">
                <path d="M77.9185673,16.3029689 C75.147756,16.3029689 72.9045421,18.5675467 72.9045421,21.3650578 C72.9045421,24.1295911 75.147756,26.4268356 77.9185673,26.4268356 C80.6896868,26.4268356 82.9329006,24.1295911 82.9329006,21.3650578 C82.9329006,18.5675467 80.6896868,16.3029689 77.9185673,16.3029689" id="Fill-1" fill="#FFFFFF"></path>
                <path d="M96.4608761,16.4363422 C93.6900648,16.4363422 91.4465428,18.7006089 91.4465428,21.49812 L91.4465428,21.5323422 C91.4465428,24.2956311 93.6900648,26.5598978 96.4608761,26.5598978 C99.2316874,26.5598978 101.475209,24.2956311 101.475209,21.49812 C101.475209,18.7348311 99.2316874,16.4363422 96.4608761,16.4363422" id="Fill-3" fill="#FFFFFF"></path>
                <path d="M50.2365874,16.3029689 C47.4654679,16.3029689 45.2222541,18.5675467 45.2222541,21.3650578 C45.2222541,24.1295911 47.4654679,26.4268356 50.2365874,26.4268356 C53.0077069,26.4268356 55.2509208,24.1295911 55.2509208,21.3650578 C55.2509208,18.5675467 53.0077069,16.3029689 50.2365874,16.3029689" id="Fill-5" fill="#FFFFFF"></path>
                <path d="M21.9299654,16.4363422 C19.1588459,16.4363422 16.9156321,18.7006089 16.9156321,21.49812 L16.9156321,21.5323422 C16.9156321,24.2956311 19.1588459,26.5598978 21.9299654,26.5598978 C24.7010849,26.5598978 26.9442987,24.2956311 26.9442987,21.49812 C26.9442987,18.7348311 24.7010849,16.4363422 21.9299654,16.4363422" id="Fill-7" fill="#FFFFFF"></path>
                <path d="M124.767652,29.7244889 C120.216508,29.7244889 116.488501,25.9603556 116.488501,21.3649333 C116.488501,16.7368444 120.216508,13.0069333 124.767652,13.0069333 C129.353621,13.0069333 133.048036,16.7368444 133.048036,21.3649333 C133.048036,25.9603556 129.353621,29.7244889 124.767652,29.7244889 M114.935602,16.3370667 C112.164482,16.3370667 109.921269,18.6016444 109.921269,21.3988444 L109.921269,28.0917778 C109.921269,28.9918222 109.197363,29.7568444 108.305809,29.7568444 C107.382206,29.7568444 106.656143,28.9918222 106.656143,28.0917778 L106.656143,21.3988444 C106.656143,16.7692 110.384765,13.0392889 114.935602,13.0392889 C115.859514,13.0392889 116.586501,13.7722667 116.586501,14.672 C116.586501,15.5704889 115.859514,16.3370667 114.935602,16.3370667 M96.4607528,29.8576444 C94.581495,29.8576444 92.8322874,29.2242222 91.4467277,28.1586667 L91.4467277,36.4513333 C91.4467277,37.3498222 90.720973,38.0824889 89.8312686,38.0824889 C88.9076648,38.0824889 88.180061,37.3498222 88.180061,36.4513333 L88.180061,21.5323111 L88.180061,21.4980889 C88.180061,16.9023556 91.9086836,13.1400889 96.4607528,13.1400889 C101.04703,13.1400889 104.741753,16.9023556 104.741753,21.4980889 C104.741753,26.1277333 101.04703,29.8576444 96.4607528,29.8576444 M77.9184132,29.7244889 C73.366344,29.7244889 69.6395704,25.9603556 69.6395704,21.3649333 C69.6395704,16.7368444 73.366344,13.0069333 77.9184132,13.0069333 C82.5031491,13.0069333 86.1978723,16.7368444 86.1978723,21.3649333 C86.1978723,25.9603556 82.5031491,29.7244889 77.9184132,29.7244889 M68.0530799,16.3370667 L65.711866,16.3370667 L65.711866,28.0917778 C65.711866,28.9918222 64.9861113,29.7568444 64.0625075,29.7568444 C63.1709541,29.7568444 62.4467403,28.9918222 62.4467403,28.0917778 L62.4467403,16.3370667 L60.071627,16.3370667 C59.1800736,16.3370667 58.4543189,15.5704889 58.4543189,14.672 C58.4543189,13.7722667 59.1800736,13.0392889 60.071627,13.0392889 L62.4467403,13.0392889 L62.4467403,6.37902222 C62.4467403,5.48053333 63.1709541,4.74817778 64.0625075,4.74817778 C64.9861113,4.74817778 65.711866,5.48053333 65.711866,6.37902222 L65.711866,13.0392889 L68.0530799,13.0392889 C68.9766836,13.0392889 69.7039792,13.7722667 69.7039792,14.672 C69.7039792,15.5704889 68.9766836,16.3370667 68.0530799,16.3370667 M50.236495,29.7244889 C45.6859667,29.7244889 41.957344,25.9603556 41.957344,21.3649333 C41.957344,16.7368444 45.6859667,13.0069333 50.236495,13.0069333 C54.8227717,13.0069333 58.5171868,16.7368444 58.5171868,21.3649333 C58.5171868,25.9603556 54.8227717,29.7244889 50.236495,29.7244889 M40.4062937,16.3370667 C37.6351742,16.3370667 35.3919604,18.6016444 35.3919604,21.3988444 L35.3919604,28.0917778 C35.3919604,28.9918222 34.6662057,29.7568444 33.7765013,29.7568444 C32.8528975,29.7568444 32.1256019,28.9918222 32.1256019,28.0917778 L32.1256019,21.3988444 C32.1256019,16.7692 35.8539164,13.0392889 40.4062937,13.0392889 C41.3298975,13.0392889 42.0556522,13.7722667 42.0556522,14.672 C42.0556522,15.5704889 41.3298975,16.3370667 40.4062937,16.3370667 M21.9299038,29.8576444 C20.0506459,29.8576444 18.3014384,29.2242222 16.9158786,28.1586667 L16.9158786,36.4513333 C16.9158786,37.3498222 16.1901239,38.0824889 15.3004195,38.0824889 C14.3765075,38.0824889 13.6492119,37.3498222 13.6492119,36.4513333 L13.6492119,21.5323111 L13.6492119,21.4980889 C13.6492119,16.9023556 17.3775264,13.1400889 21.9299038,13.1400889 C26.5161805,13.1400889 30.2105956,16.9023556 30.2105956,21.4980889 C30.2105956,26.1277333 26.5161805,29.8576444 21.9299038,29.8576444 M126.096199,0.3108 L21.2500673,0.3108 C9.56248868,0.3108 9.24528302e-05,9.96457778 9.24528302e-05,21.7634667 L9.24528302e-05,41.9066667 L126.096199,41.9066667 C137.426602,41.9066667 146.697464,32.5475111 146.697464,21.1088889 C146.697464,9.66995556 137.426602,0.3108 126.096199,0.3108" id="Fill-9" fill="#FFFFFF"></path>
                <path d="M124.767652,16.3029689 C121.996533,16.3029689 119.753319,18.5675467 119.753319,21.3650578 C119.753319,24.1295911 121.996533,26.4268356 124.767652,26.4268356 C127.538464,26.4268356 129.781677,24.1295911 129.781677,21.3650578 C129.781677,18.5675467 127.538464,16.3029689 124.767652,16.3029689" id="Fill-12" fill="#FFFFFF"></path>
                <g id="Group-11" transform="translate(0.000000, 0.217778)"></g>
            </g>
        </g>
    </g>
</svg>