<?xml version="1.0" encoding="UTF-8"?>
<svg width="154px" height="51px" viewBox="0 0 154 51" version="1.1" xmlns="http://www.w3.org/2000/svg" xmlns:xlink="http://www.w3.org/1999/xlink">
    <!-- Generator: Sketch 48.2 (47327) - http://www.bohemiancoding.com/sketch -->
    <title>ifit-logo-154-51</title>
    <desc>Created with Sketch.</desc>
    <defs>
        <polygon id="path-1" points="23.5050209 47.4748329 0 47.4748329 0 0.0499965899 23.5050209 0.0499965899"></polygon>
    </defs>
    <g id="Page-1" stroke="none" stroke-width="1" fill="none" fill-rule="evenodd">
        <g id="ifit-logo-154-51">
            <g id="Page-1" transform="translate(60.000000, 2.000000)">
                <polygon id="Fill-1" fill="#FEFEFE" points="0 23.8220598 4.70096071 23.8220598 4.70096071 19.0795104 0 19.0795104"></polygon>
                <g id="Group-8" transform="translate(0.000000, 0.059645)">
                    <g id="Group-4" transform="translate(18.802104, 18.968005)" fill="#FEFEFE">
                        <path d="M9.46138171,14.2793662 L9.46138171,21.3931355 C9.46138171,22.7326275 8.38129322,23.8222462 7.05340822,23.8222462 C5.72574058,23.8222462 4.64543473,22.7326275 4.64543473,21.3931355 L4.64543473,4.79437702 L9.34628675,4.79437702 L9.34628675,0.051937247 L4.64532604,0.051937247 L4.64532604,4.79437702 L0.00196715654,4.79437702 L0.00196715654,21.3931355 C0.00196715654,25.3219246 3.15898169,28.5069048 7.05340822,28.5069048 C10.9478347,28.5069048 14.104958,25.3219246 14.104958,21.3931355 L14.104958,14.2793662 L9.46138171,14.2793662 Z" id="Fill-2"></path>
                    </g>
                    <g id="Group-7">
                        <mask id="mask-2" fill="white">
                            <use xlink:href="#path-1"></use>
                        </mask>
                        <g id="Clip-6"></g>
                        <path d="M14.1029908,7.163733 C14.1029908,5.824241 15.1258035,4.73451268 16.4534712,4.73451268 C17.7813562,4.73451268 18.8615533,5.824241 18.8615533,7.163733 L18.8615533,14.2773927 L23.5050209,14.2773927 L23.5050209,7.163733 C23.5050209,3.23494388 20.3478977,0.0499636974 16.4534712,0.0499636974 C12.5591533,0.0499636974 9.4020301,3.23494388 9.4020301,7.163733 L9.4020301,37.9898108 L9.45952324,37.9898108 L9.45952324,40.3611403 C9.45952324,41.7006323 8.37921738,42.790251 7.05154974,42.790251 C5.72377342,42.790251 4.64346757,41.7006323 4.64346757,40.3611403 L4.64346757,28.5049313 L0,28.5049313 L0,40.3611403 C0,44.2899295 3.15701453,47.4749096 7.05154974,47.4749096 C10.9459763,47.4749096 14.1029908,44.2899295 14.1029908,40.3611403 L14.1029908,28.5049313 L14.1029908,23.7623818 L18.8039515,23.7623818 L18.8039515,19.0199421 L14.1029908,19.0199421 L14.1029908,7.163733 Z" id="Fill-5" fill="#FEFEFE" mask="url(#mask-2)"></path>
                    </g>
                </g>
            </g>
        </g>
    </g>
</svg>