<?xml version="1.0" encoding="UTF-8"?>
<svg width="24px" height="24px" viewBox="0 0 24 24" version="1.1" xmlns="http://www.w3.org/2000/svg" xmlns:xlink="http://www.w3.org/1999/xlink">
    <!-- Generator: Sketch 49 (51002) - http://www.bohemiancoding.com/sketch -->
    <title>personaworkshop-icon</title>
    <desc>Created with Sketch.</desc>
    <defs></defs>
    <g id="personaworkshop-icon" stroke="none" stroke-width="1" fill="none" fill-rule="evenodd">
        <path d="M10.2020183,11.5779663 C9.84219381,11.8412917 9.43106766,12 9,12 C8.59383267,12 8.20536958,11.8590975 7.86084426,11.6225411 L6.78149199,12.1724985 C6.53544733,12.2978645 6.23435949,12.2000352 6.10899348,11.9539905 C5.98362746,11.7079458 6.08145683,11.406858 6.32750149,11.281492 L7.11998901,10.8776994 C6.7362985,10.333264 6.5,9.65624787 6.5,9 C6.5,7.61928813 7.61928813,6.5 9,6.5 C10.3807119,6.5 11.5,7.61928813 11.5,9 C11.5,9.64198277 11.2738629,10.3038408 10.9048224,10.8420093 L11.6916548,11.3529842 C11.9232473,11.5033822 11.9890685,11.8130466 11.8386706,12.044639 C11.6882727,12.2762315 11.3786082,12.3420527 11.1470158,12.1916548 L10.2020183,11.5779663 Z M5,4 L19,4 C20.1045695,4 21,4.8954305 21,6 L21,18 C21,19.1045695 20.1045695,20 19,20 L5,20 C3.8954305,20 3,19.1045695 3,18 L3,6 C3,4.8954305 3.8954305,4 5,4 Z M5,5 C4.44771525,5 4,5.44771525 4,6 L4,18 C4,18.5522847 4.44771525,19 5,19 L19,19 C19.5522847,19 20,18.5522847 20,18 L20,6 C20,5.44771525 19.5522847,5 19,5 L5,5 Z M11,14 L18,14 L18,15 L11,15 L11,14 Z M6,16 L18,16 L18,17 L6,17 L6,16 Z M6,14 L8,14 L8,15 L6,15 L6,14 Z M9,14 L10,14 L10,15 L9,15 L9,14 Z M14,12 L18,12 L18,13 L14,13 L14,12 Z M9,11 C9.71994264,11 10.5,9.95053283 10.5,9 C10.5,8.17157288 9.82842712,7.5 9,7.5 C8.17157288,7.5 7.5,8.17157288 7.5,9 C7.5,9.95053283 8.28005736,11 9,11 Z" id="Combined-Shape" fill="#AFAFAF" fill-rule="nonzero"></path>
    </g>
</svg>