<?xml version="1.0" encoding="UTF-8"?>
<svg width="24px" height="24px" viewBox="0 0 24 24" version="1.1" xmlns="http://www.w3.org/2000/svg" xmlns:xlink="http://www.w3.org/1999/xlink">
    <!-- Generator: Sketch 49 (51002) - http://www.bohemiancoding.com/sketch -->
    <title>positionering-icon</title>
    <desc>Created with Sketch.</desc>
    <defs></defs>
    <g id="positionering-icon" stroke="none" stroke-width="1" fill="none" fill-rule="evenodd">
        <path d="M14.5166704,15.5 C14.1143663,16.0716873 13.6714778,16.6709342 13.1880679,17.2981357 C13.1093596,17.400256 13.0178134,17.4918023 12.9156931,17.5705106 C12.2595429,18.0762325 11.3176595,17.9542871 10.8119333,17.2981373 C10.3285229,16.6709352 9.88563401,16.0716878 9.48332964,15.5 C9.24178745,15.1567606 9.014875,14.8234557 8.80260594,14.5 C7.26924903,12.1634698 6.5,10.340877 6.5,9 C6.5,5.96243388 8.96243388,3.5 12,3.5 C15.0375661,3.5 17.5,5.96243388 17.5,9 C17.5,10.340877 16.730751,12.1634698 15.1973941,14.5 C14.985125,14.8234557 14.7582126,15.1567606 14.5166704,15.5 Z M13.2864492,15.5 C13.5364822,15.1562642 13.7718833,14.8229006 13.992667,14.5 C15.6663243,12.0522425 16.5,10.2057354 16.5,9 C16.5,6.51471863 14.4852814,4.5 12,4.5 C9.51471863,4.5 7.5,6.51471863 7.5,9 C7.5,10.2057355 8.33367592,12.0522429 10.007333,14.5 C10.2281166,14.8229006 10.4635177,15.1562642 10.7135507,15.5 C10.9921824,15.8830523 11.2889847,16.2789853 11.6039774,16.6876735 C11.772553,16.9063902 12.0865147,16.9470388 12.3052311,16.7784651 C12.339271,16.7522291 12.3697864,16.7217137 12.3960224,16.6876737 C12.7110152,16.2789855 13.0078175,15.8830524 13.2864492,15.5 Z M15.5166704,15.5 C15.7582126,15.1567606 15.985125,14.8234557 16.1973941,14.5 L17.2792408,14.5 C17.7096712,14.5 18.09181,14.7754301 18.2279241,15.1837722 L19.5612574,19.1837722 C19.7359052,19.7077156 19.4527452,20.2740355 18.9288019,20.4486833 C18.8268354,20.4826721 18.7200562,20.5 18.6125741,20.5 L5.38742589,20.5 C4.83514114,20.5 4.38742589,20.0522847 4.38742589,19.5 C4.38742589,19.3925179 4.40475377,19.2857387 4.43874259,19.1837722 L5.77207592,15.1837722 C5.90818997,14.7754301 6.29032881,14.5 6.72075922,14.5 L7.80260594,14.5 C8.014875,14.8234557 8.24178745,15.1567606 8.48332964,15.5 L6.72075922,15.5 L5.38742589,19.5 L18.6125741,19.5 L17.2792408,15.5 L14.5166704,15.5 L15.5166704,15.5 Z M12,10.5 C10.8954305,10.5 10,9.6045695 10,8.5 C10,7.3954305 10.8954305,6.5 12,6.5 C13.1045695,6.5 14,7.3954305 14,8.5 C14,9.6045695 13.1045695,10.5 12,10.5 Z M12,9.5 C12.5522847,9.5 13,9.05228475 13,8.5 C13,7.94771525 12.5522847,7.5 12,7.5 C11.4477153,7.5 11,7.94771525 11,8.5 C11,9.05228475 11.4477153,9.5 12,9.5 Z" id="Combined-Shape" fill="#AFAFAF"></path>
    </g>
</svg>