<?xml version="1.0" encoding="UTF-8"?>
<svg width="27px" height="42px" viewBox="0 0 27 42" version="1.1" xmlns="http://www.w3.org/2000/svg" xmlns:xlink="http://www.w3.org/1999/xlink">
    <!-- Generator: Sketch 48.2 (47327) - http://www.bohemiancoding.com/sketch -->
    <title>Group</title>
    <desc>Created with Sketch.</desc>
    <defs></defs>
    <g id="PTCHR-Werk-v1.2" stroke="none" stroke-width="1" fill="none" fill-rule="evenodd" transform="translate(-27.000000, -37.000000)">
        <g id="Group-4" fill="#000000">
            <g id="Group" transform="translate(27.000000, 37.000000)">
                <g id="Group-11">
                    <path d="M23.0262151,4.05075878 C25.5300909,6.64702608 26.8401379,10.0562502 26.7145809,13.6498831 C26.5947311,17.1001447 25.1404493,20.3218433 22.6210085,22.7201959 C20.112982,25.1081593 16.8235968,26.4229157 13.3598846,26.4229157 L12.526124,26.4229157 L12.526124,26.41876 C11.7805647,26.4203184 10.3366595,26.424474 9.27513231,26.424474 C8.90416853,26.424474 8.57938065,26.4239546 8.34746343,26.4229157 C8.20270973,26.4218767 8.08078457,26.4213573 7.97805614,26.4125264 L7.97805614,26.4172016 C4.35765712,26.4172016 3.03982772,28.2483025 3.0138862,29.9620051 L3.00610374,37.0173277 C3.00610374,38.0656005 3.83052536,38.9507625 4.84380127,38.9886832 C4.86870513,38.9897221 4.89360899,38.9902415 4.91799403,38.9902415 C5.97225754,38.9902415 6.82988431,38.1315721 6.82988431,37.0760269 L6.82988431,29.5521502 C6.82988431,28.7225706 7.50436392,28.047271 8.33345501,28.047271 C9.16150844,28.047271 9.83598805,28.7225706 9.83598805,29.5521502 L9.83598805,36.9981077 C9.83598805,38.3128641 9.32494004,39.5611295 8.3962335,40.5127825 C7.46026333,41.4717079 6.22440915,42 4.91695637,42 L4.90191028,42 C3.57526077,41.9958443 2.3378501,41.4800193 1.41692601,40.5470669 C0.503265556,39.6219064 0,38.3892249 0,37.0760269 L0.0134895922,29.9874587 C0.0705609439,27.4478127 1.0931758,25.6032058 3.05176083,24.4962339 C4.63626908,23.6012022 6.45476988,23.4131572 7.70100067,23.4131572 L13.3780437,23.4131572 C19.029664,23.4131572 23.6669707,18.865274 23.7167784,13.2743126 C23.7406447,10.5544136 22.6946824,7.98671663 20.7724155,6.0449705 C18.8345837,4.08764053 16.2518456,3.00975845 13.4999688,3.00975845 L4.91799403,3.00975845 C3.86373051,3.00975845 3.00610374,3.86842789 3.00610374,4.9244926 L3.00610374,21.8667211 C3.00610374,22.6963007 2.33162413,23.469259 1.50305187,23.469259 C0.673960781,23.469259 0,22.6963007 0,21.8667211 L0,4.9244926 C0,3.6081778 0.504822047,2.37341843 1.42159549,1.44773849 C2.34667022,0.514266632 3.5877127,0 4.91799403,0 L13.4999688,0 C17.1234808,0 20.5067743,1.43838819 23.0262151,4.05075878 Z" id="Fill-2"></path>
                </g>
            </g>
        </g>
    </g>
</svg>