<?xml version="1.0" encoding="UTF-8"?>
<svg width="24px" height="24px" viewBox="0 0 24 24" version="1.1" xmlns="http://www.w3.org/2000/svg" xmlns:xlink="http://www.w3.org/1999/xlink">
    <!-- Generator: Sketch 49 (51002) - http://www.bohemiancoding.com/sketch -->
    <title>ab-icon</title>
    <desc>Created with Sketch.</desc>
    <defs></defs>
    <g id="ab-icon" stroke="none" stroke-width="1" fill="none" fill-rule="evenodd">
        <path d="M6.5,11.0714286 L7.57142857,10 L8,10.4285714 L6.92857143,11.5 L8,12.5714286 L7.57142857,13 L6.5,11.9285714 L5.42857143,13 L5,12.5714286 L6.07142857,11.5 L5,10.4285714 L5.42857143,10 L6.5,11.0714286 Z M21,15 L21,7 L14,7 L14,15 L21,15 Z M21,16 L14,16 L14,18 C14,18.5522847 14.4477153,19 15,19 L20,19 C20.5522847,19 21,18.5522847 21,18 L21,16 Z M21,6 C21,5.44771525 20.5522847,5 20,5 L15,5 C14.4477153,5 14,5.44771525 14,6 L21,6 Z M10,15 L10,7 L3,7 L3,15 L10,15 Z M10,16 L3,16 L3,18 C3,18.5522847 3.44771525,19 4,19 L9,19 C9.55228475,19 10,18.5522847 10,18 L10,16 Z M10,6 C10,5.44771525 9.55228475,5 9,5 L4,5 C3.44771525,5 3,5.44771525 3,6 L10,6 Z M4,4 L9,4 C10.1045695,4 11,4.8954305 11,6 L11,18 C11,19.1045695 10.1045695,20 9,20 L4,20 C2.8954305,20 2,19.1045695 2,18 L2,6 C2,4.8954305 2.8954305,4 4,4 Z M15,4 L20,4 C21.1045695,4 22,4.8954305 22,6 L22,18 C22,19.1045695 21.1045695,20 20,20 L15,20 C13.8954305,20 13,19.1045695 13,18 L13,6 C13,4.8954305 13.8954305,4 15,4 Z M6.5,18 C6.22385763,18 6,17.7761424 6,17.5 C6,17.2238576 6.22385763,17 6.5,17 C6.77614237,17 7,17.2238576 7,17.5 C7,17.7761424 6.77614237,18 6.5,18 Z M17.5,18 C17.2238576,18 17,17.7761424 17,17.5 C17,17.2238576 17.2238576,17 17.5,17 C17.7761424,17 18,17.2238576 18,17.5 C18,17.7761424 17.7761424,18 17.5,18 Z M18.748691,9.97013456 L19.2931632,10.5146068 L16.8996068,12.9081632 L15.9202639,11.9288203 L16.4647361,11.3843481 L16.8996068,11.8192188 L18.748691,9.97013456 Z" id="Combined-Shape" fill="#AFAFAF" fill-rule="nonzero"></path>
    </g>
</svg>