<?xml version="1.0" encoding="UTF-8"?>
<svg width="24px" height="24px" viewBox="0 0 24 24" version="1.1" xmlns="http://www.w3.org/2000/svg" xmlns:xlink="http://www.w3.org/1999/xlink">
    <!-- Generator: Sketch 49 (51002) - http://www.bohemiancoding.com/sketch -->
    <title>campagnes-icon</title>
    <desc>Created with Sketch.</desc>
    <defs></defs>
    <g id="campagnes-icon" stroke="none" stroke-width="1" fill="none" fill-rule="evenodd">
        <path d="M10.4563247,6.97130953 C10.0115658,7.08020587 9.57576852,7.14346203 8.74276938,7.23744052 C7.89136596,7.33349537 7.75898981,7.34931373 7.40240481,7.40281924 C4.98421051,7.76566886 4,8.50896129 4,10.5 C4,12.4281472 5.00973947,13.2424039 7.26330647,13.6224621 C7.75559066,13.7054846 7.93131555,13.725291 9.09767565,13.8425369 C9.72093203,13.9051884 10.0760742,13.9503939 10.4182631,14.0201546 C11.5455975,14.2499798 12.7386849,14.6810312 14,15.3107578 L14,5.6736728 C12.819062,6.24911616 11.637757,6.68204349 10.4563247,6.97130953 Z M10.2185059,6 C11.8046061,5.61165365 13.3984375,4.94498698 15,4 L15,17 C13.2605794,15.9619141 11.666748,15.2952474 10.2185059,15 C8.04614258,14.5571289 3,15.076416 3,10.5 C3,5.92358398 7.83935547,6.58251953 10.2185059,6 Z M6.71683584,14 L7,14.1975098 L7,18 C7,18.2761424 7.22385763,18.5 7.5,18.5 C7.77614237,18.5 8,18.2761424 8,18 L8,16.0925293 C8,15.8163869 8.22385763,15.5925293 8.5,15.5925293 C8.77614237,15.5925293 9,15.8163869 9,16.0925293 L9,18 C9,18.8284271 8.32842712,19.5 7.5,19.5 C6.67157288,19.5 6,18.8284271 6,18 L6,14 L6,7 L7,7 L7,14 L6.71683584,14 Z M14,9.5 L14,8.5 L15.5,8.5 C16.6045695,8.5 17.5,9.3954305 17.5,10.5 C17.5,11.6045695 16.6045695,12.5 15.5,12.5 L14,12.5 L14,11.5 L15.5,11.5 C16.0522847,11.5 16.5,11.0522847 16.5,10.5 C16.5,9.94771525 16.0522847,9.5 15.5,9.5 L14,9.5 Z M18.5,10 L20.5,10 C20.7761424,10 21,10.2238576 21,10.5 C21,10.7761424 20.7761424,11 20.5,11 L18.5,11 C18.2238576,11 18,10.7761424 18,10.5 C18,10.2238576 18.2238576,10 18.5,10 Z M17.5857864,7.20710678 L19.7071068,5.08578644 C19.9023689,4.89052429 20.2189514,4.89052429 20.4142136,5.08578644 C20.6094757,5.28104858 20.6094757,5.59763107 20.4142136,5.79289322 L18.2928932,7.91421356 C18.0976311,8.10947571 17.7810486,8.10947571 17.5857864,7.91421356 C17.3905243,7.71895142 17.3905243,7.40236893 17.5857864,7.20710678 Z M20.5490381,14.8169873 C20.7881844,14.9550585 20.870122,15.2608537 20.7320508,15.5 C20.5939796,15.7391463 20.2881844,15.8210839 20.0490381,15.6830127 L17.4509619,14.1830127 C17.2118156,14.0449415 17.129878,13.7391463 17.2679492,13.5 C17.4060204,13.2608537 17.7118156,13.1789161 17.9509619,13.3169873 L20.5490381,14.8169873 Z" id="Combined-Shape" fill="#AFAFAF" fill-rule="nonzero"></path>
    </g>
</svg>