<?xml version="1.0" encoding="UTF-8"?>
<svg width="24px" height="24px" viewBox="0 0 24 24" version="1.1" xmlns="http://www.w3.org/2000/svg" xmlns:xlink="http://www.w3.org/1999/xlink">
    <!-- Generator: Sketch 49 (51002) - http://www.bohemiancoding.com/sketch -->
    <title>cardsorting-icon</title>
    <desc>Created with Sketch.</desc>
    <defs></defs>
    <g id="cardsorting-icon" stroke="none" stroke-width="1" fill="none" fill-rule="evenodd">
        <path d="M8.99224767,17.5397069 L8.96891109,17.580127 L15.0310889,21.080127 L20.0310889,12.419873 L16.580107,10.4274476 L16.8480561,9.42744762 L20.5310889,11.5538476 C21.0093815,11.82999 21.1732567,12.4415804 20.8971143,12.919873 L15.8971143,21.580127 C15.6209719,22.0584196 15.0093815,22.2222948 14.5310889,21.9461524 L8.46891109,18.4461524 C8.05455714,18.2069251 7.87617616,17.7159411 8.01543077,17.2779696 L8.99224767,17.5397069 Z" id="Rectangle-5-Copy-2---Rectangle-5---Rectangle-5-Copy-1" fill="#AFAFAF"></path>
        <path d="M16.580107,10.4274476 L14.552571,17.9943148 C14.4096292,18.5277809 13.8612922,18.8443634 13.3278261,18.7014216 L8.99224767,17.5397069 L8.01543077,17.2779696 L6.56634534,16.8896883 C6.03287923,16.7467465 5.71629674,16.1984095 5.85923856,15.6649434 L6.03740961,15 L7.07268579,15 L6.82516438,15.9237625 L8.50988576,16.3751822 L9.50988576,16.6431314 L13.5866452,17.7354958 L15.6835315,9.90980953 L15.9514807,8.90980953 L16.1748356,8.07623753 L14,7.49349208 L14,6.4582159 L16.4336547,7.1103117 C16.9671208,7.25325351 17.2837033,7.80159047 17.1407614,8.33505657 L16.8480561,9.42744762 L16.580107,10.4274476 Z" id="Combined-Shape" fill="#AFAFAF"></path>
        <path d="M9.30384758,15 L7.07268579,15 L6.03740961,15 L6,15 C5.44771525,15 5,14.5522847 5,14 L5,4 C5,3.44771525 5.44771525,3 6,3 L13,3 C13.5522847,3 14,3.44771525 14,4 L14,6.4582159 L14,7.49349208 L14,7.92016148 L14,8.93782217 L14,14 C14,14.5522847 13.5522847,15 13,15 L10.4585481,15 L9.30384758,15 Z M9.88119785,14 L11.0358984,14 L13,14 L13,10.5980762 L13,8.59807621 L13,7.22554289 L13,6.19026671 L13,4 L6,4 L6,14 L6.3053588,14 L7.34063498,14 L9.88119785,14 Z" id="Combined-Shape" fill="#AFAFAF"></path>
    </g>
</svg>