<?xml version="1.0" encoding="UTF-8"?>
<svg width="24px" height="24px" viewBox="0 0 24 24" version="1.1" xmlns="http://www.w3.org/2000/svg" xmlns:xlink="http://www.w3.org/1999/xlink">
    <!-- Generator: Sketch 49 (51002) - http://www.bohemiancoding.com/sketch -->
    <title>development-icon</title>
    <desc>Created with Sketch.</desc>
    <defs></defs>
    <g id="development-icon" stroke="none" stroke-width="1" fill="none" fill-rule="evenodd">
        <path d="M5,4 L19,4 C20.1045695,4 21,4.8954305 21,6 L21,18 C21,19.1045695 20.1045695,20 19,20 L5,20 C3.8954305,20 3,19.1045695 3,18 L3,6 C3,4.8954305 3.8954305,4 5,4 Z M5,5 C4.44771525,5 4,5.44771525 4,6 L4,18 C4,18.5522847 4.44771525,19 5,19 L19,19 C19.5522847,19 20,18.5522847 20,18 L20,6 C20,5.44771525 19.5522847,5 19,5 L5,5 Z M14.6830127,7.3169873 C14.922159,7.45505849 15.0040966,7.76085369 14.8660254,8 L9.8660254,16.660254 C9.72795422,16.8994003 9.42215901,16.9813379 9.1830127,16.8432667 C8.94386639,16.7051956 8.86192881,16.3994003 9,16.160254 L14,7.5 C14.1380712,7.26085369 14.4438664,7.17891611 14.6830127,7.3169873 Z M7.18933983,9.75 L8.60355339,11.1642136 C8.79881554,11.3594757 8.79881554,11.6760582 8.60355339,11.8713203 C8.40829124,12.0665825 8.09170876,12.0665825 7.89644661,11.8713203 L5.77512627,9.75 L7.89644661,7.62867966 C8.09170876,7.43341751 8.40829124,7.43341751 8.60355339,7.62867966 C8.79881554,7.8239418 8.79881554,8.14052429 8.60355339,8.33578644 L7.18933983,9.75 Z M17.3106602,13.75 L15.8964466,12.3357864 C15.7011845,12.1405243 15.7011845,11.8239418 15.8964466,11.6286797 C16.0917088,11.4334175 16.4082912,11.4334175 16.6035534,11.6286797 L18.7248737,13.75 L16.6035534,15.8713203 C16.4082912,16.0665825 16.0917088,16.0665825 15.8964466,15.8713203 C15.7011845,15.6760582 15.7011845,15.3594757 15.8964466,15.1642136 L17.3106602,13.75 Z" id="Combined-Shape" fill="#AFAFAF" fill-rule="nonzero"></path>
    </g>
</svg>