<?xml version="1.0" encoding="UTF-8"?>
<svg width="24px" height="24px" viewBox="0 0 24 24" version="1.1" xmlns="http://www.w3.org/2000/svg" xmlns:xlink="http://www.w3.org/1999/xlink">
    <!-- Generator: Sketch 49 (51002) - http://www.bohemiancoding.com/sketch -->
    <title>emailmarketing-icon</title>
    <desc>Created with Sketch.</desc>
    <defs></defs>
    <g id="emailmarketing-icon" stroke="none" stroke-width="1" fill="none" fill-rule="evenodd">
        <path d="M21,8 L22,8 L22,14 C22,15.3650744 21.0272067,16.5 19.7857143,16.5 L11.2142857,16.5 C9.97279334,16.5 9,15.3650744 9,14 L9,8 L10,8 L10,14 C10,14.8440646 10.5622304,15.5 11.2142857,15.5 L19.7857143,15.5 C20.4377696,15.5 21,14.8440646 21,14 L21,8 Z M14.9187618,11.3559263 C15.2664593,11.6042816 15.7335407,11.6042816 16.0812382,11.3559263 L19.3795349,9 L11.6204651,9 L14.9187618,11.3559263 Z M9.43613952,8 L21.5638605,8 C21.7295459,8 21.8638605,8.13431458 21.8638605,8.3 C21.8638605,8.39688533 21.8170708,8.48780659 21.7382319,8.54412004 L16.6624764,12.1696597 C15.9670813,12.6663705 15.0329187,12.6663705 14.3375236,12.1696597 L9.26176806,8.54412004 C9.12694428,8.44781734 9.09571678,8.26045232 9.19201947,8.12562854 C9.24833293,8.04678971 9.33925419,8 9.43613952,8 Z M5.5,11 L7.5,11 C7.77614237,11 8,11.2238576 8,11.5 C8,11.7761424 7.77614237,12 7.5,12 L5.5,12 C5.22385763,12 5,11.7761424 5,11.5 C5,11.2238576 5.22385763,11 5.5,11 Z M3.5,13 L7.5,13 C7.77614237,13 8,13.2238576 8,13.5 C8,13.7761424 7.77614237,14 7.5,14 L3.5,14 C3.22385763,14 3,13.7761424 3,13.5 C3,13.2238576 3.22385763,13 3.5,13 Z M2.5,9 L7.5,9 C7.77614237,9 8,9.22385763 8,9.5 C8,9.77614237 7.77614237,10 7.5,10 L2.5,10 C2.22385763,10 2,9.77614237 2,9.5 C2,9.22385763 2.22385763,9 2.5,9 Z" id="Combined-Shape" fill="#AFAFAF" fill-rule="nonzero"></path>
    </g>
</svg>