<?xml version="1.0" encoding="UTF-8"?>
<svg width="24px" height="24px" viewBox="0 0 24 24" version="1.1" xmlns="http://www.w3.org/2000/svg" xmlns:xlink="http://www.w3.org/1999/xlink">
    <!-- Generator: Sketch 49 (51002) - http://www.bohemiancoding.com/sketch -->
    <title>expertreview-icon</title>
    <desc>Created with Sketch.</desc>
    <defs></defs>
    <g id="expertreview-icon" stroke="none" stroke-width="1" fill="none" fill-rule="evenodd">
        <path d="M7.5,16.5 C5.89137014,16.5 4.5,14.4624134 4.5,12.625 C4.5,10.9044192 5.83754209,9.5 7.5,9.5 C9.16245791,9.5 10.5,10.9044192 10.5,12.625 C10.5,14.4624134 9.10862986,16.5 7.5,16.5 Z M7.5,15.5 C8.45741944,15.5 9.5,13.9731969 9.5,12.625 C9.5,11.4460859 8.59896584,10.5 7.5,10.5 C6.40103416,10.5 5.5,11.4460859 5.5,12.625 C5.5,13.9731969 6.54258056,15.5 7.5,15.5 Z M8.5,8.69817285 L7.5,8.69817285 L7.5,4 C7.5,3.17157288 8.17157288,2.5 9,2.5 L21,2.5 C21.8284271,2.5 22.5,3.17157288 22.5,4 L22.5,12 C22.5,12.8284271 21.8284271,13.5 21,13.5 L19.1775671,13.5 C19.0317862,13.5 18.8932652,13.5636234 18.7982772,13.6742098 L16.5160767,16.3311823 C16.1562189,16.7501343 15.5248687,16.7980395 15.1059168,16.4381816 C14.8897674,16.2525207 14.7630849,15.9834687 14.7576772,15.6985805 L14.7252547,13.9905107 C14.7200841,13.7181162 14.4977884,13.5 14.2253448,13.5 L12,13.5 L12,12.5 L14.2253448,12.5 C15.0426756,12.5 15.7095629,13.1543486 15.7250746,13.9715322 L15.7574971,15.679602 L18.0396976,13.0226295 C18.3246614,12.6908703 18.7402244,12.5 19.1775671,12.5 L21,12.5 C21.2761424,12.5 21.5,12.2761424 21.5,12 L21.5,4 C21.5,3.72385763 21.2761424,3.5 21,3.5 L9,3.5 C8.72385763,3.5 8.5,3.72385763 8.5,4 L8.5,8.69817285 Z M11.4873854,16.0180099 C12.2659358,15.7349006 13.1265809,16.136535 13.4096901,16.9150854 C13.4694367,17.0793883 13.5,17.2528712 13.5,17.4277 L13.5,20 L12.5,20 L12.5,17.4277 C12.5,17.3694237 12.4898122,17.3115961 12.4698967,17.2568285 C12.375527,16.9973117 12.0886453,16.8634335 11.8291285,16.9578033 L7.5,18.5320318 L3.17087153,16.9578033 C3.11610389,16.9378878 3.05827626,16.9277 3,16.9277 C2.72385763,16.9277 2.5,17.1515576 2.5,17.4277 L2.5,20 L1.5,20 L1.5,17.4277 C1.5,16.5992729 2.17157288,15.9277 3,15.9277 C3.17482878,15.9277 3.34831166,15.9582633 3.51261459,16.0180099 L7.5,17.4679682 L11.4873854,16.0180099 Z M10.35,5.69999999 C10.1567003,5.69999999 10,5.54329965 10,5.34999999 C10,5.15670033 10.1567003,5 10.35,5 C10.5432997,5 10.7,5.15670033 10.7,5.34999999 C10.7,5.54329965 10.5432997,5.69999999 10.35,5.69999999 Z M11.35,5.69999999 C11.1567003,5.69999999 11,5.54329965 11,5.34999999 C11,5.15670033 11.1567003,5 11.35,5 C11.5432997,5 11.7,5.15670033 11.7,5.34999999 C11.7,5.54329965 11.5432997,5.69999999 11.35,5.69999999 Z M12.35,5.69999999 C12.1567003,5.69999999 12,5.54329965 12,5.34999999 C12,5.15670033 12.1567003,5 12.35,5 C12.5432997,5 12.7,5.15670033 12.7,5.34999999 C12.7,5.54329965 12.5432997,5.69999999 12.35,5.69999999 Z M10.35,7 L19.65,7 C19.8432997,7 20,7.15670033 20,7.34999999 C20,7.54329965 19.8432997,7.69999999 19.65,7.69999999 L10.35,7.69999999 C10.1567003,7.69999999 10,7.54329965 10,7.34999999 C10,7.15670033 10.1567003,7 10.35,7 Z" id="Combined-Shape" fill="#AFAFAF" fill-rule="nonzero"></path>
    </g>
</svg>