<?xml version="1.0" encoding="UTF-8"?>
<svg width="24px" height="24px" viewBox="0 0 24 24" version="1.1" xmlns="http://www.w3.org/2000/svg" xmlns:xlink="http://www.w3.org/1999/xlink">
    <!-- Generator: Sketch 49 (51002) - http://www.bohemiancoding.com/sketch -->
    <title>googlesem-icon</title>
    <desc>Created with Sketch.</desc>
    <defs></defs>
    <g id="googlesem-icon" stroke="none" stroke-width="1" fill="none" fill-rule="evenodd">
        <path d="M11.9874208,6.24680459 C12.1335937,6.36680004 12.2734704,6.49418323 12.4064805,6.62838351 C13.3915585,7.62227659 14,8.99008373 14,10.5 C14,11.0483968 13.9197393,11.5780477 13.7703237,12.077847 C13.7365281,12.1908942 13.6991945,12.3024142 13.6584515,12.4122785 C14.3146836,12.7863136 15.0741626,13 15.8835507,13 C18.1998276,13 20.1073642,11.2499752 20.3560863,9 L16.4606381,9 L16.4606381,8 L21.3835507,8 L21.3835507,8.5 C21.3835507,11.5375661 18.9211169,14 15.8835507,14 C14.9194197,14 14.01323,13.7519237 13.2253309,13.3161205 C12.8276981,13.9818969 12.2933526,14.5565851 11.6610546,15.001425 L14.7076206,20.278232 C14.8880228,20.5906978 14.7809641,20.9902462 14.4684984,21.1706484 C14.1560327,21.3510505 13.7564843,21.2439919 13.5760821,20.9315261 L10.5101068,15.6211011 C9.88747,15.8656863 9.20942032,16 8.5,16 C5.46243388,16 3,13.5375661 3,10.5 C3,7.46243388 5.46243388,5 8.5,5 C9.46413101,5 10.3703207,5.24807626 11.1582198,5.68387947 C12.1182472,4.07645782 13.8751889,3 15.8835507,3 C17.3002257,3 18.6337962,3.5384948 19.6462273,4.4884616 L18.9619747,5.21770667 C18.1331338,4.44000305 17.0434759,4 15.8835507,4 C14.2192348,4 12.7659458,4.90351387 11.9874208,6.24680459 Z M11.2296763,6.92215305 C10.4725632,6.34364279 9.52641262,6 8.5,6 C6.01471863,6 4,8.01471863 4,10.5 C4,12.9852814 6.01471863,15 8.5,15 C10.3174428,15 11.8832408,13.9225807 12.5935195,12.3716165 C12.7546521,12.0197676 12.8717556,11.6435479 12.9377799,11.2500077 C12.9787005,11.006099 13,10.7555369 13,10.5 C13,9.46437899 12.6501636,8.51046665 12.0622201,7.74999225 C11.8219336,7.43919412 11.5418767,7.16070542 11.2296763,6.92215305 Z M7.34159126,7.44381378 L7.60041031,8.40973961 C6.5334781,8.69562323 5.90031312,9.79229714 6.18619674,10.8592294 L5.22027092,11.1180484 C4.79144548,9.51765009 5.74119295,7.87263922 7.34159126,7.44381378 Z" id="Combined-Shape" fill="#AFAFAF"></path>
    </g>
</svg>