<?xml version="1.0" encoding="UTF-8"?>
<svg width="24px" height="24px" viewBox="0 0 24 24" version="1.1" xmlns="http://www.w3.org/2000/svg" xmlns:xlink="http://www.w3.org/1999/xlink">
    <!-- Generator: Sketch 49 (51002) - http://www.bohemiancoding.com/sketch -->
    <title>logohuisstijl-icon</title>
    <desc>Created with Sketch.</desc>
    <defs></defs>
    <g id="logohuisstijl-icon" stroke="none" stroke-width="1" fill="none" fill-rule="evenodd">
        <path d="M4.50903456,5.87138139 C4.20515865,5.69979922 4,5.3738583 4,5 C4,4.44771525 4.44771525,4 5,4 C5.55228475,4 6,4.44771525 6,5 C6,5.36607062 5.80329946,5.68619938 5.50982568,5.86045897 C5.66903702,8.77333275 7.74611174,11.1755524 10.5,11.8260682 L10.5,12.5 L9.30179635,12.5 C6.60243174,11.4588237 4.65677873,8.9012184 4.50903456,5.87138139 Z M13.5,11.8260682 C16.3667,11.1489044 18.5,8.57358164 18.5,5.5 L19.5,5.5 C19.5,8.69099459 17.5071865,11.4165426 14.6982037,12.5 L13.5,12.5 L13.5,11.8260682 Z M11.5,12.9835977 L11.5,13.5 L12.5,13.5 L12.5,12.9835977 C13.2702973,12.9328964 14.0088294,12.7658997 14.6982037,12.5 L18.5853529,12.5 C18.7912711,11.9174038 19.3468906,11.5 20,11.5 C20.8284271,11.5 21.5,12.1715729 21.5,13 C21.5,13.8284271 20.8284271,14.5 20,14.5 C19.3468906,14.5 18.7912711,14.0825962 18.5853529,13.5 L13.5,13.5 L13.5,14.5 L10.5,14.5 L10.5,13.5 L5.41464715,13.5 C5.20872894,14.0825962 4.65310941,14.5 4,14.5 C3.17157288,14.5 2.5,13.8284271 2.5,13 C2.5,12.1715729 3.17157288,11.5 4,11.5 C4.65310941,11.5 5.20872894,11.9174038 5.41464715,12.5 L9.30179635,12.5 C9.99117063,12.7658997 10.7297027,12.9328964 11.5,12.9835977 Z M13.5,11.8260682 L13.5,12.5 L14.6982037,12.5 C14.0088294,12.7658997 13.2702973,12.9328964 12.5,12.9835977 L12.5,12.5 L11.5,12.5 L11.5,12.9835977 C10.7297027,12.9328964 9.99117063,12.7658997 9.30179635,12.5 L10.5,12.5 L10.5,11.8260682 L10.5,11.5 L13.5,11.5 L13.5,11.8260682 Z M20,13.5 C19.7238576,13.5 19.5,13.2761424 19.5,13 C19.5,12.7238576 19.7238576,12.5 20,12.5 C20.2761424,12.5 20.5,12.7238576 20.5,13 C20.5,13.2761424 20.2761424,13.5 20,13.5 Z M4,13.5 C3.72385763,13.5 3.5,13.2761424 3.5,13 C3.5,12.7238576 3.72385763,12.5 4,12.5 C4.27614237,12.5 4.5,12.7238576 4.5,13 C4.5,13.2761424 4.27614237,13.5 4,13.5 Z" id="Combined-Shape" fill="#AFAFAF"></path>
        <path d="M11.0587895,17.6915025 L11.4252177,20 L12.5747823,20 L12.9412105,17.6915025 L12,16.5620499 L11.0587895,17.6915025 Z M13.5873016,20 L14,20 L14,21 L10,21 L10,20 L10.4126984,20 L10,17.4 L12,15 L14,17.4 L13.5873016,20 Z" id="Combined-Shape" fill="#AFAFAF" fill-rule="nonzero"></path>
        <path d="M18,5 L18,5 C18,5.55228475 18.4477153,6 19,6 L19,6 C19.5522847,6 20,5.55228475 20,5 L20,5 C20,4.44771525 19.5522847,4 19,4 L19,4 C18.4477153,4 18,4.44771525 18,5 Z" id="Rectangle-12-Copy-2" fill="#AFAFAF"></path>
    </g>
</svg>