<?xml version="1.0" encoding="UTF-8"?>
<svg width="147px" height="88px" viewBox="0 0 147 88" version="1.1" xmlns="http://www.w3.org/2000/svg" xmlns:xlink="http://www.w3.org/1999/xlink">
    <!-- Generator: Sketch 49.1 (51147) - http://www.bohemiancoding.com/sketch -->
    <title>Group 13</title>
    <desc>Created with Sketch.</desc>
    <defs></defs>
    <g id="Visual-design---Artboards" stroke="none" stroke-width="1" fill="none" fill-rule="evenodd">
        <g id="Gimex-Desktop-1440px---VD-Over-ons-v0.1" transform="translate(-105.000000, -14.000000)" fill="#FFFFFF">
            <g id="Page-1" transform="translate(105.000000, 14.000000)">
                <g id="Group-13">
                    <path d="M25.5013811,80.5369969 C25.5013811,80.5369969 16.9229039,72.0380062 16.1472983,62.2146293 C16.1472983,62.2146293 14.4589256,54.1731838 17.9725586,44.3040249 C17.9725586,44.3040249 21.4859178,34.8918629 29.8817869,29.0435639 C29.8817869,29.0435639 36.9996725,23.834567 45.2586539,22.9208474 C45.2586539,22.9208474 49.2741171,22.3152648 49.6390597,22.4523364 L49.6390597,17.6666168 C49.6390597,17.6666168 40.148363,17.7123988 31.2506637,22.4183427 C31.2506637,22.4183427 25.3592917,24.641919 18.4544032,33.7018069 C18.3832217,33.7952897 14.4589256,38.8669408 11.8580597,48.1878131 C11.8580597,48.1878131 10.7175115,53.9903302 10.9912869,56.3663302 L10.9488517,56.5949657 L4.9225084,56.5491838 C4.9225084,56.5491838 5.42433864,66.4641246 7.70598251,72.0382804 C7.70598251,72.0382804 11.6300048,81.5420062 17.7899504,87.9843738 L25.5013811,80.5369969 Z" id="Fill-1"></path>
                    <path d="M0.159912189,56.6672573 C1.41188692,56.6420361 2.66605186,56.6639676 3.91830037,56.6634193 C5.89961267,56.6623227 7.88092497,56.6656125 9.86223727,56.6623227 C10.323275,56.6615003 10.785134,56.653276 11.2456242,56.6710953 C11.8306821,50.4192573 12.6629592,44.3590455 15.7708571,38.7955813 C18.5023139,33.9062355 22.1867828,28.9456125 26.6942203,25.564329 C31.5006206,21.9590704 37.6047161,19.752491 43.4249065,18.4415377 C47.2156002,17.5875813 50.9507175,17.8052511 54.7895956,18.1353196 C58.5890501,18.4620984 61.9797579,19.302896 65.450682,20.8970393 C65.8879012,21.0977121 66.3234778,21.3019489 66.7587807,21.5059115 C67.4298041,20.0027838 68.1963751,18.5363913 68.9158568,17.0557433 C69.0168799,16.8479427 69.117903,16.6404162 69.2186523,16.4326156 C68.5670669,16.0252386 67.888104,15.6611763 67.1957262,15.3286405 C65.105725,14.3244536 62.8777411,13.6730891 60.6045843,13.2380237 C58.8335315,12.8991826 57.0424931,12.6784972 55.2539186,12.4572636 C53.8374049,12.3747464 52.435675,12.2401421 51.0136858,12.2365782 C48.0048946,12.228628 44.9388843,12.3056623 41.9670527,12.80241 C39.0732471,13.2859988 36.2522658,14.1898492 33.5867889,15.4122542 C31.8286035,16.2185097 30.082738,17.0538243 28.3814979,17.9754941 C25.1438305,19.7291888 22.2836992,21.889438 19.5648361,24.3663227 C19.2075593,24.6917308 18.8521988,25.0190579 18.4965647,25.346385 C17.4389704,24.1727776 16.2568084,23.0937495 15.1403525,21.9760673 C14.9832054,21.818709 14.8257846,21.6618991 14.6689113,21.5042667 C14.3354529,21.7540112 14.083032,22.1191701 13.8191126,22.4363539 C13.1253658,23.2700237 12.4176565,24.0908087 11.7041979,24.9077558 C9.97530649,26.8873445 8.48350454,29.0201794 7.10285539,31.2552698 C6.33847457,32.4930268 5.75533305,33.8292012 5.10949697,35.1313819 C3.01183014,39.3581234 1.51263626,43.7786841 0.81697306,48.4509084 C0.619307248,49.7783103 0.460791313,51.1106467 0.297621197,52.4424349 C0.261209073,52.7401545 -0.253488608,56.6754816 0.159912189,56.6672573" id="Fill-3"></path>
                    <path d="M95.1174457,52.5765184 C94.9058173,52.8287302 94.4746212,53.2764062 94.2720274,53.5354717 C92.9425742,55.234886 91.6005274,56.9247053 90.2979042,58.6452287 C89.7968953,59.3064623 89.4253821,59.2974156 88.9282061,58.6452287 C87.6006693,56.9044187 86.2378156,55.1910231 84.8872817,53.469129 C84.6975554,53.2276087 84.4944141,52.9973283 84.1212583,52.5507489 C84.0922381,53.1061632 84.061849,53.4219763 84.0615752,53.7383377 C84.0588375,56.8679576 84.0407683,59.9981259 84.077728,63.1271975 C84.0867626,63.8912349 83.875408,64.191696 83.0787217,64.1590729 C81.768159,64.1050667 80.453216,64.1220636 79.1415582,64.1541383 C78.5460968,64.1686679 78.2955923,63.9753969 78.2964136,63.3563813 C78.3065433,57.0971414 78.3024367,50.8379016 78.2931283,44.5781134 C78.2925808,44.0306492 78.48614,43.794886 79.0646273,43.8094156 C80.3456222,43.8412162 81.6307238,43.7680199 82.9070645,43.8477956 C83.3360705,43.8743875 83.8699325,44.1312598 84.1409701,44.4605059 C85.7710286,46.4376274 87.3372974,48.4682069 88.9282061,50.4782255 C89.1370967,50.7427738 89.3637827,50.9927925 89.6600076,51.3406804 C89.9376158,51.0317209 90.1711462,50.7962318 90.376204,50.5379888 C91.9717668,48.5312598 93.5747215,46.5297396 95.1448232,44.5032723 C95.5240021,44.0133782 95.9217977,43.8184623 96.5596943,43.8053034 C97.7610206,43.7809047 98.9930097,43.7268984 100.215417,43.8088673 C100.833875,43.7907738 101.029898,44.0273595 101.028256,44.6285558 C101.015388,50.8568174 101.013746,57.084805 101.031815,63.3130667 C101.033458,63.9932162 100.75229,64.1697645 100.129999,64.1552349 C98.7865831,64.1237084 97.4407034,64.1097271 96.0986566,64.1585246 C95.360832,64.1853907 95.1218261,63.9416773 95.129218,63.195185 C95.16344,59.9402816 95.1442757,56.6853782 95.1420855,53.4304748 C95.1418117,52.9789607 95.1119702,52.4909857 95.1174457,52.5765184 C95.0490019,52.5422505 95.1856158,52.6113346 95.1174457,52.5765184" id="Fill-5"></path>
                    <path d="M145.83863,43.7898692 C144.28605,45.7817944 142.503225,48.0621184 140.950645,50.052947 C140.2005,51.01519 139.477186,51.9993645 138.686796,52.9267913 C138.27449,53.4106542 138.314188,53.7352399 138.705413,54.2095078 C141.153512,57.1749159 143.572044,60.165271 145.99961,63.147676 C146.1918,63.3837134 146.423688,63.734891 146.744005,64.138704 C146.29912,64.138704 146.015215,64.1392523 145.763615,64.1398006 C143.825833,64.1477508 141.886956,64.1809221 139.951365,64.1167726 C139.524275,64.1027913 138.988223,63.836324 138.708151,63.5089969 C137.467674,62.062891 136.303034,60.5512648 135.108552,59.0654081 C134.897745,58.803053 134.675987,58.5491963 134.381131,58.1991153 C133.915713,58.8214206 133.512442,59.3664174 133.102052,59.9073022 C132.403378,60.8292461 131.610798,61.6938941 131.02136,62.6813583 C130.281071,63.9213084 129.345307,64.0712648 127.9162,64.138704 C126.176631,64.138704 124.41735,64.1447352 122.440966,64.1447352 C122.722407,63.7217321 122.881197,63.4464922 123.07503,63.1983925 C125.409239,60.2203738 127.73496,57.2352274 130.099832,54.2818816 C130.533766,53.739352 130.541705,53.4059938 130.087512,52.861271 C127.884989,50.2196262 125.732293,47.5360374 123.563445,44.8661558 C123.350448,44.6043489 123.080505,44.1440623 122.807278,43.7898692 C123.098027,43.7898692 123.315678,43.7906916 123.478848,43.7898692 C125.541472,43.7810966 127.57398,43.7898692 129.667267,43.7898692 C130.056849,43.8013832 130.534861,44.1610592 130.793305,44.4779688 C131.995452,45.9498442 133.133537,47.4743551 134.380036,49.0901558 C134.683927,48.6781184 134.928955,48.3373583 135.182198,48.0029034 C136.106463,46.781595 137.022516,45.5542555 137.969231,44.3507664 C138.147185,44.124324 138.437113,43.7901433 138.686249,43.7860312 C140.953382,43.7473769 143.245156,43.7898692 145.513659,43.7898692 L145.83863,43.7898692 Z" id="Fill-7"></path>
                    <path d="M62.4709383,49.8029558 C61.9392666,49.5427938 61.6079984,49.3889994 61.2838484,49.2209495 C58.7935877,47.9322019 56.1694508,47.5851364 53.464824,48.2828312 C50.5920991,49.0232922 48.83364,51.6827564 49.1547785,54.6073171 C49.4811187,57.5806754 51.6094484,59.5317533 54.7042051,59.6641645 C55.3256751,59.6907564 55.9515256,59.6271551 56.5749121,59.5945321 C57.3464111,59.554233 57.7307917,59.2502081 57.6785006,58.3666442 C57.5999271,57.0340336 57.6626216,57.0307439 56.3558918,57.0271801 C55.0012513,57.0233421 55.0012513,57.0233421 54.9998825,55.6570118 C54.9990611,54.9998903 55.0237009,54.3413981 54.9897528,53.6859215 C54.9599113,53.1088498 55.205214,52.913934 55.7590615,52.9185944 C57.8838321,52.9353171 60.0088765,52.9353171 62.1339209,52.9202393 C62.6705206,52.9164012 62.8353333,53.1505196 62.8328694,53.658233 C62.8191806,56.4745072 62.83944,59.2907813 62.8030278,62.1067813 C62.7994688,62.3707813 62.5385608,62.781448 62.3025665,62.8691738 C58.3257056,64.3492735 54.2437149,65.0329869 50.0962919,63.7842642 C45.1606697,62.2984075 42.5362591,58.0609745 43.1232334,52.8571863 C43.7783779,47.0535726 47.3169245,43.8548685 53.4147231,43.5448125 C56.2611655,43.4000648 59.0153457,43.8524012 61.7103904,44.7565259 C62.2694397,44.9437657 62.5048865,45.2283265 62.4838058,45.8380212 C62.440823,47.0834542 62.4709383,48.3316287 62.4709383,49.8029558" id="Fill-10"></path>
                    <path d="M105.985315,53.9338567 C105.985588,50.9001869 106.0053,47.866243 105.971078,44.8336698 C105.962591,44.0929346 106.120286,43.7941184 106.94216,43.8020685 C111.126816,43.8420935 115.31202,43.8327726 119.497224,43.8053583 C120.202743,43.800972 120.416014,43.9668287 120.474876,44.7382679 C120.411907,45.5146417 120.46721,46.2625047 120.471317,47.081919 C120.474876,47.7445234 120.247642,47.9482118 119.600437,47.9391651 C117.383678,47.9084611 115.165276,47.9572586 112.948791,47.9106542 C112.158128,47.8942056 111.850404,48.0803489 111.859986,48.9425296 C111.884352,51.2058567 111.81673,51.5951402 114.497264,51.5951402 C116.090089,51.5951402 117.683188,51.6115888 119.275466,51.5855452 C119.869832,51.575676 120.129919,51.76319 120.098435,52.3912523 C120.082282,53.2106667 120.108017,54.0328224 120.09953,54.829757 C120.140048,55.5263551 119.884342,55.7607477 119.188953,55.7495078 C117.097035,55.7146916 115.002928,55.7741807 112.912379,55.7179813 C112.068603,55.6949533 111.802767,55.9797882 111.870116,56.7931713 C111.897494,57.5369221 111.869021,58.3250841 111.871485,59.0430654 C111.807421,59.851514 112.145808,60.0436885 112.899511,60.0297072 C115.147481,59.9874891 117.397641,60.0609595 119.644515,59.9918754 C120.549616,59.9639128 120.711144,60.2778069 120.723464,61.1133956 C120.734141,61.8374081 120.730034,62.5400374 120.724285,63.2698069 C120.77904,64.0058816 120.445034,64.1563863 119.786604,64.1536449 C115.476833,64.13281 111.167061,64.128972 106.857289,64.1585794 C106.12932,64.1632399 105.966424,63.8923863 105.972721,63.2215576 C106.00092,60.1262056 105.985041,57.029757 105.985315,53.9338567" id="Fill-12"></path>
                    <path d="M73.3560551,53.965438 C73.3566026,57.0303601 73.3336055,60.0955564 73.3722078,63.1604785 C73.3823375,63.9530268 73.1326544,64.1386218 72.3512995,64.1386218 C71.0278694,64.1136748 69.6611828,64.1262854 68.3185884,64.1531514 C67.7444815,64.1643913 67.4616715,64.0160798 67.4630404,63.3723913 C67.4772767,57.1175377 67.4759079,50.8621358 67.4613978,44.6070081 C67.4597551,43.988815 67.6913691,43.7958181 68.292306,43.8100735 C69.6628255,43.7897869 71.0850885,43.7897869 72.507899,43.8073321 C73.168519,43.7889645 73.3716603,44.0302106 73.3664586,44.6766405 C73.3420926,47.7725408 73.3555075,50.8689894 73.3560551,53.965438" id="Fill-14"></path>
                    <path d="M9.67921844,16.948471 C9.67921844,16.948471 18.44003,25.583985 18.5084739,25.7895925 C18.5769177,25.9952 27.3377293,15.0980037 44.7909087,12.8363215 C44.7909087,12.8363215 56.6316931,10.2319601 70.6626805,17.5652935 C73.6974804,19.3195364 76.7804647,21.2281221 79.4341693,23.5281844 C80.2001928,24.1918854 80.9667638,24.8361221 81.6528448,25.5708262 C84.4573997,22.8732561 86.9046776,20.2746517 89.5709759,17.5603589 C89.8841749,17.2415302 90.1979215,16.9243464 90.5113942,16.6057919 C86.8340436,13.2809819 82.8150213,10.1708262 78.55097,7.6443215 C73.9731721,4.93139938 69.2981841,3.00444611 64.1410775,1.73680748 C61.8873588,1.18248972 59.6054411,0.742763863 57.3161315,0.362801246 C57.3161315,0.362801246 47.0495554,-0.939379439 37.7411931,1.39083863 C37.7411931,1.39083863 25.6266333,4.5434866 19.6720192,9.13538692 C19.6720192,9.13538692 13.1698543,13.1790006 9.67921844,16.948471" id="Fill-16"></path>
                </g>
            </g>
        </g>
    </g>
</svg>