<?xml version="1.0" encoding="UTF-8"?>
<svg width="24px" height="24px" viewBox="0 0 24 24" version="1.1" xmlns="http://www.w3.org/2000/svg" xmlns:xlink="http://www.w3.org/1999/xlink">
    <!-- Generator: Sketch 49 (51002) - http://www.bohemiancoding.com/sketch -->
    <title>merkontwikkeling-icon</title>
    <desc>Created with Sketch.</desc>
    <defs></defs>
    <g id="merkontwikkeling-icon" stroke="none" stroke-width="1" fill="none" fill-rule="evenodd">
        <path d="M4,8 L4,18 C4,18.5522847 4.44771525,19 5,19 L19,19 C19.5522847,19 20,18.5522847 20,18 L20,8 L4,8 Z M3,7 L21,7 L21,18 C21,19.1045695 20.1045695,20 19,20 L5,20 C3.8954305,20 3,19.1045695 3,18 L3,7 Z" id="Rectangle-13" fill="#AFAFAF" fill-rule="nonzero"></path>
        <path d="M8,4.72075922 L8,7 L9,7 L9,4.38742589 L8,4.72075922 Z M7,4 L10,3 L10,8 L7,8 L7,4 Z M14,5 L14,4 L10,4 L10,3 L14,3 L17,4 L17,8 L14,8 L14,6 L10,6 L10,5 L14,5 Z M15,7 L16,7 L16,4.72075922 L15,4.38742589 L15,7 Z" id="Combined-Shape" fill="#AFAFAF" fill-rule="nonzero"></path>
        <path d="M12.059017,15 L11.809017,15.5 L12.309017,15.5 L15.190983,15.5 L13.5,12.118034 L12.059017,15 Z M11.5,13.881966 L13.5,9.88196601 L16.809017,16.5 L12.809017,16.5 L10.190983,16.5 L7.19098301,16.5 L10,10.881966 L11.5,13.881966 Z M10.940983,15 L10,13.118034 L8.80901699,15.5 L10.690983,15.5 L10.940983,15 Z" id="Combined-Shape" fill="#AFAFAF"></path>
    </g>
</svg>