<?xml version="1.0" encoding="UTF-8"?>
<svg width="24px" height="24px" viewBox="0 0 24 24" version="1.1" xmlns="http://www.w3.org/2000/svg" xmlns:xlink="http://www.w3.org/1999/xlink">
    <!-- Generator: Sketch 49 (51002) - http://www.bohemiancoding.com/sketch -->
    <title>opensource-icon</title>
    <desc>Created with Sketch.</desc>
    <defs></defs>
    <g id="opensource-icon" stroke="none" stroke-width="1" fill="none" fill-rule="evenodd">
        <path d="M9.81726783,13.2201969 C9.28442953,12.268202 9.42275127,11.0417148 10.232233,10.232233 C11.2085438,9.25592232 12.7914562,9.25592232 13.767767,10.232233 C14.5702276,11.0346937 14.7131205,12.2469572 14.1964456,13.1953637 L16.0610903,18.3064346 C15.7795671,18.4880987 15.4850987,18.6514257 15.1793741,18.7947265 C18.1301738,16.9712756 19.5,14.6456078 19.5,12 C19.5,7.85786438 16.1421356,4.5 12,4.5 C7.85786438,4.5 4.5,7.85786438 4.5,12 C4.5,14.6313118 5.85506193,16.9461319 7.90542898,18.2847035 L9.81726783,13.2201969 Z M10.9189159,13.0398433 L10.9484253,13.0524902 L8.7825253,18.7767365 L8.38824748,19.6967181 C8.08392446,19.5536638 7.78946633,19.393092 7.50617245,19.2163021 C5.10058435,17.7150916 3.5,15.0444641 3.5,12 C3.5,7.30557963 7.30557963,3.5 12,3.5 C16.6944204,3.5 20.5,7.30557963 20.5,12 C20.5,15.0676673 18.8749251,17.7557781 16.4386854,19.2504222 C16.1535975,19.4253249 15.8574018,19.5838848 15.5514026,19.7247976 L15.1793741,18.7947265 L13.0964306,13.0964306 L13.0606602,13.0606602 C13.0662301,13.0550902 13.0717471,13.0494873 13.0772112,13.0438522 L13.0721337,13.0299616 L13.1015005,13.0182149 C13.6461146,12.42986 13.6325012,11.5111808 13.0606602,10.9393398 C12.4748737,10.3535534 11.5251263,10.3535534 10.9393398,10.9393398 C10.3604424,11.5182373 10.3536344,12.4525855 10.9189159,13.0398433 Z" id="Combined-Shape" fill="#AFAFAF"></path>
    </g>
</svg>