<?xml version="1.0" encoding="UTF-8"?>
<svg width="24px" height="24px" viewBox="0 0 24 24" version="1.1" xmlns="http://www.w3.org/2000/svg" xmlns:xlink="http://www.w3.org/1999/xlink">
    <!-- Generator: Sketch 49 (51002) - http://www.bohemiancoding.com/sketch -->
    <title>responsivedesign-icon</title>
    <desc>Created with Sketch.</desc>
    <defs></defs>
    <g id="responsivedesign-icon" stroke="none" stroke-width="1" fill="none" fill-rule="evenodd">
        <path d="M12,14 L20,14 L20,5 C20,4.44771525 19.5522847,4 19,4 L10,4 C9.44771525,4 9,4.44771525 9,5 L10,5 C11.1045695,5 12,5.8954305 12,7 L12,14 Z M12,15 L12,18 L19,18 C19.5522847,18 20,17.5522847 20,17 L20,15 L12,15 Z M12,19 C12,20.1045695 11.1045695,21 10,21 L5,21 C3.8954305,21 3,20.1045695 3,19 L3,7 C3,5.8954305 3.8954305,5 5,5 L8,5 C8,3.8954305 8.8954305,3 10,3 L19,3 C20.1045695,3 21,3.8954305 21,5 L21,17 C21,18.1045695 20.1045695,19 19,19 L12,19 Z M9,6 L8,6 L5,6 C4.44771525,6 4,6.44771525 4,7 L8,7 L9,7 L11,7 C11,6.44771525 10.5522847,6 10,6 L9,6 Z M11,18 L11,17 L9,17 L8,17 L4,17 L4,19 C4,19.5522847 4.44771525,20 5,20 L10,20 C10.5522847,20 11,19.5522847 11,19 L11,18 Z M9,16 L11,16 L11,15 L11,14 L11,8 L9,8 L8,8 L4,8 L4,16 L8,16 L9,16 Z M7.5,19 C7.22385763,19 7,18.7761424 7,18.5 C7,18.2238576 7.22385763,18 7.5,18 C7.77614237,18 8,18.2238576 8,18.5 C8,18.7761424 7.77614237,19 7.5,19 Z M14.5,17 C14.2238576,17 14,16.7761424 14,16.5 C14,16.2238576 14.2238576,16 14.5,16 C14.7761424,16 15,16.2238576 15,16.5 C15,16.7761424 14.7761424,17 14.5,17 Z" id="Combined-Shape" fill="#AFAFAF"></path>
    </g>
</svg>