<?xml version="1.0" encoding="UTF-8"?>
<svg width="24px" height="24px" viewBox="0 0 24 24" version="1.1" xmlns="http://www.w3.org/2000/svg" xmlns:xlink="http://www.w3.org/1999/xlink">
    <!-- Generator: Sketch 49 (51002) - http://www.bohemiancoding.com/sketch -->
    <title>salesfunnels-icon</title>
    <desc>Created with Sketch.</desc>
    <defs></defs>
    <g id="salesfunnels-icon" stroke="none" stroke-width="1" fill="none" fill-rule="evenodd">
        <path d="M6.53916914,4.5 C6.46916924,4.5 6.39994931,4.51469821 6.33598946,4.54314333 C6.08367449,4.65535637 5.97009943,4.95086472 6.08231248,5.20317969 L10.4568567,15.0394961 L10.5,15.2426758 L10.5,17.6614835 L14.5,19.2614835 L14.5,15.2426758 L14.5431433,15.0394961 L18.9176875,5.20317969 C18.9461326,5.13921984 18.9608309,5.06999991 18.9608309,5 C18.9608309,4.72385763 18.7369732,4.5 18.4608309,4.5 L6.53916914,4.5 Z M9.5,15.3488462 L5.16859914,5.60953906 C4.83196001,4.85259415 5.17268517,3.96606912 5.92963008,3.62943 C6.12150963,3.54409464 6.32916942,3.5 6.53916914,3.5 L18.4608309,3.5 C19.289258,3.5 19.9608309,4.17157288 19.9608309,5 C19.9608309,5.20999972 19.9167362,5.41765951 19.8314009,5.60953906 L15.5,15.3488462 L15.5,19.2614835 C15.5,19.8137683 15.0522847,20.2614835 14.5,20.2614835 C14.3727806,20.2614835 14.2467296,20.2372083 14.1286093,20.1899602 L10.1286093,18.5899602 C9.74895094,18.4380969 9.5,18.0703881 9.5,17.6614835 L9.5,15.3488462 Z M10,7 L18,7 C18.2761424,7 18.5,7.22385763 18.5,7.5 L18.5,7.5 C18.5,7.77614237 18.2761424,8 18,8 L10,8 C9.72385763,8 9.5,7.77614237 9.5,7.5 L9.5,7.5 C9.5,7.22385763 9.72385763,7 10,7 Z M11,10 L17,10 C17.2761424,10 17.5,10.2238576 17.5,10.5 L17.5,10.5 C17.5,10.7761424 17.2761424,11 17,11 L11,11 C10.7238576,11 10.5,10.7761424 10.5,10.5 L10.5,10.5 C10.5,10.2238576 10.7238576,10 11,10 Z" id="Combined-Shape" fill="#AFAFAF" fill-rule="nonzero"></path>
    </g>
</svg>