<?xml version="1.0" encoding="UTF-8"?>
<svg width="24px" height="24px" viewBox="0 0 24 24" version="1.1" xmlns="http://www.w3.org/2000/svg" xmlns:xlink="http://www.w3.org/1999/xlink">
    <!-- Generator: Sketch 49 (51002) - http://www.bohemiancoding.com/sketch -->
    <title>socialmarketing-icon</title>
    <desc>Created with Sketch.</desc>
    <defs></defs>
    <g id="socialmarketing-icon" stroke="none" stroke-width="1" fill="none" fill-rule="evenodd">
        <path d="M13.6139658,12.5 C13.5382384,12.8679363 13.4536581,13.2685191 13.3694152,13.6623084 L17.7409784,18.0338716 C17.8235917,18.0117786 17.9104203,18 18,18 C18.5522847,18 19,18.4477153 19,19 C19,19.5522847 18.5522847,20 18,20 C17.4477153,20 17,19.5522847 17,19 C17,18.9104203 17.0117786,18.8235917 17.0338716,18.7409784 L13.1179039,14.8250107 C13.1101133,14.8606817 13.1024337,14.8958167 13.0948759,14.9303688 C13.0693882,15.5620074 12.5632278,16.0681678 11.9443331,16.0681678 L7.83427134,16.0681678 C7.49933627,16.0681678 7.17224358,16.0171923 6.85364681,15.9266781 L6.85364681,16.0550971 C6.85364681,16.2848136 6.667717,16.4707434 6.43800055,16.4707434 L4.41564625,16.4707434 C4.18625658,16.4707434 4,16.2848136 4,16.0550971 L4,10.2569626 C4,10.0275729 4.18592981,9.84131635 4.41564625,9.84131635 L6.43800055,9.84131635 C6.58700581,9.84131635 6.71150363,9.92398813 6.78502596,10.0416239 L7.22060494,9.58447834 C7.48299798,9.30901466 7.68788021,8.98682346 7.82969662,8.62640065 C7.97118627,8.26695814 8.042748,7.88692937 8.04209447,7.49775115 L8.04078741,6.68867873 C8.04046064,6.54555525 8.11398297,6.41223476 8.23488637,6.3360983 L8.50185412,6.16781384 C8.60609245,6.10213389 8.71948023,6.05442607 8.83776949,6.02665097 C9.20538116,5.940058 9.60338205,6.06782347 9.8762316,6.36125927 C10.1497347,6.6563289 10.3069091,7.0370112 10.3239009,7.43860652 L10.3261883,7.49611732 C10.3569043,8.23558861 10.3069091,8.97930785 10.1778365,9.70636203 L12.5878038,9.70508944 L17.0338716,5.2590216 C17.0117786,5.17640828 17,5.08957966 17,5 C17,4.44771525 17.4477153,4 18,4 C18.5522847,4 19,4.44771525 19,5 C19,5.55228475 18.5522847,6 18,6 C17.9104203,6 17.8235917,5.98822137 17.7409784,5.96612838 L13.5729712,10.1341356 C13.7742452,10.3663468 13.8889171,10.6675468 13.8889171,10.9856506 C13.8889171,11.0520792 13.8598795,11.2375428 13.8116008,11.5 L16.1337822,11.5 C16.3066869,11.2010993 16.6298588,11 17,11 C17.5522847,11 18,11.4477153 18,12 C18,12.5522847 17.5522847,13 17,13 C16.6298588,13 16.3066869,12.7989007 16.1337822,12.5 L13.6139658,12.5 Z M11.7550711,10.5378221 L9.68115234,10.5389616 L9.68082558,10.5389616 C9.55763482,10.5389616 9.44065262,10.4843917 9.36190203,10.3899563 C9.28282468,10.295521 9.24982132,10.1706964 9.27171464,10.0494662 L9.35536672,9.58513187 C9.47692364,8.90970671 9.5243047,8.21827001 9.49587606,7.53042774 L9.4935887,7.47324371 C9.48476602,7.2699953 9.40601543,7.07753017 9.27204141,6.93309964 C9.19851907,6.85336875 9.10637108,6.81807803 9.02958109,6.83670369 C9.00017216,6.84356577 8.97207029,6.85532935 8.94560225,6.87199441 L8.87306021,6.91774164 L8.87404051,7.49644409 C8.87502081,7.99084093 8.78417988,8.4734742 8.60413186,8.93127326 C8.42245001,9.39201321 8.1597302,9.80471857 7.8231613,10.1582793 L6.85397357,11.1748481 L6.85397357,15.0574808 C7.16832239,15.1764236 7.49737568,15.2368753 7.83459811,15.2368753 L11.9443331,15.2368753 C12.1207867,15.2368753 12.264237,15.0774135 12.264237,14.8810272 C12.264237,14.8509647 12.2675046,14.821229 12.2746935,14.7924736 C12.3227574,14.5730087 12.3713501,14.3496531 12.4195504,14.1266572 C12.5054963,13.729034 12.5901947,13.3325547 12.6684233,12.9613165 C12.8824716,11.945539 13.0480826,11.1187354 13.0582782,10.9745406 C13.0580926,10.8860156 13.0306073,10.7985447 12.9818686,10.7252381 C12.9447923,10.6694726 12.8954169,10.6219039 12.8364041,10.5883033 C12.7749721,10.5533393 12.7148472,10.5373278 12.655049,10.5373278 C12.6547222,10.5373278 12.6547222,10.5373278 12.6547222,10.5373278 L11.7550711,10.5378221 Z M4.83129251,10.6729356 L4.83129251,15.6394509 L6.02202753,15.6394509 L6.02202753,15.3306571 L6.02202753,11.0085242 L6.02202753,10.6729356 L4.83129251,10.6729356 Z" id="Combined-Shape" fill="#AFAFAF"></path>
    </g>
</svg>