<?xml version="1.0" encoding="UTF-8"?>
<svg width="24px" height="24px" viewBox="0 0 24 24" version="1.1" xmlns="http://www.w3.org/2000/svg" xmlns:xlink="http://www.w3.org/1999/xlink">
    <!-- Generator: Sketch 49 (51002) - http://www.bohemiancoding.com/sketch -->
    <title>webshops-icon</title>
    <desc>Created with Sketch.</desc>
    <defs></defs>
    <g id="webshops-icon" stroke="none" stroke-width="1" fill="none" fill-rule="evenodd">
        <path d="M16.2168271,10.1896264 C16.635886,10.4197856 17.1171718,10.5506912 17.6290323,10.5506912 C17.6318269,10.5506912 17.6346207,10.5506873 17.6374136,10.5506795 C18.0194696,10.5496126 18.3843731,10.475616 18.7189359,10.3418779 C19.8018019,9.9090131 20.5668203,8.85029797 20.5668203,7.61290323 C20.5668203,5.99040771 19.2515278,4.67511521 17.6290323,4.67511521 C16.0065367,4.67511521 14.6912442,5.99040771 14.6912442,7.61290323 C14.6912442,8.15257199 14.83676,8.65825374 15.0906951,9.09285219 C15.359357,9.55265474 15.7493783,9.93289011 16.2168271,10.1896264 Z M14.4231531,10.1896264 L9.19517074,10.1896264 C8.89230491,10.1896264 8.64678364,9.94410512 8.64678364,9.64123929 C8.64678364,9.33837346 8.89230491,9.09285219 9.19517074,9.09285219 L13.790434,9.09285219 C13.6132636,8.63362197 13.516129,8.13460609 13.516129,7.61290323 C13.516129,5.3414095 15.3575385,3.5 17.6290323,3.5 C19.900526,3.5 21.7419355,5.3414095 21.7419355,7.61290323 C21.7419355,9.56701488 20.3791546,11.202832 18.5521393,11.621808 C18.2554,11.689857 17.9464143,11.7258065 17.6290323,11.7258065 C17.535938,11.7258065 17.4435662,11.7227135 17.3520139,11.7166248 C16.1690234,11.6379492 15.1228689,11.0590821 14.4231531,10.1896264 Z M14.8870968,20.5 C13.8270664,20.5 12.9677419,19.6406756 12.9677419,18.5806452 C12.9677419,17.5206148 13.8270664,16.6612903 14.8870968,16.6612903 C15.9471272,16.6612903 16.8064516,17.5206148 16.8064516,18.5806452 C16.8064516,19.6406756 15.9471272,20.5 14.8870968,20.5 Z M14.8870968,19.5403226 C14.3570816,19.5403226 13.9274194,19.1106604 13.9274194,18.5806452 C13.9274194,18.05063 14.3570816,17.6209677 14.8870968,17.6209677 C15.417112,17.6209677 15.8467742,18.05063 15.8467742,18.5806452 C15.8467742,19.1106604 15.417112,19.5403226 14.8870968,19.5403226 Z M8.30645161,20.5 C7.24642121,20.5 6.38709677,19.6406756 6.38709677,18.5806452 C6.38709677,17.5206148 7.24642121,16.6612903 8.30645161,16.6612903 C9.36648202,16.6612903 10.2258065,17.5206148 10.2258065,18.5806452 C10.2258065,19.6406756 9.36648202,20.5 8.30645161,20.5 Z M8.30645161,19.5403226 C7.77643641,19.5403226 7.34677419,19.1106604 7.34677419,18.5806452 C7.34677419,18.05063 7.77643641,17.6209677 8.30645161,17.6209677 C8.83646682,17.6209677 9.26612903,18.05063 9.26612903,18.5806452 C9.26612903,19.1106604 8.83646682,19.5403226 8.30645161,19.5403226 Z M17.1999998,5.99999981 L17.9999998,5.99999981 L17.9999998,9.00000019 L17.1999998,9.00000019 L17.1999998,5.99999981 Z M17.3520139,11.7166248 C17.4435662,11.7227135 17.535938,11.7258065 17.6290323,11.7258065 C17.9464143,11.7258065 18.2554,11.689857 18.5521393,11.621808 L17.5879818,14.2950769 C17.1959028,15.3821738 16.164318,16.1067446 15.0086772,16.1067446 L8.31543451,16.1067446 C6.92511725,16.1067446 5.75485653,15.0661711 5.59230421,13.6853891 L4.8375944,7.27459367 C4.80508394,6.99843728 4.5710318,6.79032258 4.29296834,6.79032258 L2.5483871,6.79032258 C2.24552127,6.79032258 2,6.54480131 2,6.24193548 C2,5.93906965 2.24552127,5.69354839 2.5483871,5.69354839 L4.78058367,5.69354839 C5.33671058,5.69354839 5.80481487,6.10977778 5.86983579,6.66209056 L6.68155633,13.5571571 C6.77908772,14.3856263 7.48124416,15.0099704 8.31543451,15.0099704 L15.0086772,15.0099704 C15.7020617,15.0099704 16.3210126,14.5752279 16.55626,13.9229698 L17.3520139,11.7166248 Z" id="Combined-Shape" fill="#AFAFAF"></path>
    </g>
</svg>