<?xml version="1.0" encoding="UTF-8"?>
<svg width="170px" height="40px" viewBox="0 0 170 40" version="1.1" xmlns="http://www.w3.org/2000/svg" xmlns:xlink="http://www.w3.org/1999/xlink">
    <!-- Generator: Sketch 49.1 (51147) - http://www.bohemiancoding.com/sketch -->
    <title>Yourco Logo DIAP</title>
    <desc>Created with Sketch.</desc>
    <defs>
        <polygon id="path-1" points="2.31166085e-20 0.0889657681 2.31166085e-20 37.316348 27.3233415 37.316348 27.3233415 0.0889657681 0 0.0889657681"></polygon>
        <polygon id="path-3" points="8.18044107 8.2743253 8.18044107 0.300482094 0.109984844 0.300482094 0.109984844 8.2743253 8.18044107 8.2743253"></polygon>
    </defs>
    <g id="Page-1" stroke="none" stroke-width="1" fill="none" fill-rule="evenodd">
        <g id="Yourco-Kans-content-pagina-v.0.1" transform="translate(-74.000000, -32.000000)">
            <g id="Yourco-Logo-DIAP" transform="translate(74.000000, 32.000000)">
                <g id="Group-3" transform="translate(0.000000, 1.888381)">
                    <mask id="mask-2" fill="white">
                        <use xlink:href="#path-1"></use>
                    </mask>
                    <g id="Clip-2"></g>
                    <path d="M13.8559505,20.3950419 L19.2041874,3.71544455 L15.8004538,2.99031842 L15.8004538,0.33067448 L27.3233415,0.0889657681 L27.3233415,2.99031842 L24.1626708,3.47288774 L17.2596841,22.6187621 C14.6823644,29.3391124 12.1545101,37.316348 4.13258121,37.316348 C2.9164138,37.316348 1.02052309,37.0746393 1.02052309,37.0746393 L1.45803633,33.6907173 L3.88951829,33.6907173 C7.29239906,33.6907173 9.48081811,30.4993142 11.6197717,25.8101652 L2.9164138,3.71544455 L-0.000341140928,2.99031842 L-0.000341140928,0.33067448 L11.4253214,0.0889657681 L11.4253214,2.99031842 L8.02158779,3.47288774 L13.8559505,20.3950419 Z" id="Fill-1" fill="#FFFFFF" mask="url(#mask-2)"></path>
                </g>
                <path d="M31.6962565,14.7896048 C31.6962565,20.591462 33.6407598,24.2170927 38.5028709,24.2170927 C43.364982,24.2170927 45.3094853,20.8331707 45.3094853,14.5478961 C45.3094853,9.22945636 43.6080449,5.36126886 38.7459338,5.36126886 C33.8838227,5.36126886 31.6962565,8.50433022 31.6962565,14.7896048 M50.4146592,14.3061874 C50.4146592,22.5251317 45.5525482,28.0852802 38.259808,28.0852802 C30.9670678,28.0852802 26.5910825,23.7336753 26.5910825,15.0304655 C26.5910825,6.81236923 31.6962565,1.49392946 38.9889967,1.49392946 C46.2817369,1.49392946 50.4146592,6.57066052 50.4146592,14.3061874" id="Fill-4" fill="#FFFFFF"></path>
                <path d="M80.7973526,27.3595604 L72.7762765,27.6012691 L72.2892979,24.2173472 C71.1225959,25.2325237 67.281349,28.0846865 63.2951173,28.0846865 C57.9468804,28.0846865 55.5153984,24.7491063 55.5153984,19.4306665 L55.5153984,5.84494071 L51.3833289,4.87810586 L51.3833289,2.21846193 L60.3783623,1.97675322 L60.3783623,18.9472491 C60.3783623,22.3311711 61.592824,23.9756384 64.7534947,23.9756384 C68.8864171,23.9756384 71.803172,20.1557927 71.803172,20.1557927 L71.803172,5.84494071 L67.6702497,4.87810586 L67.6702497,2.21846193 L76.6652831,1.97675322 L76.6652831,23.7339297 L80.7973526,24.7007646 L80.7973526,27.3595604 Z" id="Fill-6" fill="#FFFFFF"></path>
                <path d="M91.441376,5.50646371 C92.6575434,4.15289492 95.4762203,1.49409908 98.7827288,1.49409908 C101.214211,1.49409908 103.158714,2.21922522 103.158714,2.21922522 L102.915651,9.22962598 L99.7549804,9.22962598 L99.0266445,5.60314719 C95.379848,5.60314719 93.0464441,7.97274067 91.9761144,9.3746512 L91.9761144,23.7338449 L96.8382255,24.9423885 L96.8382255,27.6011843 L82.9819338,27.6011843 L82.9819338,24.9423885 L87.1148562,23.7338449 L87.1148562,5.8448559 L82.9819338,4.87802105 L82.9819338,2.21922522 L91.0038628,1.97666841 L91.441376,5.50646371 Z" id="Fill-8" fill="#FFFFFF"></path>
                <path d="M126.469897,6.17196836 C126.274594,6.41961378 126.083555,6.61382885 125.89678,6.75461357 C125.710859,6.8962464 125.439651,6.96663876 125.084865,6.96663876 C124.747135,6.96663876 124.418787,6.86486667 124.09982,6.66217059 C123.780001,6.45947451 123.39707,6.22963921 122.953587,5.97351279 C122.509251,5.71738636 121.981335,5.48755106 121.368987,5.28485498 C120.756639,5.0821589 119.996748,4.98038681 119.091872,4.98038681 C117.93711,4.98038681 116.924774,5.1873234 116.054865,5.60289276 C115.184955,6.01761403 114.460884,6.61382885 113.883503,7.39068913 C113.306122,8.16754941 112.876284,9.10809314 112.592284,10.2114722 C112.308284,11.3148513 112.165858,12.5649518 112.165858,13.9600775 C112.165858,15.4077855 112.321077,16.6968986 112.631515,17.8265688 C112.942806,18.9570871 113.391407,19.9061118 113.977316,20.6753392 C114.563226,21.4428704 115.272799,22.0255156 116.108594,22.4224267 C116.942684,22.820186 117.884233,23.0186416 118.931535,23.0186416 C119.979691,23.0186416 120.827426,22.8914264 121.475594,22.6344519 C122.122909,22.3783255 122.669587,22.0959079 123.11307,21.7871993 C123.557406,21.4784906 123.943749,21.1960731 124.27295,20.9390985 C124.601298,20.6838202 124.968877,20.555757 125.378246,20.555757 C125.910426,20.555757 126.310414,20.7584531 126.576504,21.1646933 L128.46813,23.5487045 C127.738941,24.3959572 126.9492,25.1075137 126.097201,25.6808298 C125.244348,26.254994 124.360793,26.7146646 123.446536,27.0581454 C122.532278,27.4024743 121.590729,27.6450311 120.623594,27.7866639 C119.655607,27.9274487 118.691884,27.9986891 117.733278,27.9986891 C116.045483,27.9986891 114.456619,27.6848919 112.964981,27.0581454 C111.473342,26.4322471 110.168478,25.5179945 109.048683,24.3170838 C107.930593,23.1161731 107.047038,21.6455665 106.398871,19.9061118 C105.750703,18.1675053 105.426619,16.1846458 105.426619,13.9600775 C105.426619,11.9644964 105.714883,10.1147887 106.292264,8.41010623 C106.869645,6.70627183 107.71738,5.23142463 108.836323,3.98641274 C109.955265,2.74224895 111.340297,1.76608499 112.991419,1.05961707 C114.643394,0.353997251 116.542696,0.000339240298 118.691884,0.000339240298 C120.733612,0.000339240298 122.522897,0.326858027 124.059736,0.979895601 C125.595723,1.63378127 126.976491,2.5692364 128.201187,3.78795717 L126.469897,6.17196836 Z" id="Fill-10" fill="#FFFFFF"></path>
                <path d="M144.184066,22.9658049 C146.456918,22.9658049 148.139595,22.2067547 149.232099,20.6878063 C150.32375,19.1688578 150.870428,16.9434415 150.870428,14.0124053 C150.870428,11.0813691 150.32375,8.84747178 149.232099,7.31156133 C148.139595,5.77480278 146.456918,5.00642351 144.184066,5.00642351 C141.875395,5.00642351 140.166279,5.77904329 139.055865,7.32428284 C137.947157,8.8695224 137.391097,11.0991793 137.391097,14.0124053 C137.391097,16.9264795 137.947157,19.1476553 139.055865,20.6750848 C140.166279,22.2025142 141.875395,22.9658049 144.184066,22.9658049 M144.184066,8.48100744e-05 C146.208738,8.48100744e-05 148.050046,0.327451698 149.710549,0.980489271 C151.371906,1.63352684 152.791905,2.56050096 153.973958,3.76141161 C155.153453,4.96232227 156.064299,6.42784036 156.703938,8.15881398 C157.342725,9.8897876 157.662544,11.8234573 157.662544,13.9598231 C157.662544,16.1148471 157.342725,18.0569978 156.703938,19.7871233 C156.064299,21.5180969 155.153453,22.992096 153.973958,24.2108168 C152.791905,25.4286894 151.371906,26.3658408 149.710549,27.0180302 C148.050046,27.6719159 146.208738,27.9992828 144.184066,27.9992828 C142.141485,27.9992828 140.286531,27.6719159 138.617499,27.0180302 C136.947614,26.3658408 135.522498,25.4286894 134.341298,24.2108168 C133.160097,22.992096 132.245839,21.5180969 131.597672,19.7871233 C130.949504,18.0569978 130.626273,16.1148471 130.626273,13.9598231 C130.626273,11.8234573 130.949504,9.8897876 131.597672,8.15881398 C132.245839,6.42784036 133.160097,4.96232227 134.341298,3.76141161 C135.522498,2.56050096 136.947614,1.63352684 138.617499,0.980489271 C140.286531,0.327451698 142.141485,8.48100744e-05 144.184066,8.48100744e-05" id="Fill-12" fill="#FFFFFF"></path>
                <g id="Group-16" transform="translate(161.627573, 19.698497)">
                    <mask id="mask-4" fill="white">
                        <use xlink:href="#path-3"></use>
                    </mask>
                    <g id="Clip-15"></g>
                    <path d="M0.109984844,4.30012521 C0.109984844,3.75310023 0.21147427,3.23236637 0.415305975,2.73707553 C0.619990532,2.2434809 0.899726093,1.81943053 1.25536551,1.46577252 C1.61015208,1.11296261 2.03657824,0.830545059 2.53379114,0.618519873 C3.03100404,0.406494687 3.56318389,0.300482094 4.13203639,0.300482094 C4.70003603,0.300482094 5.22795162,0.406494687 5.716636,0.618519873 C6.20446753,0.830545059 6.63089369,1.11296261 6.99506163,1.46577252 C7.35922957,1.81943053 7.64834651,2.2434809 7.86070674,2.73707553 C8.07391982,3.23236637 8.18052636,3.75310023 8.18052636,4.30012521 C8.18052636,4.8658084 8.07391982,5.39078276 7.86070674,5.87589639 C7.64834651,6.36270622 7.35922957,6.78166799 6.99506163,7.135326 C6.63089369,7.48813591 6.20446753,7.76631295 5.716636,7.96900903 C5.22795162,8.17170511 4.70003603,8.2743253 4.13203639,8.2743253 C3.56318389,8.2743253 3.03100404,8.17170511 2.53379114,7.96900903 C2.03657824,7.76631295 1.61015208,7.48813591 1.25536551,7.135326 C0.899726093,6.78166799 0.619990532,6.36270622 0.415305975,5.87589639 C0.21147427,5.39078276 0.109984844,4.8658084 0.109984844,4.30012521" id="Fill-14" fill="#FFFFFF" mask="url(#mask-4)"></path>
                </g>
            </g>
        </g>
    </g>
</svg>