<?xml version="1.0" encoding="UTF-8"?>
<svg width="276px" height="375px" viewBox="0 0 276 375" version="1.1" xmlns="http://www.w3.org/2000/svg" xmlns:xlink="http://www.w3.org/1999/xlink">
    <!-- Generator: Sketch 48.2 (47327) - http://www.bohemiancoding.com/sketch -->
    <title>Group 20</title>
    <desc>Created with Sketch.</desc>
    <defs></defs>
    <g id="PTCHR-Detail-Amazing-v1.0" stroke="none" stroke-width="1" fill="none" fill-rule="evenodd" transform="translate(-481.000000, -3245.000000)">
        <g id="Group-15" transform="translate(98.000000, 3104.000000)">
            <g id="Group-14">
                <g id="Group-20" transform="translate(383.000000, 141.000000)">
                    <rect id="Rectangle-11-Copy" fill="#EFEFEF" x="0" y="0" width="276" height="375"></rect>
                    <text id="Voor-4-personen" font-family="Merriweather-BoldItalic, Merriweather" font-size="15" font-style="italic" font-weight="bold" line-spacing="23" letter-spacing="0.187499985" fill="#4A4A4A">
                        <tspan x="80" y="104">Voor 4 personen</tspan>
                    </text>
                    <g id="Page-1" transform="translate(123.000000, 47.000000)" fill="#FC312A">
                        <path d="M15.4718689,27.012189 C16.0593286,26.2311209 16.6477509,25.588367 17.075782,24.8514665 C18.0446764,23.1839482 18.9663969,21.4862099 19.8380553,19.7652257 C20.1220615,19.2046079 20.3995211,18.9120948 21.0591857,18.9552937 C22.5889683,19.0554455 24.1628441,18.8944665 25.6469932,19.1966654 C28.7514217,19.8285712 30.889459,22.6684665 30.8988938,25.8504665 C30.9073658,28.7221314 30.8798317,31.5941838 30.9135273,34.4654613 C30.9233472,35.3013513 30.6358752,35.7224927 29.7929062,35.8121838 C26.6106888,36.1506079 23.4379062,36.7139377 20.2491422,36.8200948 C16.1269124,36.9574403 11.9890863,36.8251314 7.8655087,36.6374194 C5.57227888,36.5330058 3.29618571,36.0680843 1.00950248,35.7904874 C0.250676398,35.698278 -0.00656583851,35.3123932 0.000173291925,34.562901 C0.0271298137,31.5300634 -0.0175409938,28.4966445 0.0213534161,25.4640005 C0.0646763975,22.0828592 3.09747764,19.0467283 6.45587516,18.9735031 C7.5778441,18.9490948 8.7025087,19.0056602 9.82255217,18.9525817 C10.4731671,18.9215869 10.7631422,19.1956969 11.0625522,19.748566 C12.1945335,21.8391628 13.3890925,23.8958592 14.5838441,25.9513932 C14.7865957,26.3004717 15.1056453,26.5809743 15.4718689,27.012189" id="Fill-1"></path>
                        <path d="M24.3653839,9.01899215 C24.3630733,14.0157356 20.4210671,18.0278141 15.485328,18.0568717 C10.5251354,18.0859293 6.53171925,14.0515733 6.53056398,9.00969372 C6.5294087,3.94204974 10.4587068,-0.00765183246 15.4936075,9.68586387e-05 C20.4278062,0.00765183246 24.3676944,4.01295026 24.3653839,9.01899215" id="Fill-4"></path>
                    </g>
                    <text id="Bekijk-de-ingrediënt" font-family="Merriweather-BoldItalic, Merriweather" font-size="15" font-style="italic" font-weight="bold" line-spacing="23" letter-spacing="0.187499985" fill="#4A4A4A">
                        <tspan x="56.879883" y="332">Bekijk de ingrediënten</tspan>
                    </text>
                    <rect id="Rectangle-5-Copy-8" fill="#D8D8D8" x="56" y="130" width="165" height="8"></rect>
                    <rect id="Rectangle-5-Copy-12" fill="#D8D8D8" x="56" y="182" width="150" height="8"></rect>
                    <rect id="Rectangle-5-Copy-16" fill="#D8D8D8" x="56" y="236" width="130" height="8"></rect>
                    <rect id="Rectangle-5-Copy-10" fill="#D8D8D8" x="56" y="156" width="165" height="8"></rect>
                    <rect id="Rectangle-5-Copy-13" fill="#D8D8D8" x="56" y="208" width="60" height="8"></rect>
                    <rect id="Rectangle-5-Copy-17" fill="#D8D8D8" x="56" y="262" width="150" height="8"></rect>
                    <rect id="Rectangle-5-Copy-9" fill="#D8D8D8" x="56" y="143" width="135" height="8"></rect>
                    <rect id="Rectangle-5-Copy-14" fill="#D8D8D8" x="56" y="195" width="100" height="8"></rect>
                    <rect id="Rectangle-5-Copy-18" fill="#D8D8D8" x="56" y="249" width="120" height="8"></rect>
                    <rect id="Rectangle-5-Copy-11" fill="#D8D8D8" x="56" y="169" width="135" height="8"></rect>
                    <rect id="Rectangle-5-Copy-15" fill="#D8D8D8" x="56" y="221" width="135" height="8"></rect>
                </g>
            </g>
        </g>
    </g>
</svg>