<?xml version="1.0" encoding="UTF-8"?>
<svg width="276px" height="375px" viewBox="0 0 276 375" version="1.1" xmlns="http://www.w3.org/2000/svg" xmlns:xlink="http://www.w3.org/1999/xlink">
    <!-- Generator: Sketch 48.2 (47327) - http://www.bohemiancoding.com/sketch -->
    <title>Group 19</title>
    <desc>Created with Sketch.</desc>
    <defs>
        <rect id="path-1" x="0" y="0" width="60" height="60" rx="5"></rect>
        <rect id="path-2" x="0" y="0" width="60" height="60" rx="5"></rect>
        <rect id="path-3" x="0" y="0" width="60" height="60" rx="5"></rect>
        <polygon id="path-4" points="0 34 34 34 34 0 0 0"></polygon>
        <rect id="path-6" x="0" y="0" width="60" height="60" rx="5"></rect>
    </defs>
    <g id="PTCHR-Detail-Amazing-v1.0" stroke="none" stroke-width="1" fill="none" fill-rule="evenodd" transform="translate(-98.000000, -3104.000000)">
        <g id="Group-15" transform="translate(98.000000, 3104.000000)">
            <g id="Group-14">
                <g id="Group-19">
                    <g id="Group-18">
                        <rect id="Rectangle-11" fill="#FFFFFF" x="0" y="0" width="276" height="375"></rect>
                        <g id="Group-9" transform="translate(31.000000, 47.000000)">
                            <g id="Rectangle-2-Copy-7">
                                <use fill="#FFFFFF" fill-rule="evenodd" xlink:href="#path-1"></use>
                                <rect stroke="#E9E9E9" stroke-width="2" x="1" y="1" width="58" height="58" rx="5"></rect>
                            </g>
                            <g id="Page-1" transform="translate(15.000000, 12.000000)" fill="#FC312A">
                                <path d="M15.9902972,24.6943996 C17.3075962,24.5315068 19.716063,24.3453302 22.074982,23.8977242 C23.3605221,23.6538041 24.6235235,23.0785103 25.7816552,22.4432376 C26.7031312,21.9377948 26.6741663,21.0324311 25.769082,20.4751123 C24.9149424,19.949273 23.9660848,19.4914222 22.9975757,19.2515069 C17.8698512,17.9811478 12.7006818,17.9829173 7.54836975,19.0771585 C6.38027268,19.3251765 5.22214105,19.8154383 4.18005542,20.4068445 C3.11114695,21.0135248 3.17205713,21.879865 4.18862382,22.5738126 C4.59478482,22.8511681 5.0431359,23.0886619 5.50350138,23.2613339 C8.53308432,24.3975789 11.7093546,24.5646628 15.9902972,24.6943996 M14.0922093,16.4942502 C18.2621351,16.5733217 21.5692599,16.7113475 24.7413391,17.7965545 C25.6029294,18.0913263 26.4549269,18.4864042 27.2190982,18.9786218 C28.9346418,20.0833872 29.6143398,21.580809 29.0462173,23.5413904 C27.3146545,29.5170143 23.6737345,33.7313655 17.4987089,35.3734257 C14.1737023,36.2575546 11.0945716,35.3661612 8.28068893,33.5851438 C4.68996862,31.3126539 2.18920525,28.1353591 0.920336302,24.0513036 C0.185409344,21.6858651 0.901429931,19.9348371 3.04064388,18.6945606 C4.88415475,17.6258384 6.92436637,17.159978 9.00099372,16.9064649 C10.9714474,16.6659908 12.9609936,16.5816107 14.0922093,16.4942502" id="Fill-1"></path>
                                <path d="M9.96935773,12.5836334 C10.3230838,12.1755166 10.7084758,11.790404 11.0246685,11.3549987 C11.9227677,10.118075 11.8641859,8.91924344 10.8689471,7.76595482 C10.4310271,7.25855626 9.94653969,6.79064686 9.51886454,6.2752387 C7.90167132,4.32592667 8.29013671,2.18932049 10.5113093,0.9944006 C11.2596477,0.591778722 12.0824008,0.327462069 12.8711597,0 C12.8986345,0.0560671688 12.9260161,0.112041203 12.9533977,0.168108372 C12.8859681,0.226410776 12.8217982,0.288997383 12.7506432,0.342270507 C10.8605649,1.75922384 10.3462744,3.71701114 11.3346212,5.87140607 C11.6131875,6.47855204 11.9852612,7.04229718 12.3075077,7.6297917 C13.25264,9.35222728 13.001269,10.5999546 11.442192,11.7939432 C11.0038063,12.1296942 10.5178288,12.4032312 10.0536447,12.7051744 C10.025518,12.6646607 9.99748445,12.6241471 9.96935773,12.5836334" id="Fill-4"></path>
                                <path d="M18.7365845,4.30284787 C20.8266232,4.57685055 21.8808164,6.54274058 20.8978714,8.6922925 C20.6481769,9.23815575 20.2434129,9.75402958 19.7980422,10.1615876 C18.3795055,11.4600734 18.3209237,11.5829183 18.9811565,13.3143879 C17.9223998,12.8970508 17.5220131,11.6330248 18.153933,10.6309872 C18.3776428,10.2763297 18.6658951,9.9620928 18.9266727,9.63090533 C19.6879568,8.66407264 20.0689714,7.53723431 19.8045616,6.3577748 C19.6380365,5.61511765 19.0909625,4.95786515 18.7365845,4.30284787" id="Fill-6"></path>
                            </g>
                            <g id="Group-12" transform="translate(160.000000, 48.000000)">
                                <g id="Rectangle-2-Copy-9">
                                    <use fill="#FFFFFF" fill-rule="evenodd" xlink:href="#path-2"></use>
                                    <rect stroke="#E9E9E9" stroke-width="2" x="1" y="1" width="58" height="58" rx="5"></rect>
                                </g>
                                <g id="Page-1" transform="translate(13.000000, 14.000000)" fill="#FC312A">
                                    <path d="M0,27.1442241 C0.49962,26.791898 1.00518,26.9345223 1.51712,27.1148636 C3.68698,27.8795918 5.90601,28.2521315 8.20963,28.0750651 C11.23507,27.8427783 13.99266,26.7969797 16.5561,25.1933314 C19.66294,23.2495531 22.48378,20.9638377 24.46653,17.7565413 C25.70106,15.7593494 26.53024,13.619759 26.57468,11.2086969 C26.59305,10.2098751 27.45754,9.70645532 28.2975,10.1792724 C29.15385,10.6614622 30.06322,10.8910388 31.03595,10.8657436 C32.02969,10.8397708 32.49136,11.1765132 32.79628,12.1657364 C32.87251,12.4130422 32.93257,12.6655426 33,12.9156715 L33,13.8190717 C32.6337,14.9494511 32.36057,16.1239843 31.87712,17.1988046 C31.29687,18.4890859 30.56636,19.7126285 29.84861,20.9325575 C28.77644,22.7549415 27.5,24.4177624 26.04954,25.9458638 C23.27908,28.8644109 19.81166,30.4023368 16.03041,31.3109315 C14.84307,31.5962931 13.63087,31.7733595 12.43,32 L9.68,32 C9.61378,31.9721075 9.54943,31.9255824 9.48123,31.9189198 C6.89656,31.66721 4.52782,30.7364819 2.24719,29.5168917 C1.38567,29.0561576 0.58377,28.5282332 0,27.7088492 L0,27.1442241 Z" id="Fill-1"></path>
                                    <path d="M29.2140758,0 C31.4207443,0.81634307 31.8350979,2.74561844 31.9896388,4.80867695 C32.0353165,5.41723411 31.9148935,6.03700732 31.919495,6.65123032 C31.9299324,8.07219916 31.970223,9.49282111 31.9992906,10.959926 C30.8560024,11.1140599 29.7328034,10.8203614 28.6750345,10.134217 C30.091603,8.36809461 30.5337897,6.24884025 30.8083046,4.08206224 C30.938716,3.05238305 30.6200947,2.13185796 29.8130479,1.45565764 C29.1997103,0.941916522 28.5208303,0.685681927 27.736454,1.0514175 C27.6687793,1.08298431 27.5932484,1.12380146 27.5240024,1.11894503 C27.3484745,1.10634143 27.1745178,1.07026508 27,1.0435547 C27.0531971,0.87334833 27.0607165,0.657121483 27.1694675,0.542648446 C27.3709205,0.330352996 27.6314066,0.177606651 27.8673143,0 L29.2140758,0 Z" id="Fill-3"></path>
                                </g>
                            </g>
                            <g id="Group-13" transform="translate(0.000000, 116.000000)">
                                <g id="Rectangle-2-Copy-11">
                                    <use fill="#FFFFFF" fill-rule="evenodd" xlink:href="#path-3"></use>
                                    <rect stroke="#E9E9E9" stroke-width="2" x="1" y="1" width="58" height="58" rx="5"></rect>
                                </g>
                                <g id="Page-1" transform="translate(13.000000, 13.000000)">
                                    <g id="Group-3" fill="#FC312A">
                                        <path d="M16.9976027,2.13612305 C8.79550117,2.13612305 2.12286836,8.80111914 2.13541914,17.0264629 C2.1477707,25.176502 8.70631758,31.7003848 16.6865559,31.862748 C24.9779738,32.0314199 31.7120988,25.4019512 31.8634387,17.2887012 C32.0198254,8.9058418 25.2232121,2.12237695 16.9976027,2.13612305 M15.7382746,3.3203125e-05 L18.2617121,3.3203125e-05 C18.6309973,0.0501035156 19.0007473,0.0961894531 19.369302,0.150974609 C23.2892629,0.733623047 26.6334152,2.44384961 29.3607863,5.31910742 C31.6793605,7.76352148 33.1375754,10.6581035 33.7365598,13.9774199 C33.8418801,14.5611973 33.9130676,15.1512168 33.9999934,15.7383145 L33.9999934,18.261752 C33.9498566,18.6309707 33.9038371,19.0007207 33.849052,19.3692754 C33.2663371,23.2892363 31.5560441,26.6333887 28.6809191,29.360627 C26.2366379,31.6792676 23.341923,33.1375488 20.0225402,33.7365996 C19.4387629,33.8419199 18.8488098,33.913041 18.2617121,34.0000332 L15.7382746,34.0000332 C15.3690559,33.9498965 14.9992395,33.9037441 14.6306848,33.8490254 C10.7107238,33.266377 7.36650508,31.5562168 4.6392668,28.6808926 C2.32062617,26.2364785 0.862477734,23.3418965 0.263426953,20.0225137 C0.158106641,19.4387363 0.0869191406,18.8487832 -6.64062463e-06,18.261752 L-6.64062463e-06,15.7383145 C0.0501300781,15.3690293 0.0962160156,14.9992129 0.151001172,14.6306582 C0.733251172,10.710498 2.44367695,7.36647852 5.31906758,4.63924023 C7.76354805,2.32073242 10.6578645,0.862119141 13.9774465,0.263466797 C14.5612238,0.158146484 15.151177,0.0869589844 15.7382746,3.3203125e-05" id="Fill-1"></path>
                                    </g>
                                    <path d="M17.0228238,4.2680625 C23.893148,4.1554375 29.8247535,9.97063281 29.7350387,16.9750313 L17.0228238,16.9750313 L17.0228238,4.2680625 Z" id="Fill-4" fill="#FC312A"></path>
                                    <path d="M11.5472965,28.5878906 C10.9091988,28.2198672 10.3085543,27.8734922 9.68931602,27.516293 C10.048441,26.8949961 10.3952809,26.2949492 10.7635035,25.6579805 C11.3905777,26.0192969 11.9969332,26.3687266 12.6214176,26.728582 C12.2611637,27.3522695 11.914191,27.9528477 11.5472965,28.5878906" id="Fill-6" fill="#FC312A"></path>
                                    <path d="M9.68833984,6.48553984 C10.319,6.12176641 10.9188477,5.77578984 11.5466523,5.41367656 C11.9061758,6.03437578 12.2533477,6.63362578 12.6216367,7.26933281 C12.0035937,7.62653203 11.398832,7.97602812 10.7635898,8.34318828 C10.4028047,7.71989922 10.0562305,7.12111406 9.68833984,6.48553984" id="Fill-8" fill="#FC312A"></path>
                                    <path d="M8.34409805,10.7629988 C7.97355117,11.4040184 7.62677773,12.003866 7.27010977,12.6209793 C6.6456918,12.2600613 6.04551211,11.9130887 5.4131918,11.5475887 C5.77484023,10.9211785 6.12453555,10.3153543 6.48565273,9.68974102 C7.10960586,10.0500613 7.70905508,10.3963035 8.34409805,10.7629988" id="Fill-10" fill="#FC312A"></path>
                                    <path d="M7.27031562,21.3787949 C7.62824531,21.9976348 7.97521797,22.5976152 8.34337422,23.2340527 C7.71962031,23.5957012 7.11273359,23.9475215 6.48619062,24.3106309 C6.12540547,23.6881387 5.77790156,23.0883574 5.41054219,22.4544434 C6.03323359,22.0942559 6.64144844,21.7425684 7.27031562,21.3787949" id="Fill-12" fill="#FC312A"></path>
                                    <path d="M28.587698,22.4519266 C28.2214676,23.0854422 27.8749598,23.6850242 27.5150379,24.3077156 C26.8977918,23.9519773 26.2976785,23.6061336 25.657323,23.2370477 C26.0175105,22.6118992 26.3668074,22.0058094 26.7280574,21.3789344 C27.3478934,21.7365984 27.9481395,22.0828406 28.587698,22.4519266" id="Fill-14" fill="#FC312A"></path>
                                    <path d="M22.4528363,28.5884086 C22.0850121,27.9530336 21.7345199,27.3475414 21.3761254,26.7284359 C21.9998129,26.3689125 22.5989301,26.0235336 23.2350355,25.6568383 C23.5947582,26.2789984 23.9449184,26.884557 24.3084262,27.5134242 C23.6906488,27.8712875 23.0934574,28.2172641 22.4528363,28.5884086" id="Fill-16" fill="#FC312A"></path>
                                    <mask id="mask-5" fill="white">
                                        <use xlink:href="#path-4"></use>
                                    </mask>
                                    <g id="Clip-19"></g>
                                    <polygon id="Fill-18" fill="#FC312A" mask="url(#mask-5)" points="4.25278906 18.0526055 6.35547656 18.0526055 6.35547656 15.9570898 4.25278906 15.9570898"></polygon>
                                    <polygon id="Fill-20" fill="#FC312A" mask="url(#mask-5)" points="15.9575547 29.7477422 18.0424453 29.7477422 18.0424453 27.6464492 15.9575547 27.6464492"></polygon>
                                </g>
                            </g>
                            <g id="Group-2" transform="translate(160.000000, 184.000000)">
                                <g id="Group-10">
                                    <g id="Rectangle-2-Copy-12">
                                        <use fill="#FFFFFF" fill-rule="evenodd" xlink:href="#path-6"></use>
                                        <rect stroke="#E9E9E9" stroke-width="2" x="1" y="1" width="58" height="58" rx="5"></rect>
                                    </g>
                                </g>
                                <g id="Page-1" transform="translate(14.000000, 14.000000)" fill="#FC312A">
                                    <g id="Group-3">
                                        <path d="M16.2070348,10.8718693 C15.9418102,10.4038107 15.9615973,9.94645137 16.3318805,9.6099416 C16.6362926,9.33317988 16.9924605,9.08993379 17.3652574,8.91713496 C17.9765953,8.63373457 18.6200309,8.4198791 19.2497379,8.17611738 C19.6323316,8.0280041 19.7382926,7.83103535 19.6365211,7.4297502 C19.5759996,7.19095137 19.4619176,6.9596291 19.4410992,6.71889668 C19.4262105,6.54751582 19.4686852,6.28706074 19.5848297,6.20211152 C20.3190797,5.66489473 21.0726012,5.15223457 21.838691,4.66123066 C22.1024977,4.49217012 22.4165777,4.6094748 22.5910523,4.87863105 C22.6656246,4.99355098 22.7111285,5.12883809 22.7601773,5.25851777 C22.8947555,5.61404121 22.9918863,5.67301582 23.3369039,5.51375215 C23.8488551,5.27740254 24.3482379,5.01385371 24.8937691,4.74160371 C22.3586988,2.96095723 19.572068,2.06989277 16.4943023,2.0807209 C16.6247555,2.19402949 16.8248824,2.2479123 16.8937184,2.3735959 C16.9724156,2.51739082 16.93065,2.72550996 16.9489547,2.90494746 C16.9564957,2.97868184 16.9833082,3.05067598 17.0031598,3.12292793 C17.0910738,3.44300215 17.2378336,3.64287129 17.6345426,3.61045137 C17.8473668,3.59311348 18.1098844,3.68392793 18.2851324,3.81354316 C18.6362086,4.07328926 18.548359,4.5125373 18.1476539,4.66954512 C17.8681852,4.77905098 17.5908434,4.89461543 17.3086676,4.99683809 C15.6563473,5.59554316 14.004607,6.19611738 12.3475172,6.78160957 C12.131148,6.85805098 11.8834547,6.88473457 11.6543238,6.87042598 C11.5321207,6.86275605 11.351523,6.73823262 11.3187164,6.62975801 C11.2817848,6.5078127 11.3402438,6.3069123 11.4307359,6.20694551 C11.6161031,6.00204902 11.8452984,5.83479316 12.0659215,5.6643791 C12.7711676,5.11968574 13.4829234,4.5835002 14.1864938,4.03667988 C14.3130797,3.93832441 14.4125309,3.80503535 14.5244859,3.68785957 C14.5052789,3.6575666 14.4861363,3.62727363 14.4669293,3.59698066 C14.2862672,3.64789863 14.0941969,3.67451777 13.9268766,3.7535373 C12.7447418,4.31228145 11.5626715,4.87167012 10.3909781,5.45187715 C9.75598594,5.76627949 9.2096168,6.17188301 9.21677109,6.99127559 C9.21748008,7.07248652 9.19227891,7.17999434 9.13762266,7.2307834 C8.97223594,7.3845041 8.8034332,7.59455684 8.60453086,7.63761152 C8.33479453,7.69607051 8.00550352,7.69259004 7.7555543,7.58766035 C7.08253477,7.3051623 6.45927305,7.40957637 5.82196055,7.6732541 C5.65045078,7.74421699 5.44916367,7.78888301 5.26669688,7.7754123 C5.05258359,7.75962129 4.9361168,7.83258223 4.81720078,7.99674434 C3.96745078,9.16972676 3.29314219,10.4349416 2.83836094,11.8094045 C2.71912266,12.1698908 2.61290391,12.5689846 2.64300352,12.9387521 C2.80310508,14.9094709 3.3129293,16.7534748 4.75893516,18.2146271 C4.86463828,18.321426 4.96434727,18.4344123 5.07256406,18.538633 C5.31194297,18.7691174 5.40153281,19.0507131 5.40739805,19.3793596 C5.42170664,20.185926 5.14256016,20.891301 4.69776914,21.5449201 C4.45026914,21.9085646 4.1916832,22.2653771 3.96010313,22.638883 C3.74753672,22.9816447 3.73902891,23.319508 3.95997422,23.6937229 C5.60791172,26.4845432 7.90792148,28.5317678 10.8863004,29.8098088 C11.0386031,29.8752287 11.2417594,29.8870881 11.405277,29.8511232 C12.8714566,29.5281486 14.3271305,29.1552873 15.8421012,29.1193869 C17.3296148,29.0841311 18.7261852,29.3766838 19.9613648,30.2395178 C20.2041598,30.4091584 20.4036422,30.4266896 20.6681578,30.3380666 C25.9483512,28.5696662 29.2687184,24.9877482 30.6080543,19.5839982 C30.8481422,18.6155256 30.9441773,17.6216584 30.9395367,16.6882482 C30.7514625,16.6187033 30.5884605,16.5942756 30.4707691,16.5081018 C30.1246559,16.2547365 29.7879527,15.986676 29.4633668,15.7061115 C29.0085855,15.312883 28.5641813,14.907215 28.1228707,14.4987756 C27.9186832,14.3097346 27.6848473,14.2989064 27.4696383,14.4145354 C27.2285191,14.5440861 27.4120816,14.7338361 27.4684137,14.8915529 C27.6368941,15.3636076 27.443277,15.7451701 26.959234,15.8387561 C26.7624586,15.8767834 26.5530504,15.887676 26.3538258,15.8673732 C25.7094879,15.8016955 25.1937984,15.4536486 24.7834254,14.9941623 C24.1697027,14.3069631 23.6179195,13.5647854 23.0274,12.8563811 C22.7469,12.5198068 22.4862516,12.1350217 22.1325328,11.8971252 C21.0060855,11.1394143 19.7791559,10.5761584 18.4659234,10.2087756 C18.0625113,10.0958537 17.6891988,10.1213771 17.3178199,10.3204084 C16.9592672,10.5125432 16.5893063,10.683215 16.2070348,10.8718693 M15.5976305,-1.93359375e-05 L17.402318,-1.93359375e-05 C17.4956461,0.0197677734 17.5880074,0.0508986328 17.6822379,0.0576662109 C21.0053121,0.297045117 23.9952281,1.42864863 26.6095758,3.48618574 C30.0734801,6.21242402 32.1505465,9.76798066 32.8113199,14.1363557 C32.884732,14.6218811 32.937648,15.1105002 32.9999742,15.5976369 L32.9999742,17.4023244 C32.9796715,17.4954592 32.947316,17.5876916 32.9408063,17.6817287 C32.7573727,20.3408068 31.9899938,22.8227678 30.5725406,25.0759201 C27.8429508,29.41484 23.9397984,32.0113986 18.8624391,32.8111975 C18.377816,32.88751 17.8891324,32.9376545 17.402318,32.9999807 L15.5976305,32.9999807 C15.2707242,32.9577639 14.9442047,32.9123244 14.6168473,32.8737814 C10.9470152,32.4418811 7.7658668,30.9531428 5.10272813,28.3992521 C2.37159141,25.7802639 0.729519141,22.5833889 0.183923438,18.8324104 C0.114765234,18.3568752 0.060946875,17.8790842 -2.57812499e-05,17.4023244 L-2.57812499e-05,15.5976369 C0.0697125,15.0356057 0.119728125,14.4702229 0.212476172,13.9119299 C0.792167578,10.42334 2.30520469,7.4000373 4.80192539,4.89197285 C7.38810703,2.29393184 10.5039645,0.720179883 14.1371227,0.187925977 C14.6227125,0.116769727 15.1107516,0.0622423828 15.5976305,-1.93359375e-05" id="Fill-1"></path>
                                    </g>
                                    <path d="M18.8198742,12.0215133 C18.6853605,12.4298883 18.8856164,12.614482 19.1260266,12.7157379 C19.6178039,12.9228902 20.1188625,13.1186344 20.6322961,13.2604313 C21.1680949,13.4084156 21.7253566,13.4768004 22.267923,13.6026773 C22.4433645,13.6433473 22.6493566,13.7154059 22.758927,13.8435387 C23.0144191,14.1424078 23.2320129,14.4764684 23.4414211,14.8109801 C23.5944973,15.0554508 23.7098684,15.3235113 23.8425129,15.5808082 C24.0751887,16.0323023 24.401257,16.3809293 24.8704113,16.6047105 C25.2468176,16.784277 25.5993117,17.0134723 25.9652121,17.2155973 C26.142007,17.3132438 26.2000793,17.4536227 26.1515461,17.6447262 C26.1489035,17.6551031 26.1462609,17.6659313 26.1465188,17.6765016 C26.1653391,18.4578668 25.7338254,18.9190289 25.0629328,19.2197027 C24.4870441,19.477773 24.0935578,19.9224352 23.7275285,20.4332906 C22.8784875,21.6180035 22.0016672,22.7850563 21.0851438,23.9179488 C20.7550793,24.3258082 20.3093859,24.6636715 19.8620813,24.9475875 C19.1723039,25.385482 18.6124641,25.1942496 18.3920344,24.4069547 C18.2005441,23.7229137 18.1658039,22.9954957 18.0533977,22.2885738 C17.8635832,21.0939352 17.6702238,19.8998121 17.4697746,18.7069781 C17.4435422,18.5510016 17.368132,18.4028883 17.3122512,18.2523258 C17.1804445,17.896609 16.9413879,17.6720543 16.5653039,17.5661578 C15.8023723,17.3514645 15.041052,17.1280699 14.2898508,16.8761227 C13.7087414,16.6812809 13.1540578,16.4194723 12.7088156,15.9768727 C12.2742082,15.5449078 12.1726945,15.0397887 12.3910617,14.4711188 C13.0493215,12.7572457 15.169507,11.3816227 16.9928215,11.555066 C17.5995188,11.612816 18.1887492,11.854773 18.8198742,12.0215133" id="Fill-4"></path>
                                </g>
                            </g>
                        </g>
                        <text id="Maak-je-keuze" font-family="Merriweather-BoldItalic, Merriweather" font-size="15" font-style="italic" font-weight="bold" line-spacing="23" letter-spacing="0.187499985" fill="#4A4A4A">
                            <tspan x="84.1799317" y="332">Maak je keuze</tspan>
                        </text>
                    </g>
                    <rect id="Rectangle-5-Copy-3" fill="#DDDDDD" x="110" y="70" width="140" height="8"></rect>
                    <rect id="Rectangle-5-Copy-6" fill="#DDDDDD" x="31" y="127" width="140" height="8"></rect>
                    <rect id="Rectangle-5-Copy-7" fill="#DDDDDD" x="110" y="193" width="140" height="8"></rect>
                    <rect id="Rectangle-5-Copy-29" fill="#DDDDDD" x="31" y="261" width="140" height="8"></rect>
                </g>
            </g>
        </g>
    </g>
</svg>