<svg xmlns="http://www.w3.org/2000/svg" viewBox="0 0 133.3 76.3">
  <title>cloud-2-1</title>
  <g id="Layer_2" data-name="Layer 2">
    <g id="Laag_1" data-name="Laag 1">
      <path d="M129.5,74.8a19.8,19.8,0,0,0,2.3-9.4,20.1,20.1,0,0,0-10.9-17.9,16.3,16.3,0,0,0,3.5-10.1,16.5,16.5,0,0,0-23.6-15,21.8,21.8,0,0,0-43.3-2.9,17.7,17.7,0,0,0-5.2-.8A16.5,16.5,0,0,0,35.8,33.4a15.2,15.2,0,0,0-5.7-1.1A15.7,15.7,0,0,0,14.4,48.1a12.8,12.8,0,0,0,.1,1.9,20.1,20.1,0,0,0-13,18.8,19.8,19.8,0,0,0,.9,6Z" fill="#fff" stroke="#404c61" stroke-miterlimit="10" stroke-width="3"/>
    </g>
  </g>
</svg>
