<svg xmlns="http://www.w3.org/2000/svg" viewBox="0 0 157.6 70.5">
  <title>cloud-1-1</title>
  <g id="Layer_2" data-name="Layer 2">
    <g id="Laag_1" data-name="Laag 1">
      <path d="M7,69H151.7a18.5,18.5,0,0,0,4.4-11.9,18.3,18.3,0,0,0-17.3-18.2,19.3,19.3,0,0,0-15-9.9,25.1,25.1,0,0,0,.7-5.5A22,22,0,0,0,81,19a20.7,20.7,0,0,0-5-.6,18.6,18.6,0,0,0-7.5,1.5A19.3,19.3,0,0,0,32.8,30.2a19.3,19.3,0,0,0,.1,2.4h-.1a15.5,15.5,0,0,0-14.1,8.9H17.1A15.6,15.6,0,0,0,7,69Z" fill="#fff" stroke="#404c61" stroke-miterlimit="10" stroke-width="3"/>
    </g>
  </g>
</svg>
