<?xml version="1.0" encoding="UTF-8"?>
<svg width="568px" height="395px" viewBox="0 0 568 395" version="1.1" xmlns="http://www.w3.org/2000/svg" xmlns:xlink="http://www.w3.org/1999/xlink">
    <!-- Generator: Sketch 48.2 (47327) - http://www.bohemiancoding.com/sketch -->
    <title>Group 19</title>
    <desc>Created with Sketch.</desc>
    <defs>
        <path d="M0.372439599,8.7804 L15.7717322,3.5811 L5.22861805,0.7722 C5.72490286,2.1699 0.372439599,8.7804 0.372439599,8.7804 Z" id="path-1"></path>
    </defs>
    <g id="PTCHR-Detail-Mailcampaigns-v1.0" stroke="none" stroke-width="1" fill="none" fill-rule="evenodd" transform="translate(-171.000000, -2715.000000)">
        <g id="Group-19" transform="translate(171.000000, 2715.000000)">
            <g id="Page-1" transform="translate(104.136865, 335.000000) scale(-1, 1) translate(-104.136865, -335.000000) translate(22.136865, 274.000000)">
                <g id="Group-3" transform="translate(3.615918, 52.290000)">
                    <mask id="mask-2" fill="white">
                        <use xlink:href="#path-1"></use>
                    </mask>
                    <g id="Clip-2"></g>
                    <polygon id="Fill-1" fill="#D61933" mask="url(#mask-2)" points="15.6392088 18.47817 21.4707813 0.70047 0.503878234 -6.11703 -5.32769422 11.66157"></polygon>
                </g>
                <g id="Group-14" transform="translate(0.000000, 0.090000)">
                    <path d="M109.494168,0.59067 C124.981147,12.87837 127.53037,35.33967 115.187432,50.75847 L107.358969,60.53877 C99.0568199,70.91037 104.614487,76.30227 104.614487,76.30227 L82.4136513,58.68747 C75.8525673,53.48187 74.7732157,43.96617 80.0018337,37.43487 L109.494168,0.59067 Z" id="Fill-4" fill="#FD2342"></path>
                    <path d="M153.976383,98.04465 C134.253356,121.69755 94.060615,131.01255 69.2156394,102.03165 C46.3838265,75.39885 44.2658023,67.86495 26.7819327,60.18795 C7.77847333,51.84225 0.377592282,59.01435 0.377592282,59.01435 L24.6431169,29.91465 C35.2124465,17.23905 54.1029083,15.49305 66.8345571,26.01765 L153.976383,98.04465 Z" id="Fill-6" fill="#FD2342"></path>
                    <path d="M143.74921,18.99936 C147.959947,40.84956 133.582151,61.96176 111.635335,66.15396 L97.7131446,68.81346 C82.9511576,71.63226 83.7376198,80.31636 83.7376198,80.31636 L77.701748,48.99366 C75.9172923,39.73716 82.0083069,30.79296 91.3057371,29.01726 L143.74921,18.99936 Z" id="Fill-8" fill="#D51933"></path>
                    <path d="M33.2050694,43.25895 C34.683076,44.48025 34.8855675,46.66275 33.6597711,48.13335 C32.4330708,49.60485 30.2409202,49.80735 28.7638175,48.58605 C27.2858109,47.36475 27.0833195,45.18225 28.3091158,43.71165 C29.5358161,42.24015 31.7279667,42.03855 33.2050694,43.25895" id="Fill-10" fill="#D51933"></path>
                    <path d="M128.313578,115.82847 C128.313578,115.82847 156.134454,107.32707 161.699352,76.41297 C161.699352,76.41297 173.25402,107.61417 128.313578,115.82847" id="Fill-12" fill="#D51933"></path>
                </g>
            </g>
            <ellipse id="Oval-2" fill="#FFF09B" cx="272.637969" cy="207.4375" rx="26.4569536" ry="26.4375"></ellipse>
            <g id="Group-2" transform="translate(334.803532, 172.000000) scale(-1, 1) translate(-334.803532, -172.000000) translate(256.803532, 136.000000)" fill="#FFFFFF">
                <rect id="Rectangle" x="0" y="58.4150943" width="125.642384" height="13.5849057" rx="6.79245283"></rect>
                <rect id="Rectangle-2" x="59.4437086" y="23.0943396" width="95.9205298" height="48.9056604" rx="24.4528302"></rect>
                <ellipse id="Oval" cx="101.324503" cy="33.9622642" rx="33.7748344" ry="33.9622642"></ellipse>
                <ellipse id="Oval-Copy" cx="60.794702" cy="39.3962264" rx="28.3708609" ry="28.5283019"></ellipse>
                <ellipse id="Oval-Copy-2" cx="30.397351" cy="50.9433962" rx="16.8874172" ry="16.9811321"></ellipse>
            </g>
            <g id="Group-2-Copy" transform="translate(0.000000, 169.000000)" fill="#FFFFFF">
                <rect id="Rectangle" x="0" y="41.9858491" width="90.1347538" height="9.76415094" rx="4.88207547"></rect>
                <rect id="Rectangle-2" x="42.6443997" y="16.5990566" width="68.812554" height="35.1509434" rx="17.5754717"></rect>
                <ellipse id="Oval" cx="72.6893176" cy="24.4103774" rx="24.2297725" ry="24.4103774"></ellipse>
                <ellipse id="Oval-Copy" cx="43.6135906" cy="28.3160377" rx="20.3530089" ry="20.504717"></ellipse>
                <ellipse id="Oval-Copy-2" cx="21.8067953" cy="36.615566" rx="12.1148863" ry="12.2051887"></ellipse>
            </g>
            <g id="Group-2-Copy" transform="translate(216.582781, 26.000000) scale(-1, 1) translate(-216.582781, -26.000000) translate(160.582781, 0.000000)" fill="#FFFFFF">
                <rect id="Rectangle" x="0" y="41.9858491" width="90.1347538" height="9.76415094" rx="4.88207547"></rect>
                <rect id="Rectangle-2" x="42.6443997" y="16.5990566" width="68.812554" height="35.1509434" rx="17.5754717"></rect>
                <ellipse id="Oval" cx="72.6893176" cy="24.4103774" rx="24.2297725" ry="24.4103774"></ellipse>
                <ellipse id="Oval-Copy" cx="43.6135906" cy="28.3160377" rx="20.3530089" ry="20.504717"></ellipse>
                <ellipse id="Oval-Copy-2" cx="21.8067953" cy="36.615566" rx="12.1148863" ry="12.2051887"></ellipse>
            </g>
            <g id="Group-4-Copy-2" opacity="0.4" transform="translate(412.803532, 136.000000)" stroke="#213875" stroke-linecap="square" stroke-width="1.125">
                <path d="M0.695387533,9.5722168 C4.5418245,6.12972712 7.97252842,4.40848229 10.9874993,4.40848229 C14.0024701,4.40848229 16.6768298,6.12972712 19.0105781,9.5722168" id="Line-2" transform="translate(9.852983, 6.990350) rotate(-330.000000) translate(-9.852983, -6.990350) "></path>
                <path d="M14.2053213,9.5722168 C18.0517583,6.12972712 21.4824622,4.40848229 24.497433,4.40848229 C27.5124039,4.40848229 30.1867635,6.12972712 32.5205119,9.5722168" id="Line-2-Copy-2" transform="translate(23.362917, 6.990350) scale(-1, 1) rotate(-330.000000) translate(-23.362917, -6.990350) "></path>
            </g>
            <g id="Group-4-Copy" opacity="0.4" transform="translate(152.737307, 221.500000)" stroke="#213875" stroke-linecap="square" stroke-width="1.125">
                <path d="M0.0913500789,7.16048446 C3.25656457,5.32757694 6.34665725,4.41112318 9.36162811,4.41112318 C12.376599,4.41112318 15.3915698,5.32757694 18.4065407,7.16048446" id="Line-2" transform="translate(9.248945, 5.785804) rotate(-330.000000) translate(-9.248945, -5.785804) "></path>
                <path d="M14.7271117,7.16048446 C17.8923262,5.32757694 20.9824188,4.41112318 23.9973897,4.41112318 C27.0123606,4.41112318 30.0273314,5.32757694 33.0423023,7.16048446" id="Line-2-Copy" transform="translate(23.884707, 5.785804) scale(-1, 1) rotate(-330.000000) translate(-23.884707, -5.785804) "></path>
            </g>
            <g id="Group-4" transform="translate(534.392936, 221.500000)" stroke="#213875" stroke-linecap="square" stroke-width="1.125">
                <path d="M0.695387533,9.5722168 C4.5418245,6.12972712 7.97252842,4.40848229 10.9874993,4.40848229 C14.0024701,4.40848229 16.6768298,6.12972712 19.0105781,9.5722168" id="Line-2" transform="translate(9.852983, 6.990350) rotate(-330.000000) translate(-9.852983, -6.990350) "></path>
                <path d="M14.2053213,9.5722168 C18.0517583,6.12972712 21.4824622,4.40848229 24.497433,4.40848229 C27.5124039,4.40848229 30.1867635,6.12972712 32.5205119,9.5722168" id="Line-2-Copy-2" transform="translate(23.362917, 6.990350) scale(-1, 1) rotate(-330.000000) translate(-23.362917, -6.990350) "></path>
            </g>
        </g>
    </g>
</svg>