<?xml version="1.0" encoding="UTF-8"?>
<svg width="410px" height="147px" viewBox="0 0 410 147" version="1.1" xmlns="http://www.w3.org/2000/svg" xmlns:xlink="http://www.w3.org/1999/xlink">
    <!-- Generator: Sketch 48.2 (47327) - http://www.bohemiancoding.com/sketch -->
    <title>Group 3 Copy</title>
    <desc>Created with Sketch.</desc>
    <defs>
        <polygon id="path-1" points="0 56 410 56 410 0 0 0"></polygon>
    </defs>
    <g id="PTCHR-Detail-Mailcampaigns-v1.0" stroke="none" stroke-width="1" fill="none" fill-rule="evenodd" transform="translate(-549.000000, -2579.000000)">
        <g id="Group-3-Copy" transform="translate(549.000000, 2579.000000)">
            <g id="Group" transform="translate(158.000000, 0.000000)" fill="#FE2342">
                <g id="Page-1">
                    <path d="M62.9896907,60.2517986 C48.2371724,60.2517986 36.2779288,48.4291535 36.2779288,33.8451386 L36.2779288,10.377835 C36.2779288,0.568641527 30.5257732,0 30.5257732,0 L51.6732934,0 C57.9231773,0 62.9896907,5.00860458 62.9896907,11.1871022 L62.9896907,60.2517986 Z" id="Fill-1"></path>
                    <path d="M32.4639175,45.7913669 C17.7113992,45.7913669 5.75215556,34.0314656 5.75215556,19.5248494 L5.75215556,10.3227589 C5.75215556,0.565623699 0,0 0,0 L21.1475202,0 C27.3974041,0 32.4639175,4.98202349 32.4639175,11.1277313 L32.4639175,45.7913669 Z" id="Fill-3"></path>
                    <path d="M79.6853671,0 L61.5360825,0 C61.5360825,0 67.288238,0.563226012 67.288238,10.2790006 L67.288238,40.8448266 C67.288238,55.2899491 79.2474817,67 94,67 L94,14.0163613 C94,6.27534393 87.5911152,0 79.6853671,0" id="Fill-5"></path>
                </g>
            </g>
            <g id="Page-1" transform="translate(0.000000, 92.000000)">
                <path d="M9.19038209,16.4686735 L9.19038209,19.7484292 C11.8900627,17.0542757 14.1881282,16.058704 17.577064,16.058704 C21.6554899,16.058704 24.3551705,17.5227095 26.422936,20.9783377 C28.4909365,17.6985819 31.4204471,16 35.211703,16 C40.8982343,16 44,19.4556281 44,25.780803 L44,43 L34.8096179,43 L34.8096179,29.8807373 C34.8096179,27.1865837 34.7518079,26.7179103 34.3501928,25.6638742 C33.7180427,24.1996291 32.4542124,23.3209861 30.960787,23.3209861 C28.0888514,23.3209861 26.595191,25.5467058 26.595191,29.8807373 L26.595191,43 L17.404574,43 L17.404574,29.8807373 C17.404574,27.0694154 17.3472339,26.6007419 17.0027239,25.6638742 C16.4857237,24.1996291 14.9347234,23.1453534 13.383958,23.1453534 C12.0052127,23.1453534 10.3968724,24.1409251 9.82206223,25.3710731 C9.36263713,26.3079408 9.19038209,27.5380888 9.19038209,29.8807373 L9.19038209,43 L0,43 L0,16.4686735 L9.19038209,16.4686735 Z" id="Fill-1" fill="#213875"></path>
                <path d="M59.7866346,28.9711844 C59.7866346,32.2753746 62.5408263,34.9999322 65.880955,34.9999322 C69.2213234,34.9999322 71.9170173,32.3334802 71.9170173,29.0290528 C71.9170173,25.666757 69.2213234,23.0000678 65.880955,23.0000678 C62.4820887,23.0000678 59.7866346,25.666757 59.7866346,28.9711844 Z M81,15.869686 L81,42.1305512 L71.6240488,42.1305512 L71.6240488,39.231914 C69.57255,41.8404977 66.9940914,43 63.4197318,43 C55.8600894,43 50,36.8552782 50,28.9711844 C50,21.0292222 55.8015916,15 63.3609942,15 C66.7601002,15 69.2798212,16.0435283 71.6240488,18.4204013 L71.6240488,15.869686 L81,15.869686 Z" id="Fill-3" fill="#213875"></path>
                <mask id="mask-2" fill="white">
                    <use xlink:href="#path-1"></use>
                </mask>
                <g id="Clip-6"></g>
                <path d="M86.5557197,43 L95.4445076,43 L95.4445076,16.4642496 L86.5557197,16.4642496 L86.5557197,43 Z M96,6.27201767 C96,9.2007566 93.7780303,11.5437957 90.9998864,11.5437957 C88.222197,11.5437957 86,9.2007566 86,6.27201767 C86,3.34303908 88.222197,1 90.9998864,1 C93.7780303,1 96,3.34303908 96,6.27201767 Z" id="Fill-5" fill="#213875" mask="url(#mask-2)"></path>
                <polygon id="Fill-7" fill="#213875" mask="url(#mask-2)" points="102 43 111 43 111 0 102 0"></polygon>
                <path d="M138,24.3528213 C136.191531,23.1329191 134.849857,22.6680587 133.158325,22.6680587 C129.483397,22.6680587 126.741579,25.3402933 126.741579,28.9420113 C126.741579,32.7759218 129.366698,35.3899301 133.274785,35.3899301 C134.966317,35.3899301 136.483158,34.8093298 138,33.6474163 L138,41.5476675 C135.608278,42.5933659 133.79957,43 131.408325,43 C123.358278,43 117,36.9004889 117,29.1744415 C117,20.9835336 123.241579,15 131.816651,15 C134.149905,15 135.899905,15.4066341 138,16.4523325 L138,24.3528213 Z" id="Fill-8" fill="#213875" mask="url(#mask-2)"></path>
                <path d="M151.786471,28.9711844 C151.786471,32.2753746 154.540684,34.9999322 157.880838,34.9999322 C161.221472,34.9999322 163.916947,32.3334802 163.916947,29.0290528 C163.916947,25.666757 161.221472,23.0000678 157.880838,23.0000678 C154.482185,23.0000678 151.786471,25.666757 151.786471,28.9711844 Z M173,15.869686 L173,42.1305512 L163.624216,42.1305512 L163.624216,39.231914 C161.572701,41.8404977 158.994223,43 155.419596,43 C147.860135,43 142,36.8552782 142,28.9711844 C142,21.0292222 147.801397,15 155.361098,15 C158.76023,15 161.27997,16.0435283 163.624216,18.4204013 L163.624216,15.869686 L173,15.869686 Z" id="Fill-9" fill="#213875" mask="url(#mask-2)"></path>
                <path d="M188.190196,16.4686735 L188.190196,19.7484292 C190.890126,17.0542757 193.187969,16.058704 196.576923,16.058704 C200.655371,16.058704 203.355066,17.5227095 205.423077,20.9783377 C207.491089,17.6985819 210.42038,16 214.211656,16 C219.898218,16 223,19.4556281 223,25.780803 L223,43 L213.809569,43 L213.809569,29.8807373 C213.809569,27.1865837 213.751994,26.7179103 213.350141,25.6638742 C212.718223,24.1996291 211.454151,23.3209861 209.960952,23.3209861 C207.088531,23.3209861 205.595098,25.5467058 205.595098,29.8807373 L205.595098,43 L196.404667,43 L196.404667,29.8807373 C196.404667,27.0694154 196.347092,26.6007419 196.00258,25.6638742 C195.485812,24.1996291 193.934803,23.1453534 192.38356,23.1453534 C191.005277,23.1453534 189.396693,24.1409251 188.822115,25.3710731 C188.362687,26.3079408 188.190196,27.5380888 188.190196,29.8807373 L188.190196,43 L179,43 L179,16.4686735 L188.190196,16.4686735 Z" id="Fill-10" fill="#213875" mask="url(#mask-2)"></path>
                <path d="M240.083222,28.8707323 C240.083222,32.1511655 242.837414,34.8561337 246.177783,34.8561337 C249.517911,34.8561337 252.213605,32.2088533 252.213605,28.8707323 C252.213605,25.5900636 249.517911,22.9425477 246.177783,22.9425477 C242.778916,22.9425477 240.083222,25.5900636 240.083222,28.8707323 Z M231,55 L231,15.863433 L240.376191,15.863433 L240.376191,18.7409936 C242.42721,16.1511655 245.005669,15 248.580268,15 C256.139911,15 262,21.100777 262,28.9281846 C262,36.7555922 256.198648,42.7986814 248.639006,42.7986814 C245.2399,42.7986814 242.720179,41.762656 240.376191,39.4031081 L240.376191,55 L231,55 Z" id="Fill-11" fill="#213875" mask="url(#mask-2)"></path>
                <path d="M275.786471,28.9711844 C275.786471,32.2753746 278.540684,34.9999322 281.880838,34.9999322 C285.221232,34.9999322 287.916947,32.3334802 287.916947,29.0290528 C287.916947,25.666757 285.221232,23.0000678 281.880838,23.0000678 C278.481946,23.0000678 275.786471,25.666757 275.786471,28.9711844 Z M297,15.869686 L297,42.1305512 L287.623976,42.1305512 L287.623976,39.231914 C285.572462,41.8404977 282.993983,43 279.419596,43 C271.859895,43 266,36.8552782 266,28.9711844 C266,21.0292222 271.801397,15 279.360858,15 C282.75999,15 285.27997,16.0435283 287.623976,18.4204013 L287.623976,15.869686 L297,15.869686 Z" id="Fill-12" fill="#213875" mask="url(#mask-2)"></path>
                <path d="M302.55572,43 L311.444508,43 L311.444508,16.4642496 L302.55572,16.4642496 L302.55572,43 Z M312,6.27201767 C312,9.2007566 309.77803,11.5437957 306.999886,11.5437957 C304.222424,11.5437957 302,9.2007566 302,6.27201767 C302,3.34303908 304.222424,1 306.999886,1 C309.77803,1 312,3.34303908 312,6.27201767 Z" id="Fill-13" fill="#213875" mask="url(#mask-2)"></path>
                <path d="M327.542809,28.6979044 C327.542809,31.9783377 330.171406,34.6258535 333.428164,34.6258535 C336.68539,34.6258535 339.314221,31.9783377 339.314221,28.6979044 C339.314221,25.4172357 336.68539,22.7697198 333.428164,22.7697198 C330.171406,22.7697198 327.542809,25.4172357 327.542809,28.6979044 Z M348,40.0360254 C348,45.5613374 347.199779,48.0934777 344.51414,50.7986814 C341.770991,53.6185543 337.942647,55 333.028404,55 C325.199888,55 319.314065,51.0287262 318.285443,44.9856369 L328.571197,44.9856369 C329.200059,46.7697198 330.628441,47.6331528 332.914087,47.6331528 C336.628114,47.6331528 338.856718,45.2733694 338.856718,41.3597834 L338.856718,38.9425477 C336.114037,41.474688 334.056792,42.338121 330.628441,42.338121 C323.256961,42.338121 318,36.8704968 318,29.1582293 C318,21.100777 323.656954,15 331.142752,15 C334.456786,15 336.68539,15.9783377 338.856718,18.4532611 L338.856718,15.7482929 L348,15.7482929 L348,40.0360254 Z" id="Fill-14" fill="#213875" mask="url(#mask-2)"></path>
                <path d="M363.372156,16.5830771 L363.372156,19.9071413 C365.891337,16.9912788 368.058714,16 371.98319,16 C375.146545,16 377.665486,16.9912788 379.539773,18.915624 C381.4143,20.781757 382,22.5896777 382,26.2050419 L382,43 L372.627604,43 L372.627604,29.6455307 C372.627604,26.963233 372.56889,26.4383681 372.041665,25.4470894 C371.455725,24.2222458 369.933001,23.4058424 368.29261,23.4058424 C365.188209,23.4058424 363.372156,25.3886385 363.372156,28.8293659 L363.372156,43 L354,43 L354,16.5830771 L363.372156,16.5830771 Z" id="Fill-15" fill="#213875" mask="url(#mask-2)"></path>
                <path d="M406.060326,22.6625054 C404.32229,21.798414 402.642323,21.3951243 401.020188,21.3951243 C399.398289,21.3951243 398.181451,22.2014681 398.181451,23.2385662 C398.181451,24.4486712 398.644817,24.6791899 402.352453,25.4857694 C407.624629,26.5226318 410,28.9998821 410,33.263534 C410,39.1401093 405.075526,43 397.486047,43 C393.836243,43 390.41824,42.0206494 387,40.0042006 L390.360408,33.493817 C392.793374,35.106976 395.632347,36.1440741 397.775917,36.1440741 C399.456121,36.1440741 400.672486,35.2799828 400.672486,34.1276254 C400.672486,32.8024968 399.977556,32.3994427 396.733048,31.7078868 C391.055101,30.5557651 389.027669,28.5968281 389.027669,24.3334119 C389.027669,18.6296078 393.604678,15 400.730554,15 C403.916756,15 406.292364,15.4608016 409.188695,16.6706708 L406.060326,22.6625054 Z" id="Fill-16" fill="#213875" mask="url(#mask-2)"></path>
            </g>
        </g>
    </g>
</svg>