<?xml version="1.0" encoding="utf-8"?>
<!-- Generator: Adobe Illustrator 22.0.1, SVG Export Plug-In . SVG Version: 6.00 Build 0)  -->
<svg version="1.1" id="Laag_1" xmlns="http://www.w3.org/2000/svg" xmlns:xlink="http://www.w3.org/1999/xlink" x="0px" y="0px"
	 viewBox="0 0 550 550" style="enable-background:new 0 0 550 550;" xml:space="preserve">
<style type="text/css">
	.st0{fill:#FFFFFF;}
	.st1{fill:#404C61;}
	.st2{fill:#FFFFFF;stroke:#404C61;stroke-width:3;stroke-miterlimit:10;}
</style>
<circle class="st0" cx="275" cy="275" r="13.3"/>
<path class="st0" d="M228.4,330.4L217,493l2.6,0.6l48.9-201.4c-0.5-0.2-1-0.4-1.5-0.7L228.4,330.4z"/>
<path class="st0" d="M265.4,259.4l-12.4-53.4l-131.5-96.2l-1.9,1.9L264,260.4C264.4,260,264.9,259.7,265.4,259.4z"/>
<path class="st0" d="M293.3,274.4c0,0.2,0,0.4,0,0.6c0,0.3,0,0.7,0,1l50.8,20.4l154.3-52.5l-0.4-2.6L293.3,274.4z"/>
<path class="st1" d="M292.5,269.4c-2.4-7.6-9.5-12.8-17.5-12.8c-1.7,0-3.3,0.2-5,0.7l-12.6-54.3l-136.4-99.9l-8.4,8.3l147.9,152.3
	c-2.4,3.2-3.8,7.1-3.8,11.1c0,5.2,2.2,10.1,6.1,13.6l-39.2,39.6l-11.9,168.7l11.6,2.7l50.1-206.3c0.6,0.1,1.1,0.1,1.6,0.1
	c7.8,0,14.8-5,17.3-12.3l51.7,20.8l160.1-54.5l-2-11.7L292.5,269.4z M119.5,111.7l1.9-1.9l131.5,96.2l12.4,53.4
	c-0.5,0.3-0.9,0.6-1.4,1L119.5,111.7z M219.5,493.6L217,493l11.4-162.6l38.5-38.9c0.5,0.2,1,0.5,1.5,0.7L219.5,493.6z M275,288.3
	c-7.4,0-13.3-6-13.3-13.3s6-13.3,13.3-13.3s13.3,6,13.3,13.3S282.4,288.3,275,288.3z M344.1,296.5L293.3,276c0-0.4,0-0.7,0-1
	c0-0.2,0-0.4,0-0.6L498,241.3l0.4,2.6L344.1,296.5z"/>
<g>
	<polyline class="st2" points="704.5,465.7 704.5,505.3 751,505.3 751,465.7 	"/>
	<polyline class="st2" points="712.5,436.2 704.5,465.7 751,465.7 743,436.2 	"/>
	<polyline class="st2" points="735.2,178.6 860.8,119.2 864.2,123.7 772.5,184.9 737.4,184.9 	"/>
	<polyline class="st2" points="718.3,179.9 629.8,73.9 633.2,70.5 718.1,143 724,175.2 	"/>
	<polyline class="st2" points="719.9,223.6 712.5,436.2 743,436.2 734.2,192.2 	"/>
	<polyline class="st2" points="724,194.5 697.7,220 688.7,326.4 693.2,327.5 727.2,195.1 	"/>
	<circle class="st2" cx="727.2" cy="184.9" r="10.2"/>
</g>
</svg>
